SplineFontDB: 1.0
FontName: DBThaiText-Bold
FullName: DBThaiText Bold
FamilyName: DBThaiText
Weight: Bold
Copyright: Typeface (c) The Monotype Corporation plc. Data (c) The Monotype Corporation plc/Type Solutions Inc. 1990-1992. All Rights Reserved\n\nModified by TLWG
Version: 1.1 : May 12, 2003
ItalicAngle: 0
UnderlinePosition: -50
UnderlineWidth: 60
Ascent: 800
Descent: 200
NeedsXUIDChange: 1
FSType: 0
OS2Version: 0
OS2_WeightWidthSlopeOnly: 0
OS2_UseTypoMetrics: 0
CreationTime: 1117429197
ModificationTime: 1117429197
PfmFamily: 33
TTFWeight: 700
TTFWidth: 5
LineGap: 266
VLineGap: 0
Panose: 2 0 8 3 0 0 0 0 0 0
OS2TypoAscent: 0
OS2TypoAOffset: 1
OS2TypoDescent: 0
OS2TypoDOffset: 1
OS2TypoLinegap: 0
OS2WinAscent: 0
OS2WinAOffset: 1
OS2WinDescent: 0
OS2WinDOffset: 1
HheadAscent: 0
HheadAOffset: 1
HheadDescent: 0
HheadDOffset: 1
OS2Vendor: 'PfEd'
ScriptLang: 3
 1 latn 1 dflt 
 1 thai 4 KUY  PAL  THA  dflt 
 1 thai 1 PAL  
ChainSub: class 0 1 'ccmp' 7 7 1 5
  Class: 414 uni0E01 uni0E02 uni0E03 uni0E04 uni0E05 uni0E06 uni0E07 uni0E08 uni0E09 uni0E0A uni0E0B uni0E0C uni0E0D uni0E0E uni0E0F uni0E10 uni0E11 uni0E12 uni0E13 uni0E14 uni0E15 uni0E16 uni0E17 uni0E18 uni0E19 uni0E1A uni0E1B uni0E1C uni0E1D uni0E1E uni0E1F uni0E20 uni0E21 uni0E22 uni0E23 uni0E24 uni0E25 uni0E26 uni0E27 uni0E28 uni0E29 uni0E2A uni0E2B uni0E2C uni0E2D uni0E2E uni0E10.descless uni0E0D.descless dottedcircle
  Class: 7 uni0E33
  Class: 39 uni0E48 uni0E49 uni0E4A uni0E4B uni0E4C
  Class: 23 uni0E38 uni0E39 uni0E3A
  Class: 39 uni0E31 uni0E34 uni0E35 uni0E36 uni0E37
  Class: 7 uni0E4D

StartChar: .notdef
Encoding: 0 -1 0
Width: 871
VWidth: 2048
Flags: W
HStem: -46 114<178 757> 1395 114<62 641>
VStem: 62 116<-46 1395> 641 116<68 1509>
Fore
62 -46 m 1
 62 1509 l 1
 757 1509 l 1
 757 -46 l 1
 62 -46 l 1
178 68 m 1
 641 68 l 1
 641 1395 l 1
 178 1395 l 1
 178 68 l 1
EndSplineSet
EndChar
StartChar: exclam
Encoding: 33 33 3
Width: 308
Flags: W
HStem: 0 136<104 244>
VStem: 104 140<0 136 482 680>
Fore
141 193 m 1
 104 483 l 1
 104 680 l 1
 244 680 l 1
 244 483 l 1
 203 193 l 1
 141 193 l 1
104 136 m 1
 244 136 l 1
 244 0 l 1
 104 0 l 1
 104 136 l 1
EndSplineSet
EndChar
StartChar: quotedbl
Encoding: 34 34 4
Width: 439
VWidth: 2048
Flags: W
Fore
80 439 m 1
 44 568 l 1
 44 679 l 1
 183 679 l 1
 183 568 l 1
 142 439 l 1
 80 439 l 1
289 439 m 1
 252 568 l 1
 252 679 l 1
 393 679 l 5
 393 568 l 1
 351 439 l 1
 289 439 l 1
EndSplineSet
EndChar
StartChar: numbersign
Encoding: 35 35 5
Width: 517
Flags: W
HStem: -28 267<3 155 206 349> 133 106<3 87 206 280 402 490> 354 104<41 130 441 515>
Fore
187 648 m 1xa0
 286 648 l 1
 249 458 l 1
 342 461 l 1
 378 648 l 1
 477 648 l 1
 441 458 l 1
 515 458 l 1
 515 354 l 1
 425 354 l 1
 402 239 l 1
 490 239 l 1
 490 133 l 1
 378 133 l 1x60
 349 -28 l 1
 249 -28 l 1xa0
 280 133 l 1
 187 133 l 1x60
 155 -28 l 1
 58 -28 l 1xa0
 87 133 l 1
 3 133 l 1x60
 3 239 l 1
 109 239 l 1
 130 354 l 1
 41 354 l 1
 41 458 l 1
 151 458 l 1
 187 648 l 1xa0
229 354 m 1
 206 239 l 1
 302 239 l 1xa0
 326 354 l 1
 229 354 l 1
EndSplineSet
EndChar
StartChar: dollar
Encoding: 36 36 6
Width: 517
Flags: W
VStem: 226 63<-116 -17 78 264 400 566 662 713> 367 123<161 191>
Fore
483 465 m 1
 362 465 l 1
 362 496 354 519 338 536 c 0
 319 552 303 563 289 566 c 1
 289 380 l 1
 352 364 402 341 438 312 c 0
 471 283 492 242 490 191 c 0
 490 149 481 115 467 88 c 0
 452 61 436 41 415 28 c 0
 393 13 373 1 348 -3 c 0
 323 -10 303 -14 289 -17 c 1
 289 -116 l 1
 226 -116 l 1
 228 -20 l 1
 216 -17 204 -16 194 -14 c 0
 184 -13 171 -9 155 -3 c 0
 139 1 125 7 113 14 c 0
 102 23 87 33 72 48 c 0
 38 84 22 133 22 193 c 1
 144 193 l 1
 146 168 151 149 157 135 c 0
 164 119 171 109 178 102 c 0
 187 96 194 90 204 87 c 0
 213 81 222 80 228 78 c 1
 228 287 l 1
 175 297 130 316 96 345 c 0
 58 377 38 418 38 468 c 0
 36 525 54 570 88 605 c 0
 122 639 167 657 228 663 c 1
 228 713 l 1
 289 713 l 1
 289 663 l 1
 407 654 474 589 483 465 c 1
228 400 m 1
 228 568 l 1
 180 560 155 529 154 478 c 1
 155 465 160 454 164 444 c 0
 168 434 175 426 187 419 c 0
 199 412 213 405 228 400 c 1
289 264 m 1
 289 81 l 1
 293 84 300 87 307 90 c 0
 318 93 328 99 336 103 c 0
 344 109 351 115 357 125 c 0
 362 135 365 146 367 161 c 0
 367 215 341 249 289 264 c 1
EndSplineSet
EndChar
StartChar: percent
Encoding: 37 37 7
Width: 827
Flags: W
HStem: -12 92<634 645> 236 93<634 645> 315 92<191 197> 564 93<191 197>
VStem: 20 93<484 497> 268 94<484 497> 464 93<147.44 163> 710 95<144.16 163>
Fore
265 -16 m 1x9f
 191 -16 l 1
 566 660 l 1
 638 660 l 1
 265 -16 l 1x9f
464 160 m 0
 464 204 480 244 513 278 c 0
 545 313 587 329 634 329 c 0xdf
 682 329 719 313 754 278 c 0
 789 244 805 206 805 160 c 0
 805 112 789 71 754 38 c 0
 719 4 680 -12 634 -12 c 0
 587 -12 547 3 513 38 c 0
 478 72 464 112 464 160 c 0
20 484 m 0
 20 532 36 571 71 606 c 0
 104 641 144 657 191 657 c 0
 239 657 278 641 312 606 c 0
 345 571 362 532 362 484 c 0
 362 438 345 396 312 364 c 0
 278 331 239 315 191 315 c 0xbf
 144 315 104 331 71 364 c 0
 36 396 20 438 20 484 c 0
557 160 m 0
 557 138 566 119 580 103 c 0
 594 88 613 80 634 80 c 0
 655 80 676 88 690 103 c 0
 705 119 710 138 710 160 c 0
 710 180 703 199 689 213 c 0
 673 228 655 236 634 236 c 0xdf
 613 236 594 228 580 213 c 0
 566 199 557 180 557 160 c 0
113 484 m 0
 113 464 122 445 136 431 c 0
 151 416 171 407 191 407 c 0xbf
 213 407 231 416 246 431 c 0
 261 445 268 464 268 484 c 0
 268 506 262 526 248 542 c 0
 232 557 213 564 191 564 c 0
 171 564 151 557 136 542 c 0
 122 526 113 506 113 484 c 0
EndSplineSet
EndChar
StartChar: ampersand
Encoding: 38 38 8
Width: 671
Flags: W
HStem: -17 105<273 278> 329 20G<489 596> 576 104<300 308>
VStem: 51 120<178 197> 122 124<516 542> 354 110<509 531> 492 104<329 349>
Fore
489 349 m 1xee
 596 349 l 1
 596 315 590 278 579 242 c 0
 567 206 550 175 528 151 c 1
 647 0 l 1
 496 0 l 1
 451 58 l 1
 420 33 394 13 374 1 c 0
 351 -10 318 -17 276 -17 c 0
 215 -20 161 -1 116 33 c 0
 72 67 51 115 51 178 c 0xf6
 51 181 52 194 54 219 c 0
 59 249 71 274 87 294 c 0
 103 315 122 331 142 342 c 0
 162 354 180 365 197 376 c 1
 181 392 171 405 161 416 c 0
 151 428 142 442 135 461 c 0
 126 478 122 496 122 516 c 0
 122 538 126 560 138 581 c 0
 151 613 173 638 202 655 c 0
 231 671 264 680 300 680 c 0
 341 680 376 671 406 651 c 0
 436 631 454 602 461 567 c 0
 463 552 464 541 464 531 c 0
 464 493 454 464 436 439 c 0
 416 415 390 392 355 367 c 1
 455 241 l 1
 465 249 474 262 480 280 c 0
 489 299 492 316 492 331 c 0
 492 336 490 342 489 349 c 1xee
267 477 m 2
 297 441 l 1
 307 447 318 452 325 457 c 0
 331 463 338 467 342 476 c 0
 348 483 352 494 354 509 c 0
 354 529 351 545 344 557 c 0
 339 568 325 576 300 576 c 0
 268 576 251 564 246 542 c 1xee
 246 521 251 496 267 477 c 2
381 142 m 1
 257 297 l 1
 226 277 204 264 193 255 c 0
 178 242 171 223 171 197 c 0xf6
 171 165 186 136 213 112 c 0
 231 97 251 88 273 88 c 0
 303 88 341 106 381 142 c 1
EndSplineSet
EndChar
StartChar: quotesingle
Encoding: 39 39 9
Width: 207
VWidth: 2048
Flags: W
Fore
80 439 m 1
 44 568 l 1
 44 679 l 1
 183 679 l 1
 183 568 l 1
 142 439 l 1
 80 439 l 1
EndSplineSet
EndChar
StartChar: parenleft
Encoding: 40 40 10
Width: 308
Flags: W
Fore
188 680 m 1
 281 680 l 1
 244 613 215 547 190 481 c 0
 165 415 154 351 154 287 c 0
 154 268 154 254 155 246 c 0
 160 171 173 93 197 13 c 0
 219 -67 248 -135 281 -188 c 1
 188 -188 l 1
 155 -130 135 -93 123 -72 c 0
 112 -51 99 -23 86 13 c 0
 72 48 62 84 54 119 c 0
 46 155 39 199 38 246 c 0
 38 290 42 335 52 377 c 0
 61 419 74 458 88 494 c 0
 103 531 117 563 133 587 c 0
 148 610 165 642 188 680 c 1
EndSplineSet
EndChar
StartChar: parenright
Encoding: 41 41 11
Width: 308
Flags: W
Fore
22 680 m 1
 113 680 l 1
 161 606 197 538 225 474 c 0
 252 409 267 332 265 246 c 0
 264 160 249 87 226 28 c 0
 202 -30 164 -103 113 -188 c 1
 22 -188 l 1
 55 -135 86 -67 109 13 c 0
 130 91 144 168 148 246 c 0
 149 254 149 267 149 283 c 0
 149 318 146 351 139 386 c 0
 133 418 122 452 110 489 c 0
 97 526 86 558 71 587 c 0
 58 615 41 645 22 680 c 1
EndSplineSet
EndChar
StartChar: asterisk
Encoding: 42 42 12
Width: 361
Flags: W
VStem: 141 72<566 680>
Fore
112 358 m 1
 51 409 l 1
 123 500 l 1
 22 536 l 1
 46 602 l 1
 141 566 l 1
 141 680 l 1
 213 680 l 1
 213 566 l 1
 307 602 l 1
 332 536 l 1
 231 500 l 1
 303 409 l 1
 244 358 l 1
 174 450 l 1
 112 358 l 1
EndSplineSet
EndChar
StartChar: plus
Encoding: 43 43 13
Width: 543
Flags: W
HStem: 277 112<46 216 328 499>
VStem: 216 112<106 277 389 558>
Fore
216 558 m 5
 328 558 l 5
 328 389 l 5
 499 389 l 5
 499 277 l 5
 328 277 l 5
 328 106 l 5
 216 106 l 5
 216 277 l 5
 46 277 l 5
 46 389 l 5
 216 389 l 5
 216 558 l 5
EndSplineSet
EndChar
StartChar: comma
Encoding: 44 44 14
Width: 319
Flags: W
Fore
246 71 m 0
 248 26 231 -12 200 -39 c 0
 168 -68 139 -86 109 -88 c 1
 97 -65 l 1
 117 -54 135 -45 146 -35 c 0
 160 -25 167 -9 171 13 c 1
 152 13 136 17 119 28 c 0
 103 38 96 55 93 84 c 0
 93 103 100 119 112 135 c 0
 123 148 139 154 160 154 c 0
 188 154 210 146 223 130 c 0
 238 116 246 96 246 71 c 0
EndSplineSet
EndChar
StartChar: hyphen
Encoding: 45 45 15
Width: 308
Flags: W
HStem: 193 127<25 278>
Fore
25 320 m 1
 278 320 l 1
 278 193 l 1
 25 193 l 1
 25 320 l 1
EndSplineSet
EndChar
StartChar: period
Encoding: 46 46 16
Width: 232
Flags: W
HStem: 0 21G<102 124>
Fore
113 0 m 0
 91 0 74 7 62 20 c 0
 51 33 45 49 45 68 c 0
 45 87 51 103 62 116 c 0
 74 129 91 136 113 136 c 0
 135 136 151 129 162 116 c 0
 174 104 180 88 180 68 c 0
 180 49 174 33 162 20 c 0
 151 7 135 0 113 0 c 0
EndSplineSet
EndChar
StartChar: slash
Encoding: 47 47 17
Width: 258
Flags: W
HStem: -13 21G<1 61>
Fore
199 667 m 1
 255 667 l 1
 61 -13 l 1
 1 -13 l 1
 199 667 l 1
EndSplineSet
EndChar
StartChar: zero
Encoding: 48 48 18
Width: 517
Flags: W
HStem: -22 121<254 269> 557 119<237.125 269>
VStem: 28 129<328 363> 351 130<328 363>
Fore
254 -22 m 0
 223 -22 191 -16 164 -4 c 0
 136 7 113 22 96 42 c 0
 51 99 28 193 28 328 c 0
 28 464 51 557 96 610 c 0
 113 632 136 647 164 658 c 0
 191 670 223 676 254 676 c 0
 325 676 378 654 415 610 c 0
 458 557 481 464 481 328 c 0
 481 193 458 99 415 42 c 0
 378 0 325 -22 254 -22 c 0
254 99 m 0
 294 99 320 113 332 142 c 0
 344 175 351 238 351 328 c 0
 351 418 344 478 332 513 c 0
 320 542 294 557 254 557 c 0
 236 557 219 554 204 545 c 0
 190 538 181 528 177 513 c 0
 164 480 157 418 157 328 c 0
 157 236 164 174 177 142 c 1
 186 113 212 99 254 99 c 0
EndSplineSet
EndChar
StartChar: one
Encoding: 49 49 19
Width: 517
Flags: W
HStem: 0 21G<222 352> 457 87<64 88.7126>
VStem: 222 130<0 660>
Fore
352 660 m 1
 352 0 l 1
 222 0 l 1
 222 457 l 1
 64 457 l 1
 64 544 l 1
 88 544 116 547 144 554 c 0
 173 558 193 567 209 579 c 0
 244 603 264 631 265 660 c 1
 352 660 l 1
EndSplineSet
EndChar
StartChar: two
Encoding: 50 50 20
Width: 517
Flags: W
HStem: 0 117<199 477>
VStem: 38 126<432 459.293> 348 130<436 465>
Fore
477 117 m 1
 477 0 l 1
 28 0 l 1
 30 46 39 86 51 119 c 0
 62 154 87 188 129 222 c 0
 160 246 197 270 235 300 c 0
 273 328 297 349 310 364 c 0
 335 394 348 426 348 458 c 0
 348 470 345 483 342 499 c 0
 339 521 329 539 312 551 c 0
 293 563 276 568 254 568 c 0
 248 568 239 567 231 566 c 0
 187 555 164 512 164 432 c 1
 38 432 l 1
 38 512 58 571 96 615 c 0
 133 655 191 680 268 677 c 4
 407 670 481 587 478 436 c 0
 477 373 419 304 319 235 c 0
 249 186 210 146 199 117 c 1
 477 117 l 1
EndSplineSet
EndChar
StartChar: three
Encoding: 51 51 21
Width: 517
Flags: W
HStem: -22 106<249 274> 294 89<203 225.843> 571 105<247 276>
VStem: 336 125<474 491> 349 132<173 191>
Fore
28 193 m 1xe8
 152 193 l 1
 154 173 157 155 161 144 c 0
 164 133 171 122 178 113 c 0
 187 104 199 97 213 91 c 0
 231 87 251 84 274 84 c 1
 289 88 302 97 310 104 c 0
 336 129 349 157 349 191 c 0xe8
 349 223 336 248 312 267 c 0
 287 286 251 294 203 294 c 1
 203 383 l 1
 239 383 268 390 293 402 c 0
 316 413 329 432 332 458 c 0
 335 471 336 481 336 487 c 0
 336 502 332 516 328 529 c 0
 320 542 312 552 299 560 c 0
 286 567 268 571 248 571 c 0
 210 574 186 560 174 539 c 0
 164 518 160 489 157 452 c 1
 38 452 l 1
 38 500 45 539 58 570 c 0
 71 602 99 629 141 654 c 0
 167 668 212 677 276 676 c 4
 328 676 368 660 396 635 c 0
 423 615 439 590 447 566 c 0
 455 541 461 509 461 474 c 1
 457 445 451 425 441 409 c 0
 429 393 412 376 387 354 c 1
 420 332 445 310 461 283 c 0xf0
 476 260 483 222 481 173 c 0
 480 125 458 80 425 39 c 0
 389 -1 329 -22 249 -22 c 0
 215 -22 184 -16 155 -9 c 0
 128 0 100 20 75 51 c 0
 58 72 45 96 39 117 c 0
 33 141 29 165 28 193 c 1xe8
EndSplineSet
EndChar
StartChar: four
Encoding: 52 52 22
Width: 517
Flags: W
HStem: 0 21G<287 418> 146 106<116 287 418 487>
VStem: 287 131<0 146 252 660>
Fore
265 660 m 1
 418 660 l 1
 418 252 l 1
 487 252 l 1
 487 146 l 1
 418 146 l 1
 418 0 l 1
 287 0 l 1
 287 146 l 1
 23 146 l 1
 23 257 l 1
 265 660 l 1
287 528 m 1
 116 252 l 1
 287 252 l 1
 287 528 l 1
EndSplineSet
EndChar
StartChar: five
Encoding: 53 53 23
Width: 517
Flags: W
HStem: -22 110<232 254> 341 104<238 277> 544 116<104 457>
VStem: 349 132<201 235>
Fore
25 173 m 1
 154 173 l 1
 155 155 160 142 164 130 c 0
 168 119 177 110 191 102 c 0
 206 93 226 88 252 88 c 0
 286 90 310 103 326 128 c 0
 341 152 349 180 349 215 c 0
 349 252 342 281 328 302 c 0
 306 328 277 342 238 341 c 0
 200 341 175 323 164 293 c 1
 45 293 l 1
 104 660 l 1
 457 660 l 1
 457 544 l 1
 186 544 l 1
 162 407 l 1
 187 423 209 432 223 438 c 0
 241 442 260 445 277 445 c 0
 299 445 323 442 348 434 c 0
 392 419 426 392 450 352 c 0
 470 313 481 268 481 222 c 0
 481 167 467 119 444 81 c 0
 425 51 402 28 373 12 c 0
 342 -7 303 -16 254 -22 c 1
 210 -22 178 -16 157 -9 c 0
 136 0 115 13 93 29 c 0
 72 48 58 64 46 81 c 0
 36 100 29 115 28 129 c 0
 26 142 25 157 25 173 c 1
EndSplineSet
EndChar
StartChar: six
Encoding: 54 54 24
Width: 517
Flags: W
HStem: -22 110<247 262> 336 100<255 303> 574 103<256 274>
VStem: 361 122<201 235>
Fore
471 513 m 1
 351 513 l 1
 338 552 312 571 274 574 c 0
 246 574 225 567 206 554 c 0
 188 542 177 528 173 512 c 0
 162 487 157 457 157 423 c 0
 157 406 160 394 161 387 c 1
 178 402 197 415 218 423 c 0
 239 431 268 436 303 436 c 0
 362 436 409 409 445 357 c 0
 470 319 483 274 483 223 c 0
 483 178 477 141 463 110 c 0
 442 65 416 33 386 13 c 0
 352 -9 312 -20 262 -22 c 0
 210 -23 165 -7 128 23 c 0
 90 54 64 91 51 138 c 0
 36 191 29 255 29 329 c 0
 29 394 36 452 51 502 c 0
 67 552 93 594 129 628 c 0
 165 660 213 677 270 677 c 0
 286 677 299 677 306 676 c 0
 370 667 413 645 436 613 c 0
 457 580 470 547 471 513 c 1
171 277 m 0
 161 257 155 235 155 210 c 0
 155 175 164 148 180 125 c 0
 194 104 218 93 248 88 c 1
 281 88 306 99 325 117 c 0
 349 146 361 178 361 219 c 0
 361 251 354 276 341 297 c 0
 323 323 293 336 255 336 c 0
 238 335 222 329 206 319 c 0
 191 312 178 297 171 277 c 0
EndSplineSet
EndChar
StartChar: seven
Encoding: 55 55 25
Width: 517
Flags: W
HStem: 0 21G<123 254> 544 116<28 354>
Fore
28 660 m 1
 492 660 l 1
 492 558 l 1
 457 518 426 476 399 432 c 0
 370 390 348 345 326 300 c 0
 306 254 290 206 277 157 c 0
 265 109 257 55 254 0 c 1
 123 0 l 1
 130 65 142 123 155 171 c 0
 167 218 184 262 202 303 c 0
 219 342 241 381 265 419 c 0
 290 458 319 500 354 544 c 1
 28 544 l 1
 28 660 l 1
EndSplineSet
EndChar
StartChar: eight
Encoding: 56 56 26
Width: 517
Flags: W
HStem: -22 109<239 248> 307 89<239 255> 577 100<241 268>
VStem: 22 133<185 205> 45 115<476.061 507> 357 113<489 507>
Fore
455 93 m 1xec
 438 55 407 28 370 9 c 0
 331 -12 290 -23 246 -22 c 0
 203 -22 164 -10 126 12 c 0
 88 30 61 59 42 96 c 0
 28 123 22 154 22 191 c 0xf4
 22 268 55 325 123 361 c 1
 99 380 80 400 65 419 c 0
 51 441 45 465 45 493 c 0
 45 522 51 551 65 577 c 0
 81 608 104 632 136 651 c 0
 167 668 203 677 241 677 c 0
 331 677 394 652 429 603 c 0
 457 566 470 529 470 492 c 0
 470 461 463 434 444 409 c 0
 426 386 405 368 380 361 c 1
 415 351 441 331 461 302 c 0
 480 273 490 239 490 202 c 0
 490 161 478 125 455 93 c 1xec
315 418 m 1
 329 426 339 438 345 452 c 0
 354 467 357 481 357 496 c 0
 357 518 351 534 338 547 c 0
 323 566 299 577 265 577 c 0
 231 579 204 568 187 552 c 0
 168 538 160 516 160 492 c 0xec
 160 465 168 442 187 423 c 0
 202 407 222 396 249 396 c 0
 280 394 303 403 315 418 c 1
323 117 m 0
 329 125 336 136 341 152 c 0
 345 168 349 186 349 202 c 0
 349 226 342 248 331 265 c 0
 315 291 290 306 255 307 c 0
 225 307 199 299 180 277 c 0
 164 260 155 232 155 199 c 0xf4
 155 167 162 142 174 125 c 1
 194 102 219 87 248 87 c 0
 278 86 304 97 323 117 c 0
EndSplineSet
EndChar
StartChar: nine
Encoding: 57 57 27
Width: 517
Flags: W
HStem: -22 103<222.106 251> 215 111<232 250> 568 109<244 274>
VStem: 26 116<442 459> 351 130<352 442>
Fore
35 154 m 1
 162 154 l 1
 162 138 168 122 184 104 c 0
 199 90 215 81 232 81 c 0
 283 81 318 103 335 144 c 0
 348 177 354 209 354 236 c 0
 354 251 352 262 348 273 c 1
 329 251 307 235 280 223 c 0
 267 218 252 215 236 215 c 0
 215 215 199 215 186 218 c 0
 122 229 75 267 49 328 c 0
 35 362 26 400 26 442 c 0
 26 493 36 534 55 568 c 0
 74 600 100 628 133 648 c 0
 164 670 200 680 241 680 c 0
 248 680 260 679 274 677 c 0
 289 677 310 671 335 663 c 0
 358 651 381 635 403 616 c 0
 425 596 439 574 445 550 c 1
 470 494 481 429 481 352 c 0
 481 300 477 251 467 203 c 0
 455 155 444 117 429 90 c 0
 405 46 376 14 339 0 c 0
 303 -14 267 -22 232 -22 c 0
 168 -22 119 -1 86 38 c 0
 51 78 35 116 35 154 c 1
320 539 m 1
 303 558 277 568 244 568 c 0
 216 568 191 555 167 529 c 1
 151 508 142 478 142 442 c 0
 142 406 152 378 174 357 c 0
 193 336 218 326 248 326 c 0
 277 326 302 338 320 358 c 0
 341 380 351 407 351 442 c 0
 351 464 348 484 341 503 c 0
 336 521 329 532 320 539 c 1
EndSplineSet
EndChar
StartChar: colon
Encoding: 58 58 28
Width: 282
Flags: W
HStem: 0 130<137.601 154> 396 130<137.601 154>
Fore
151 0 m 0
 129 0 115 7 103 20 c 0
 91 30 86 48 86 65 c 0
 86 84 91 99 103 112 c 0
 115 125 129 130 151 130 c 0
 173 130 188 125 200 112 c 0
 212 100 218 84 218 65 c 0
 218 48 212 33 200 20 c 0
 188 7 173 0 151 0 c 0
151 396 m 0
 129 396 115 403 103 416 c 0
 91 429 86 444 86 463 c 0
 86 478 91 493 103 506 c 0
 115 519 129 526 151 526 c 0
 173 526 188 519 200 508 c 0
 212 494 218 480 218 463 c 0
 218 444 212 429 200 416 c 0
 188 403 173 396 151 396 c 0
EndSplineSet
EndChar
StartChar: semicolon
Encoding: 59 59 29
Width: 319
Flags: W
HStem: 13 141<156 171> 352 144<164 173>
Fore
164 352 m 0
 141 352 123 358 112 374 c 0
 100 389 93 405 93 425 c 0
 93 444 100 461 112 476 c 0
 123 490 141 496 164 496 c 0
 188 496 206 490 218 476 c 0
 229 461 236 444 236 425 c 0
 236 405 229 389 218 374 c 0
 204 358 187 352 164 352 c 0
246 71 m 0
 248 26 231 -12 200 -39 c 0
 168 -68 139 -86 109 -88 c 1
 97 -65 l 1
 117 -54 135 -45 146 -35 c 0
 160 -25 167 -9 171 13 c 1
 152 13 136 17 119 28 c 0
 103 38 96 55 93 84 c 0
 93 103 100 119 112 135 c 0
 123 148 139 154 160 154 c 0
 188 154 210 146 223 130 c 0
 238 116 246 96 246 71 c 0
EndSplineSet
EndChar
StartChar: less
Encoding: 60 60 30
Width: 543
Flags: W
Fore
38 277 m 5
 38 389 l 5
 493 558 l 5
 493 436 l 5
 200 332 l 5
 493 228 l 5
 493 106 l 5
 38 277 l 5
EndSplineSet
EndChar
StartChar: equal
Encoding: 61 61 31
Width: 543
Flags: W
HStem: 162 115<46 499> 389 110<46 499>
Fore
46 499 m 5
 499 499 l 5
 499 389 l 5
 46 389 l 5
 46 499 l 5
46 277 m 5
 499 277 l 5
 499 162 l 5
 46 162 l 5
 46 277 l 5
EndSplineSet
EndChar
StartChar: greater
Encoding: 62 62 32
Width: 543
Flags: W
Fore
38 558 m 5
 493 389 l 5
 493 277 l 5
 38 106 l 5
 38 228 l 5
 329 332 l 5
 38 436 l 5
 38 558 l 5
EndSplineSet
EndChar
StartChar: question
Encoding: 63 63 33
Width: 569
Flags: W
HStem: 0 136<223 362> 571 124<278 302>
VStem: 61 126<450 470.895> 229 113<187 210.456> 381 137<484 497>
Fore
342 187 m 1
 229 187 l 1
 229 235 238 273 255 303 c 0
 274 331 300 361 338 389 c 0
 367 409 383 442 381 484 c 0
 381 513 370 534 352 550 c 0
 335 564 313 571 289 571 c 0
 261 571 236 563 216 541 c 0
 197 519 187 490 187 450 c 1
 61 450 l 1
 61 529 84 594 130 645 c 1
 173 679 222 695 280 695 c 0
 316 695 349 690 380 679 c 0
 412 667 436 652 454 634 c 0
 496 593 518 544 518 484 c 0
 518 447 509 413 494 386 c 0
 492 378 487 370 478 361 c 0
 470 351 463 344 455 339 c 0
 447 332 441 326 432 320 c 0
 425 315 415 307 405 300 c 0
 378 280 361 265 354 251 c 0
 345 235 342 213 342 187 c 1
223 0 m 1
 223 136 l 1
 362 136 l 1
 362 0 l 1
 223 0 l 1
EndSplineSet
EndChar
StartChar: at
Encoding: 64 64 34
Width: 907
Flags: W
HStem: -128 82<424 482> 51 75<393 410> 418 65<465 482> 618 77<446 494>
VStem: 25 91<223 257> 239 90<213 236> 799 84<323 353>
Fore
600 476 m 1
 683 476 l 1
 605 193 l 1
 605 178 606 165 609 155 c 0
 610 144 618 136 626 130 c 0
 631 129 638 128 647 128 c 0
 664 128 677 130 689 139 c 1
 706 148 724 161 740 178 c 0
 755 199 767 215 771 229 c 0
 790 267 799 304 799 345 c 0
 799 368 796 390 790 412 c 0
 784 436 770 463 745 493 c 0
 721 525 693 547 666 566 c 0
 610 600 545 618 467 618 c 0
 442 618 416 615 389 609 c 0
 355 603 320 584 283 557 c 0
 248 529 216 496 190 463 c 0
 141 399 116 323 116 239 c 0
 116 215 122 191 128 168 c 0
 136 144 142 123 154 103 c 0
 165 86 175 71 187 59 c 0
 231 13 290 -17 364 -36 c 0
 392 -42 420 -46 452 -46 c 0
 515 -46 579 -35 644 -12 c 1
 670 -86 l 1
 615 -113 541 -128 447 -128 c 0
 416 -128 392 -126 370 -123 c 0
 339 -117 312 -113 286 -104 c 0
 257 -97 229 -84 199 -62 c 0
 167 -42 136 -16 106 17 c 0
 81 48 62 81 48 119 c 0
 33 157 25 193 25 225 c 0
 25 262 28 294 35 325 c 0
 39 354 49 383 64 413 c 0
 77 442 93 470 112 494 c 0
 139 532 174 570 218 606 c 0
 262 641 307 664 358 679 c 0
 396 690 436 695 480 695 c 0
 558 695 629 677 690 641 c 0
 793 580 856 503 874 413 c 0
 880 387 883 361 883 336 c 0
 883 289 873 246 856 209 c 0
 824 142 784 99 735 74 c 0
 709 61 682 54 652 54 c 0
 631 54 613 58 594 62 c 0
 570 68 550 87 531 116 c 1
 500 90 474 72 454 64 c 0
 434 55 415 51 393 51 c 0
 377 51 355 58 329 68 c 0
 303 80 283 97 268 117 c 0
 249 149 239 180 239 213 c 0
 239 219 239 231 242 246 c 0
 255 323 290 381 341 423 c 0
 389 464 434 483 478 483 c 0
 490 483 502 481 512 478 c 0
 551 468 576 450 584 419 c 1
 600 476 l 1
399 126 m 1
 431 126 457 135 477 152 c 1
 502 171 519 197 532 232 c 0
 547 268 554 302 554 331 c 0
 552 374 531 402 492 415 c 0
 484 416 480 418 476 418 c 0
 461 418 444 413 429 405 c 0
 413 396 399 383 383 368 c 0
 368 354 357 335 348 310 c 0
 338 286 329 261 329 236 c 0
 328 209 336 184 349 164 c 0
 361 144 377 130 399 126 c 1
EndSplineSet
EndChar
StartChar: A
Encoding: 65 65 35
Width: 671
Flags: W
HStem: 0 21G<25 167 513 655> 136 116<260 465>
Fore
423 680 m 1
 655 0 l 1
 513 0 l 1
 465 136 l 1
 215 136 l 1
 167 0 l 1
 25 0 l 1
 261 680 l 1
 423 680 l 1
342 516 m 1
 260 252 l 1
 432 252 l 1
 342 516 l 1
EndSplineSet
EndChar
StartChar: B
Encoding: 66 66 36
Width: 671
Flags: W
HStem: 0 116<216 398> 291 116<216 385> 564 116<77 398>
VStem: 77 139<0 291 0 564> 468 135<484 502> 484 135<212 220>
Fore
77 0 m 1xf8
 77 680 l 1
 378 680 l 2
 403 680 432 676 465 667 c 0
 496 658 522 645 541 628 c 1
 560 613 576 596 583 581 c 0
 587 576 590 563 594 544 c 0
 600 525 602 509 603 502 c 0xf8
 603 477 597 454 587 429 c 0
 577 405 560 381 538 362 c 1
 558 348 577 326 592 302 c 0
 606 276 616 248 619 219 c 1xf4
 619 180 615 148 603 119 c 0
 592 91 574 67 550 46 c 0
 512 14 457 0 383 0 c 2
 77 0 l 1xf8
216 564 m 1
 216 407 l 1
 376 407 l 2
 405 407 428 415 444 429 c 0
 461 444 468 463 468 484 c 0
 467 538 438 564 381 564 c 2
 216 564 l 1
216 291 m 1
 216 116 l 1
 380 116 l 2
 407 116 432 122 454 133 c 0
 476 144 487 171 484 212 c 0xf4
 484 244 476 265 457 276 c 0
 439 287 415 291 383 291 c 2
 216 291 l 1
EndSplineSet
EndChar
StartChar: C
Encoding: 67 67 37
Width: 671
Flags: W
HStem: -22 121<328 354> 574 116<328 352>
VStem: 41 136<335 370.779>
Fore
503 232 m 1
 639 232 l 1
 639 199 631 164 613 129 c 0
 594 93 571 65 547 45 c 0
 526 26 496 12 461 0 c 0
 425 -13 387 -22 348 -22 c 0
 270 -23 209 0 157 41 c 0
 106 84 72 141 54 215 c 0
 46 246 41 287 41 335 c 0
 41 386 46 428 58 464 c 0
 102 615 200 690 352 690 c 0
 426 690 487 671 536 638 c 0
 602 593 635 531 639 450 c 1
 505 450 l 1
 503 464 499 481 489 502 c 0
 477 521 461 538 436 552 c 0
 412 567 377 576 335 574 c 0
 303 574 277 560 252 541 c 0
 228 519 210 494 199 465 c 0
 187 438 178 399 177 348 c 0
 175 319 178 293 181 270 c 0
 184 248 188 226 199 204 c 0
 218 161 249 128 287 110 c 0
 306 102 325 99 341 99 c 0
 358 99 378 102 400 106 c 0
 442 117 468 136 480 157 c 0
 492 178 500 204 503 232 c 1
EndSplineSet
EndChar
StartChar: D
Encoding: 68 68 38
Width: 671
Flags: W
HStem: 0 116<212 378> 564 116<72 345>
VStem: 72 140<0 564> 493 141<335 372>
Fore
72 0 m 1
 72 680 l 1
 389 680 l 2
 413 680 439 676 465 666 c 0
 490 655 516 639 541 615 c 0
 566 592 584 560 605 521 c 0
 622 483 634 432 634 370 c 0
 634 315 628 265 616 223 c 0
 605 180 589 146 571 119 c 0
 547 81 519 54 484 33 c 0
 451 12 415 0 378 0 c 2
 72 0 l 1
212 564 m 1
 212 116 l 1
 323 116 l 2
 393 116 442 148 470 209 c 0
 484 242 493 290 493 352 c 0
 493 419 480 468 458 502 c 0
 442 526 426 542 406 551 c 0
 387 558 364 564 338 564 c 2
 212 564 l 1
EndSplineSet
EndChar
StartChar: E
Encoding: 69 69 39
Width: 620
Flags: W
HStem: 0 116<213 581> 291 116<213 539> 564 116<74 566>
VStem: 74 139<0 291 0 564>
Fore
74 680 m 1
 566 680 l 1
 566 564 l 1
 213 564 l 1
 213 407 l 1
 539 407 l 1
 539 291 l 1
 213 291 l 1
 213 116 l 1
 581 116 l 1
 581 0 l 1
 74 0 l 1
 74 680 l 1
EndSplineSet
EndChar
StartChar: F
Encoding: 70 70 40
Width: 569
Flags: W
HStem: 0 21G<68 209> 291 116<209 506> 564 116<68 545>
VStem: 68 141<0 291 0 564>
Fore
68 680 m 1
 545 680 l 1
 545 564 l 1
 209 564 l 1
 209 407 l 1
 506 407 l 1
 506 291 l 1
 209 291 l 1
 209 0 l 1
 68 0 l 1
 68 680 l 1
EndSplineSet
EndChar
StartChar: G
Encoding: 71 71 41
Width: 723
Flags: W
HStem: -22 113<352 371.894> 249 116<390 545> 576 114<350 390>
VStem: 39 135<313 347>
Fore
390 249 m 1
 390 365 l 1
 663 365 l 1
 663 -3 l 1
 579 -3 l 1
 563 81 l 1
 544 61 528 42 513 30 c 1
 499 16 476 4 445 -4 c 0
 416 -16 380 -23 339 -22 c 0
 307 -22 281 -14 262 -9 c 1
 241 -4 225 3 210 12 c 0
 194 20 181 29 168 41 c 0
 155 52 146 61 141 65 c 0
 109 99 84 138 65 186 c 0
 48 232 39 283 39 335 c 0
 39 406 55 474 90 534 c 0
 123 594 171 641 232 667 c 0
 270 683 313 690 362 690 c 0
 406 690 445 684 483 676 c 0
 521 666 554 645 584 616 c 0
 629 571 655 521 663 464 c 1
 534 464 l 1
 522 502 503 529 474 547 c 0
 444 566 409 576 368 576 c 0
 326 576 287 563 249 538 c 1
 225 516 206 487 193 450 c 0
 181 413 174 374 174 332 c 0
 174 283 181 244 197 215 c 0
 235 141 286 100 352 91 c 1
 423 91 471 115 506 155 c 0
 528 184 542 213 545 249 c 1
 390 249 l 1
EndSplineSet
EndChar
StartChar: H
Encoding: 72 72 42
Width: 671
Flags: W
HStem: 0 21G<64 203 471 613> 307 118<203 471>
VStem: 64 139<0 307 0 680> 471 142<0 680>
Fore
64 0 m 1
 64 680 l 1
 203 680 l 1
 203 425 l 1
 471 425 l 1
 471 680 l 1
 613 680 l 1
 613 0 l 1
 471 0 l 1
 471 307 l 1
 203 307 l 1
 203 0 l 1
 64 0 l 1
EndSplineSet
EndChar
StartChar: I
Encoding: 73 73 43
Width: 258
Flags: W
HStem: 0 21G<59 199>
VStem: 59 140<0 680>
Fore
199 680 m 1
 199 0 l 1
 59 0 l 1
 59 680 l 1
 199 680 l 1
EndSplineSet
EndChar
StartChar: J
Encoding: 74 74 44
Width: 517
Flags: W
HStem: -22 119<241 255>
VStem: 23 139<169 251> 313 139<160 680>
Fore
313 680 m 1
 452 680 l 1
 452 162 l 2
 452 116 436 77 405 42 c 0
 370 3 319 -20 254 -22 c 0
 193 -23 146 -13 115 3 c 0
 93 14 75 29 62 48 c 0
 49 65 39 86 35 106 c 0
 28 128 23 149 23 174 c 2
 23 251 l 1
 162 251 l 1
 162 181 l 2
 162 161 167 141 177 123 c 0
 187 104 209 96 241 97 c 0
 267 97 286 106 297 122 c 0
 307 136 313 152 313 173 c 2
 313 680 l 1
EndSplineSet
EndChar
StartChar: K
Encoding: 75 75 45
Width: 671
Flags: W
HStem: 0 21G<68 209 500 668>
VStem: 68 141<0 218 0 680>
Fore
68 0 m 1
 68 680 l 1
 209 680 l 1
 209 381 l 1
 476 680 l 1
 641 680 l 1
 373 386 l 1
 668 0 l 1
 500 0 l 1
 280 294 l 1
 209 218 l 1
 209 0 l 1
 68 0 l 1
EndSplineSet
EndChar
StartChar: L
Encoding: 76 76 46
Width: 569
Flags: W
HStem: 0 116<214 539>
VStem: 74 141<0 680>
Fore
74 680 m 1
 215 680 l 1
 215 116 l 1
 539 116 l 1
 539 0 l 1
 74 0 l 1
 74 680 l 1
EndSplineSet
EndChar
StartChar: M
Encoding: 77 77 47
Width: 775
Flags: W
HStem: 0 21G<61 202 323 463 583 724>
VStem: 61 141<0 551> 583 141<0 680>
Fore
463 0 m 1
 323 0 l 1
 202 551 l 1
 202 0 l 1
 61 0 l 1
 61 680 l 1
 265 680 l 1
 393 157 l 1
 519 680 l 1
 724 680 l 1
 724 0 l 1
 583 0 l 1
 583 551 l 1
 463 0 l 1
EndSplineSet
EndChar
StartChar: N
Encoding: 78 78 48
Width: 671
Flags: W
HStem: 0 21G<64 203 478 616>
VStem: 64 139<0 474> 477 139<213 680>
Fore
64 680 m 1
 202 680 l 1
 477 213 l 1
 477 680 l 1
 616 680 l 1
 616 0 l 1
 478 0 l 1
 203 474 l 1
 203 0 l 1
 64 0 l 1
 64 680 l 1
EndSplineSet
EndChar
StartChar: O
Encoding: 79 79 49
Width: 723
Flags: W
HStem: -22 122<365 375> 568 124<365 375>
VStem: 38 135<335 363> 557 135<335 363>
Fore
692 335 m 0
 692 286 682 236 664 187 c 0
 645 136 622 96 592 64 c 0
 538 7 463 -22 365 -22 c 0
 268 -22 193 7 138 64 c 0
 106 96 84 136 65 187 c 0
 48 236 38 286 38 335 c 0
 38 386 48 436 65 483 c 0
 84 532 106 574 138 606 c 0
 193 664 268 692 365 692 c 0
 393 692 419 689 447 683 c 0
 476 677 502 667 526 654 c 0
 551 642 571 626 592 606 c 0
 622 574 645 532 664 483 c 0
 682 436 692 386 692 335 c 0
365 100 m 0
 415 100 455 115 490 146 c 0
 512 165 529 191 541 226 c 0
 552 261 557 297 557 335 c 0
 557 373 552 407 541 442 c 0
 529 477 512 503 490 522 c 0
 455 554 415 568 365 568 c 0
 315 568 274 554 239 522 c 0
 218 503 202 477 190 444 c 0
 178 409 173 373 173 335 c 0
 173 297 178 261 190 228 c 0
 202 193 218 165 239 146 c 0
 274 115 315 100 365 100 c 0
EndSplineSet
EndChar
StartChar: P
Encoding: 80 80 50
Width: 620
Flags: W
HStem: 0 21G<71 212> 242 116<212 379> 564 116<71 378>
VStem: 71 141<0 242 0 564> 454 136<463 481>
Fore
71 0 m 1
 71 680 l 1
 374 680 l 2
 415 680 454 671 489 660 c 0
 525 647 552 618 571 570 c 0
 583 542 590 509 590 468 c 0
 590 425 583 389 571 364 c 0
 534 283 468 242 377 242 c 2
 212 242 l 1
 212 0 l 1
 71 0 l 1
212 564 m 1
 212 358 l 1
 367 358 l 2
 402 358 426 378 444 416 c 0
 444 419 445 428 450 441 c 0
 452 452 454 464 454 476 c 0
 454 489 452 500 450 512 c 0
 438 545 407 564 361 564 c 2
 212 564 l 1
EndSplineSet
EndChar
StartChar: Q
Encoding: 81 81 51
Width: 723
Flags: W
HStem: -22 122<367 378> 568 124<344.345 378>
VStem: 41 133<335 350> 560 135<335 350>
Fore
621 96 m 1
 695 25 l 1
 622 -51 l 1
 544 25 l 1
 492 -7 432 -22 367 -22 c 0
 273 -22 197 7 141 64 c 0
 110 96 87 136 68 186 c 0
 51 232 41 283 41 335 c 0
 41 387 51 438 68 484 c 0
 87 532 110 574 141 606 c 0
 197 664 273 692 367 692 c 0
 413 692 455 684 494 670 c 0
 534 655 567 634 593 606 c 0
 626 571 651 531 668 483 c 0
 686 436 695 386 695 335 c 0
 695 290 689 248 676 204 c 0
 663 164 644 126 621 96 c 1
445 117 m 1
 376 184 l 1
 447 261 l 1
 525 187 l 1
 545 225 560 274 560 335 c 0
 560 374 554 409 542 444 c 0
 531 477 513 503 492 522 c 0
 458 554 418 568 367 568 c 0
 318 568 277 554 242 522 c 0
 222 503 204 477 193 442 c 0
 181 407 174 373 174 335 c 0
 174 297 181 262 193 228 c 0
 204 193 222 165 242 146 c 0
 277 115 318 100 367 100 c 0
 396 100 423 106 445 117 c 1
EndSplineSet
EndChar
StartChar: R
Encoding: 82 82 52
Width: 671
Flags: W
HStem: 0 21G<74 215 480 631> 268 118<215 395> 564 116<74 422>
VStem: 74 141<0 268 0 564> 463 139<64 107.066 64 160> 489 133<479 497>
Fore
74 0 m 1xf8
 74 680 l 1
 452 680 l 2
 474 680 494 676 518 667 c 0
 539 658 558 645 576 631 c 0
 592 615 603 594 608 571 c 0
 609 564 613 554 615 545 c 0
 616 538 618 529 619 518 c 0
 621 508 622 500 622 492 c 0xf4
 622 470 619 451 615 434 c 0
 606 406 596 387 581 373 c 0
 568 357 550 342 522 328 c 1
 528 325 534 319 544 315 c 0
 552 310 560 304 568 299 c 0
 576 291 581 283 587 273 c 0
 593 261 596 248 597 232 c 0
 600 225 600 200 602 160 c 0
 603 119 605 93 605 81 c 0
 605 65 606 54 610 46 c 0
 616 38 622 30 631 25 c 1
 631 0 l 1
 480 0 l 1
 468 23 463 45 463 64 c 2
 463 200 l 1
 461 215 457 228 451 239 c 0
 442 249 432 257 420 262 c 0
 409 267 394 268 378 268 c 2
 215 268 l 1
 215 0 l 1
 74 0 l 1xf8
215 564 m 1
 215 386 l 1
 405 386 l 2
 425 386 444 393 463 412 c 0xf8
 480 429 489 454 489 487 c 0
 489 538 461 564 403 564 c 2
 215 564 l 1
EndSplineSet
EndChar
StartChar: S
Encoding: 83 83 53
Width: 620
Flags: W
HStem: -23 114<291 323> 471 21G<436 568> 580 110<284 323>
VStem: 45 129<488 503> 436 132<471 485.42> 455 137<184 204>
Fore
568 471 m 1xf8
 436 471 l 1xf8
 436 490 431 508 420 525 c 0
 412 541 396 554 376 566 c 0
 354 576 328 580 297 580 c 0
 219 580 178 554 174 502 c 0
 174 480 177 465 181 457 c 0
 188 450 200 441 216 434 c 1
 222 429 232 425 254 419 c 0
 276 413 300 409 331 403 c 0
 361 399 378 393 387 392 c 0
 464 378 518 355 547 325 c 0
 577 293 592 254 592 204 c 0xf4
 592 171 583 136 568 103 c 0xf8
 554 71 532 45 505 26 c 0
 458 -4 389 -22 291 -23 c 0
 270 -23 242 -17 209 -10 c 0
 175 -1 148 10 125 26 c 0
 96 48 72 74 58 104 c 0
 42 136 33 168 29 202 c 1
 165 202 l 1
 165 177 175 152 194 130 c 0
 222 104 264 91 323 91 c 0
 344 91 364 96 386 102 c 0
 406 106 420 115 431 123 c 0
 447 138 455 157 455 184 c 0xf4
 455 204 450 223 434 238 c 0
 425 249 409 257 392 264 c 0
 373 270 345 277 313 283 c 0
 281 289 254 293 231 299 c 0
 206 303 186 307 167 315 c 0
 142 323 122 335 103 349 c 0
 86 364 71 386 61 409 c 0
 49 436 45 467 45 503 c 1
 51 560 75 606 116 641 c 0
 157 673 219 690 300 690 c 0
 339 690 380 686 423 676 c 0
 464 666 502 641 529 605 c 0
 557 568 568 525 568 471 c 1xf8
EndSplineSet
EndChar
StartChar: T
Encoding: 84 84 54
Width: 569
Flags: W
HStem: 0 21G<219 358> 564 116<13 219 13 557>
VStem: 219 139<0 564>
Fore
13 680 m 1
 557 680 l 1
 557 564 l 1
 358 564 l 1
 358 0 l 1
 219 0 l 1
 219 564 l 1
 13 564 l 1
 13 680 l 1
EndSplineSet
EndChar
StartChar: U
Encoding: 85 85 55
Width: 671
Flags: W
HStem: -22 122<326 360>
VStem: 71 141<201 680> 470 139<201 680>
Fore
470 680 m 1
 609 680 l 1
 609 212 l 2
 609 116 568 46 481 7 c 0
 438 -13 390 -22 342 -22 c 0
 294 -22 252 -13 212 1 c 1
 117 52 71 123 71 212 c 2
 71 680 l 1
 212 680 l 1
 212 210 l 2
 212 178 222 154 239 133 c 0
 257 112 290 100 339 100 c 0
 389 100 423 112 442 133 c 0
 461 154 470 180 470 210 c 2
 470 680 l 1
EndSplineSet
EndChar
StartChar: V
Encoding: 86 86 56
Width: 620
Flags: W
HStem: 0 21G<252 373>
Fore
463 680 m 1
 603 680 l 1
 373 0 l 1
 252 0 l 1
 23 680 l 1
 162 680 l 1
 313 167 l 1
 463 680 l 1
EndSplineSet
EndChar
StartChar: W
Encoding: 87 87 57
Width: 878
Flags: W
HStem: 0 21G<202 328 552 679>
Fore
12 680 m 1
 161 680 l 1
 265 171 l 1
 367 680 l 1
 515 680 l 1
 616 164 l 1
 721 680 l 1
 869 680 l 1
 679 0 l 1
 552 0 l 1
 439 518 l 1
 328 0 l 1
 202 0 l 1
 12 680 l 1
EndSplineSet
EndChar
StartChar: X
Encoding: 88 88 58
Width: 620
Flags: W
HStem: 0 21G<22 186 444 608>
Fore
30 680 m 1
 194 680 l 1
 315 461 l 1
 439 680 l 1
 603 680 l 1
 393 348 l 1
 608 0 l 1
 444 0 l 1
 315 231 l 1
 186 0 l 1
 22 0 l 1
 236 342 l 1
 30 680 l 1
EndSplineSet
EndChar
StartChar: Y
Encoding: 89 89 59
Width: 620
Flags: W
HStem: 0 21G<249 389>
VStem: 249 140<0 252>
Fore
450 680 m 1
 606 680 l 1
 389 252 l 1
 389 0 l 1
 249 0 l 1
 249 252 l 1
 25 680 l 1
 180 680 l 1
 319 387 l 1
 450 680 l 1
EndSplineSet
EndChar
StartChar: Z
Encoding: 90 90 60
Width: 569
Flags: W
HStem: 0 116<191 539> 563 117<28 376>
Fore
28 680 m 1
 539 680 l 1
 539 564 l 1
 191 116 l 1
 539 116 l 1
 539 0 l 1
 28 0 l 1
 28 116 l 1
 376 563 l 1
 28 564 l 1
 28 680 l 1
EndSplineSet
EndChar
StartChar: bracketleft
Encoding: 91 91 61
Width: 308
Flags: W
HStem: -188 97<184 287> 587 93<62 287>
VStem: 62 122<-188 587>
Fore
287 587 m 1
 184 587 l 1
 184 -91 l 1
 287 -91 l 1
 287 -188 l 1
 62 -188 l 1
 62 680 l 1
 287 680 l 1
 287 587 l 1
EndSplineSet
EndChar
StartChar: backslash
Encoding: 92 92 62
Width: 258
Flags: W
Fore
-12 660 m 1
 59 660 l 1
 268 -20 l 1
 200 -20 l 1
 -12 660 l 1
EndSplineSet
EndChar
StartChar: bracketright
Encoding: 93 93 63
Width: 308
Flags: W
HStem: -188 97<16 242> 587 93<16 119>
VStem: 119 123<-91 680>
Fore
16 587 m 1
 16 680 l 1
 242 680 l 1
 242 -188 l 1
 16 -188 l 1
 16 -91 l 1
 119 -91 l 1
 119 587 l 1
 16 587 l 1
EndSplineSet
EndChar
StartChar: asciicircum
Encoding: 94 94 64
Width: 543
Flags: W
Fore
58 252 m 1
 213 648 l 1
 328 648 l 1
 487 252 l 1
 381 252 l 1
 273 531 l 1
 162 252 l 1
 58 252 l 1
EndSplineSet
EndChar
StartChar: underscore
Encoding: 95 95 65
Width: 517
Flags: W
HStem: -187 65<-22 539>
Fore
539 -122 m 1
 539 -187 l 1
 -22 -187 l 1
 -22 -122 l 1
 539 -122 l 1
EndSplineSet
EndChar
StartChar: grave
Encoding: 96 96 66
Width: 378
VWidth: 2048
Flags: W
HStem: 550 129<41 332>
Fore
332 550 m 5
 219 550 l 1
 41 679 l 1
 226 679 l 1
 332 550 l 5
EndSplineSet
EndChar
StartChar: a
Encoding: 97 97 67
Width: 517
Flags: W
HStem: -22 109<155 244> 419 94<249 274.473>
VStem: 25 129<135 150> 336 122<188 354 354 376>
Fore
489 0 m 1
 351 0 l 1
 341 13 336 29 336 51 c 1
 318 33 297 16 268 1 c 0
 241 -13 203 -22 155 -22 c 1
 68 -12 23 41 25 135 c 0
 25 175 39 212 61 239 c 0
 81 267 119 286 173 293 c 1
 216 294 260 303 303 316 c 1
 325 326 336 345 336 374 c 0
 336 389 329 400 315 407 c 0
 300 416 278 419 249 419 c 0
 216 418 193 409 181 394 c 0
 171 380 165 361 164 338 c 1
 41 338 l 1
 42 454 112 513 249 513 c 0
 300 513 339 506 368 494 c 0
 429 471 458 425 458 354 c 2
 458 77 l 2
 458 55 468 36 489 17 c 1
 489 0 l 1
336 210 m 2
 336 238 l 1
 319 229 297 223 267 218 c 0
 238 215 219 213 215 212 c 0
 197 209 184 202 173 190 c 0
 161 178 154 164 154 148 c 0
 154 144 155 138 157 129 c 0
 161 122 165 113 171 106 c 0
 175 100 186 96 197 91 c 0
 209 88 223 87 244 87 c 1
 280 91 304 106 316 128 c 0
 329 149 336 175 336 210 c 2
EndSplineSet
EndChar
StartChar: b
Encoding: 98 98 68
Width: 569
Flags: W
HStem: -22 112<294 315> 400 113<294 329>
VStem: 55 131<0 51 0 267 0 680> 405 131<233 254>
Fore
55 0 m 1
 55 680 l 1
 186 680 l 1
 186 436 l 1
 210 487 260 513 329 513 c 0
 413 512 471 474 503 400 c 0
 526 345 536 297 536 252 c 0
 536 204 522 152 499 96 c 0
 484 67 470 45 452 28 c 1
 436 10 416 -1 393 -10 c 0
 370 -17 344 -22 315 -22 c 0
 262 -20 219 4 186 51 c 1
 186 0 l 1
 55 0 l 1
294 400 m 0
 257 400 228 380 209 342 c 0
 191 312 186 278 186 244 c 0
 186 210 191 177 209 146 c 0
 228 109 257 90 294 90 c 0
 335 90 364 109 381 146 c 0
 396 177 405 210 405 244 c 0
 405 278 396 312 381 342 c 0
 373 364 358 378 344 387 c 0
 328 394 312 400 294 400 c 0
EndSplineSet
EndChar
StartChar: c
Encoding: 99 99 69
Width: 517
Flags: W
HStem: -22 109<267 285.33>
VStem: 30 135<217 251>
Fore
487 316 m 1
 362 316 l 1
 354 351 342 374 328 383 c 0
 313 393 293 400 265 400 c 0
 222 402 191 376 175 326 c 0
 174 320 174 316 173 310 c 0
 171 303 171 293 168 280 c 0
 167 267 165 254 165 241 c 0
 165 218 167 197 173 178 c 0
 181 142 193 117 209 106 c 0
 223 96 242 88 267 87 c 0
 290 87 310 91 326 103 c 0
 341 115 354 139 362 177 c 1
 487 177 l 1
 487 148 477 117 458 90 c 0
 441 62 423 39 406 25 c 0
 387 9 367 -3 348 -10 c 0
 326 -16 297 -22 260 -22 c 0
 210 -23 168 -12 138 10 c 0
 104 30 81 58 65 88 c 0
 49 119 38 148 36 175 c 0
 33 193 30 216 30 244 c 0
 30 297 39 339 54 370 c 0
 72 412 91 442 113 464 c 0
 135 484 155 499 178 503 c 0
 200 508 229 513 265 513 c 0
 326 515 370 502 399 484 c 0
 425 468 445 444 463 407 c 0
 478 370 487 341 487 316 c 1
EndSplineSet
EndChar
StartChar: d
Encoding: 100 100 70
Width: 569
Flags: W
HStem: -22 112<248 268> 402 111<232 268>
VStem: 28 132<233 246> 377 131<-3 680>
Fore
508 680 m 1
 508 -3 l 1
 377 -3 l 1
 377 51 l 1
 361 26 341 10 318 -1 c 0
 293 -13 270 -22 248 -22 c 0
 219 -23 193 -17 171 -10 c 0
 148 -1 128 10 110 28 c 0
 93 45 78 67 65 96 c 0
 42 146 28 191 28 236 c 0
 26 294 38 349 59 399 c 0
 91 471 149 512 232 513 c 0
 306 513 355 487 377 436 c 1
 377 680 l 1
 508 680 l 1
268 402 m 0
 231 402 202 381 180 344 c 1
 165 312 160 278 160 246 c 0
 160 215 165 180 180 146 c 1
 202 109 231 90 268 90 c 0
 306 90 335 109 355 146 c 1
 370 178 377 212 377 246 c 0
 377 280 373 313 355 344 c 0
 336 381 306 402 268 402 c 0
EndSplineSet
EndChar
StartChar: e
Encoding: 101 101 71
Width: 517
Flags: W
HStem: -22 108<251 278> 212 88<152 489> 405 108<262 278.001>
VStem: 22 130<198 212>
Fore
489 212 m 1
 152 212 l 1
 152 175 157 149 168 130 c 0
 181 113 197 102 213 96 c 0
 231 88 252 86 278 86 c 1
 299 90 315 97 329 106 c 0
 342 117 351 129 354 142 c 1
 483 142 l 1
 476 112 458 81 434 58 c 0
 409 33 380 13 348 0 c 0
 315 -14 283 -22 252 -22 c 0
 209 -22 165 -9 122 16 c 1
 100 30 80 49 65 71 c 0
 49 91 38 115 30 138 c 0
 26 161 23 180 22 199 c 0
 22 244 23 280 26 306 c 0
 36 367 54 412 81 442 c 0
 109 474 136 493 165 502 c 0
 193 509 223 513 254 513 c 0
 300 513 339 505 373 484 c 0
 403 467 428 442 445 415 c 0
 458 393 470 370 476 348 c 0
 481 323 484 302 487 281 c 0
 489 262 489 239 489 212 c 1
152 300 m 1
 354 300 l 1
 354 326 348 349 335 370 c 0
 320 392 297 405 262 405 c 0
 225 406 199 394 180 374 c 0
 162 352 152 328 152 300 c 1
EndSplineSet
EndChar
StartChar: f
Encoding: 102 102 72
Width: 308
Flags: W
HStem: 0 21G<84 215> 407 87<13 84 215 291> 581 99<206 289>
VStem: 84 131<0 407 494 556>
Fore
13 407 m 1
 13 494 l 1
 84 494 l 1
 84 554 l 2
 84 593 93 625 115 647 c 0
 136 668 165 680 206 680 c 2
 289 680 l 1
 289 581 l 1
 242 581 l 2
 225 581 215 570 215 547 c 2
 215 494 l 1
 291 494 l 1
 291 407 l 1
 215 407 l 1
 215 0 l 1
 84 0 l 1
 84 407 l 1
 13 407 l 1
EndSplineSet
EndChar
StartChar: g
Encoding: 103 103 73
Width: 569
Flags: W
HStem: -204 89<254 272.434> -22 106<246 267> 394 119<248 271>
VStem: 30 119<227 245> 41 136<-68.2037 -59.0314> 381 124<-29 52 227 505>
Fore
381 505 m 1xf4
 505 505 l 1
 505 -13 l 2
 505 -45 496 -74 481 -102 c 0
 467 -128 450 -149 425 -165 c 0
 386 -191 318 -206 222 -204 c 0
 171 -203 128 -186 93 -155 c 0
 59 -128 41 -96 41 -59 c 1
 177 -59 l 1xec
 177 -87 203 -106 254 -115 c 1
 290 -115 320 -104 345 -86 c 0
 370 -65 381 -42 381 -17 c 2
 381 52 l 1
 367 36 354 23 342 13 c 0
 331 1 316 -7 302 -12 c 0
 287 -17 267 -22 246 -22 c 0
 212 -22 186 -17 165 -10 c 0
 146 -1 125 13 102 35 c 0
 87 49 74 68 64 90 c 0
 52 112 45 135 39 160 c 0
 35 184 30 209 30 236 c 0
 30 278 38 319 51 357 c 0
 64 396 81 428 106 452 c 0
 144 493 191 513 248 513 c 0
 265 513 281 512 297 506 c 0
 307 502 319 494 329 489 c 0
 338 480 345 474 352 465 c 0
 361 457 370 444 381 429 c 1
 381 505 l 1xf4
267 394 m 0
 228 394 197 377 174 339 c 1
 157 304 149 270 149 239 c 0xf4
 149 209 155 175 174 141 c 0
 193 103 226 84 267 84 c 0
 307 84 341 103 361 141 c 0
 377 173 383 204 383 239 c 0
 383 276 376 307 361 339 c 1
 338 377 306 394 267 394 c 0
EndSplineSet
EndChar
StartChar: h
Encoding: 104 104 74
Width: 569
Flags: W
HStem: 0 21G<62 193 374 505> 399 114<310 339>
VStem: 62 122<0 680> 62 131<0 305> 374 131<0 368>
Fore
184 680 m 1xe8
 184 439 l 1xe8
 216 489 268 513 339 513 c 0
 383 513 423 502 455 478 c 0
 489 455 505 419 505 368 c 2
 505 0 l 1
 374 0 l 1
 374 319 l 2
 374 341 368 357 362 373 c 0
 354 386 338 393 310 399 c 1
 277 399 249 390 228 374 c 0
 204 355 193 329 193 294 c 2
 193 0 l 1xd8
 62 0 l 1
 62 680 l 1
 184 680 l 1xe8
EndSplineSet
EndChar
StartChar: i
Encoding: 105 105 75
Width: 258
Flags: W
HStem: 0 21G<62 193> 564 116<62 193>
VStem: 62 131<0 505 564 680>
Fore
62 564 m 1
 62 680 l 1
 193 680 l 1
 193 564 l 1
 62 564 l 1
62 0 m 1
 62 505 l 1
 193 505 l 1
 193 0 l 1
 62 0 l 1
EndSplineSet
EndChar
StartChar: j
Encoding: 106 106 76
Width: 258
Flags: W
HStem: -204 107<3 30.1574> 564 116<65 194>
VStem: 65 129<-72.1842 505 564 680>
Fore
65 564 m 1
 65 680 l 1
 194 680 l 1
 194 564 l 1
 65 564 l 1
65 -61 m 2
 65 505 l 1
 194 505 l 1
 194 -93 l 2
 194 -110 191 -125 186 -139 c 0
 178 -154 171 -167 160 -177 c 0
 148 -188 135 -194 119 -197 c 0
 88 -202 51 -204 3 -204 c 1
 3 -97 l 1
 26 -97 42 -96 52 -90 c 0
 61 -86 65 -75 65 -61 c 2
EndSplineSet
EndChar
StartChar: k
Encoding: 107 107 77
Width: 517
Flags: W
HStem: 0 21G<55 186 357 512>
VStem: 55 131<0 157 0 680>
Fore
55 680 m 1
 186 680 l 1
 186 307 l 1
 351 505 l 1
 500 505 l 1
 329 313 l 1
 512 0 l 1
 357 0 l 1
 239 216 l 1
 186 157 l 1
 186 0 l 1
 55 0 l 1
 55 680 l 1
EndSplineSet
EndChar
StartChar: l
Encoding: 108 108 78
Width: 258
Flags: W
HStem: 0 21G<62 193>
VStem: 62 131<0 680>
Fore
62 680 m 1
 193 680 l 1
 193 0 l 1
 62 0 l 1
 62 680 l 1
EndSplineSet
EndChar
StartChar: m
Encoding: 109 109 79
Width: 827
Flags: W
HStem: 0 21G<55 186 348 477 638 768> 402 114<571 602>
VStem: 55 131<0 321 0 505> 348 129<0 321> 638 130<0 353>
Fore
186 0 m 1
 55 0 l 1
 55 505 l 1
 186 505 l 1
 186 429 l 1
 206 461 229 481 251 493 c 0
 273 506 303 513 342 513 c 1
 374 509 394 503 409 493 c 0
 423 483 441 465 463 439 c 1
 478 464 499 483 519 496 c 0
 541 509 567 516 602 516 c 0
 609 516 621 515 639 513 c 0
 726 502 768 447 768 351 c 2
 768 0 l 1
 638 0 l 1
 638 348 l 2
 638 378 615 396 571 402 c 1
 541 402 518 392 502 373 c 0
 484 351 477 331 477 310 c 2
 477 0 l 1
 348 0 l 1
 348 348 l 1
 339 381 316 400 276 402 c 0
 251 402 229 393 212 377 c 0
 193 362 186 339 186 310 c 2
 186 0 l 1
EndSplineSet
EndChar
StartChar: n
Encoding: 110 110 80
Width: 569
Flags: W
HStem: 0 21G<59 188 378 509> 407 106<283 315>
VStem: 59 129<0 325 0 505> 378 131<0 339>
Fore
59 0 m 1
 59 505 l 1
 188 505 l 1
 188 429 l 1
 202 455 219 477 242 492 c 0
 265 506 290 513 315 513 c 0
 444 513 509 455 509 339 c 2
 509 0 l 1
 378 0 l 1
 378 310 l 2
 378 341 374 364 362 381 c 0
 351 400 325 407 283 407 c 1
 249 403 226 393 212 377 c 0
 199 362 188 344 188 323 c 2
 188 0 l 1
 59 0 l 1
EndSplineSet
EndChar
StartChar: o
Encoding: 111 111 81
Width: 569
Flags: W
HStem: -23 113<281 290> 402 111<281 290>
VStem: 33 131<246 266> 400 131<246 266>
Fore
281 -23 m 0
 212 -23 152 -1 106 39 c 0
 81 62 65 91 52 129 c 0
 41 165 33 204 33 246 c 0
 33 287 39 326 52 364 c 0
 64 402 81 431 106 452 c 0
 151 493 210 513 281 513 c 0
 354 513 412 493 455 452 c 0
 480 429 500 400 513 364 c 0
 525 328 531 289 531 246 c 0
 531 204 525 165 513 129 c 0
 500 91 480 62 455 39 c 0
 412 -1 352 -23 281 -23 c 0
281 402 m 0
 241 402 210 383 188 345 c 0
 173 315 164 281 164 246 c 0
 164 212 173 178 188 148 c 0
 210 110 241 90 281 90 c 0
 320 90 352 110 376 148 c 1
 392 181 400 215 400 246 c 0
 400 280 393 313 376 345 c 0
 354 386 320 402 281 402 c 0
EndSplineSet
EndChar
StartChar: p
Encoding: 112 112 82
Width: 569
Flags: W
HStem: -22 109<294 320> 399 114<294 318>
VStem: 54 130<-204 52 -204 261 -204 505> 403 131<227 261>
Fore
54 505 m 1
 184 505 l 1
 184 429 l 1
 191 439 199 450 210 461 c 0
 219 471 228 480 238 489 c 0
 246 494 257 502 270 506 c 0
 283 512 300 513 318 513 c 0
 376 513 423 493 461 452 c 0
 483 428 502 396 515 358 c 0
 528 319 534 278 534 236 c 0
 534 194 528 157 516 123 c 0
 505 87 489 58 465 35 c 0
 444 13 423 -1 402 -10 c 0
 381 -17 355 -22 320 -22 c 0
 299 -22 278 -17 264 -12 c 0
 249 -7 236 1 225 12 c 0
 213 20 200 35 184 52 c 1
 184 -204 l 1
 54 -204 l 1
 54 505 l 1
294 399 m 0
 257 399 226 378 204 341 c 1
 190 304 184 273 184 242 c 0
 184 213 190 180 204 144 c 1
 226 106 257 87 294 87 c 0
 332 87 361 106 381 144 c 1
 396 180 403 213 403 242 c 0
 403 273 396 304 381 341 c 1
 361 378 332 399 294 399 c 0
EndSplineSet
EndChar
StartChar: q
Encoding: 113 113 83
Width: 569
Flags: W
HStem: -22 100<241 267> 394 119<242 267>
VStem: 26 131<227 245> 377 129<-204 503>
Fore
506 503 m 1
 506 -204 l 1
 377 -204 l 1
 377 52 l 1
 362 36 349 23 338 13 c 0
 326 1 312 -7 297 -12 c 0
 281 -17 262 -22 241 -22 c 0
 206 -22 178 -17 160 -10 c 0
 139 -1 117 12 96 35 c 0
 72 58 55 87 45 123 c 0
 33 160 26 197 26 236 c 0
 26 278 33 319 46 357 c 0
 59 394 77 428 100 452 c 0
 117 470 138 484 160 496 c 0
 180 508 209 513 242 513 c 0
 278 512 306 505 326 490 c 0
 345 477 362 457 377 429 c 1
 377 503 l 1
 506 503 l 1
267 394 m 0
 229 394 200 376 180 338 c 0
 165 306 157 274 157 238 c 0
 157 203 164 171 180 136 c 0
 199 99 229 78 267 78 c 0
 303 78 335 99 354 136 c 0
 370 167 377 202 377 238 c 0
 377 276 370 307 354 338 c 0
 335 376 304 394 267 394 c 0
EndSplineSet
EndChar
StartChar: r
Encoding: 114 114 84
Width: 361
Flags: W
HStem: 0 21G<59 188> 383 130<299 344>
VStem: 59 129<0 286 0 505>
Fore
59 0 m 1
 59 505 l 1
 188 505 l 1
 188 407 l 1
 194 425 202 438 210 450 c 0
 218 461 231 471 252 487 c 0
 277 505 306 513 344 513 c 1
 344 380 l 1
 326 381 312 383 299 383 c 0
 270 383 246 377 228 362 c 0
 209 348 194 323 188 286 c 1
 188 0 l 1
 59 0 l 1
EndSplineSet
EndChar
StartChar: s
Encoding: 115 115 85
Width: 517
Flags: W
HStem: -22 99<249 268> 415 98<239 249>
VStem: 46 127<342 364> 345 126<342 360.174> 349 135<129 157>
Fore
26 149 m 1xe8
 155 149 l 1
 161 130 168 117 180 109 c 0
 190 99 202 91 215 87 c 0
 229 81 248 77 268 77 c 0
 323 75 349 96 349 129 c 0xe8
 349 141 345 149 341 157 c 0
 336 165 328 171 316 173 c 2
 154 219 l 2
 113 231 84 249 68 270 c 0
 54 291 46 315 46 342 c 0
 46 396 65 441 106 476 c 0
 138 500 184 513 241 513 c 0
 306 515 358 502 396 477 c 0
 428 457 450 436 458 415 c 0
 467 393 471 368 471 342 c 1
 345 342 l 1
 345 361 342 376 338 383 c 0
 331 392 318 400 297 406 c 0
 280 412 264 415 249 415 c 0
 228 415 209 409 191 400 c 0
 178 393 173 381 173 364 c 0
 173 345 181 336 202 331 c 2
 390 280 l 2
 406 276 420 267 436 255 c 0
 451 244 463 231 471 213 c 0xf0
 480 194 484 177 484 157 c 0
 484 126 477 96 461 64 c 0
 442 33 415 10 376 -4 c 0
 361 -10 341 -13 316 -16 c 0
 291 -20 270 -22 249 -22 c 0
 202 -20 165 -13 138 -1 c 0
 67 29 29 80 26 149 c 1xe8
EndSplineSet
EndChar
StartChar: t
Encoding: 116 116 86
Width: 308
Flags: W
HStem: -22 102<216 229> 407 87<13 77 209 280>
VStem: 77 132<78 407 494 632>
Fore
13 494 m 1
 77 494 l 1
 77 632 l 1
 209 632 l 1
 209 494 l 1
 280 494 l 1
 280 407 l 1
 209 407 l 1
 209 125 l 2
 209 96 215 80 229 80 c 2
 278 78 l 1
 278 -10 l 1
 260 -16 238 -22 216 -22 c 0
 191 -23 171 -20 155 -14 c 0
 112 -1 86 29 77 78 c 1
 77 407 l 1
 13 407 l 1
 13 494 l 1
EndSplineSet
EndChar
StartChar: u
Encoding: 117 117 87
Width: 569
Flags: W
HStem: 0 21G<374 505>
VStem: 54 130<154 505> 374 131<0 505>
Fore
505 505 m 1
 505 0 l 1
 374 0 l 1
 374 62 l 1
 355 35 338 13 319 1 c 0
 302 -10 277 -16 249 -22 c 1
 213 -20 181 -16 157 -10 c 0
 130 -3 109 13 88 39 c 0
 67 65 54 103 54 154 c 2
 54 505 l 1
 184 505 l 1
 184 191 l 2
 184 161 188 138 200 122 c 0
 212 103 238 96 278 96 c 1
 313 100 338 110 351 125 c 0
 364 139 374 157 374 178 c 2
 374 505 l 1
 505 505 l 1
EndSplineSet
EndChar
StartChar: v
Encoding: 118 118 88
Width: 517
Flags: W
HStem: 0 21G<187 325>
Fore
13 505 m 1
 151 505 l 1
 255 135 l 1
 362 505 l 1
 500 505 l 1
 325 0 l 1
 187 0 l 1
 13 505 l 1
EndSplineSet
EndChar
StartChar: w
Encoding: 119 119 89
Width: 723
Flags: W
HStem: 0 21G<146 280 439 574>
Fore
4 505 m 1
 139 505 l 1
 218 151 l 1
 291 505 l 1
 428 505 l 1
 500 151 l 1
 579 505 l 1
 715 505 l 1
 574 0 l 1
 439 0 l 1
 361 355 l 1
 280 0 l 1
 146 0 l 1
 4 505 l 1
EndSplineSet
EndChar
StartChar: x
Encoding: 120 120 90
Width: 517
Flags: W
HStem: 0 21G<14 171 342 499>
Fore
20 505 m 1
 177 505 l 1
 260 352 l 1
 342 505 l 1
 496 505 l 1
 332 252 l 1
 499 0 l 1
 342 0 l 1
 260 149 l 1
 171 0 l 1
 14 0 l 1
 180 252 l 1
 20 505 l 1
EndSplineSet
EndChar
StartChar: y
Encoding: 121 121 91
Width: 517
Flags: W
HStem: -204 105<78 105.526>
Fore
9 505 m 1
 152 505 l 1
 262 138 l 1
 367 505 l 1
 502 505 l 1
 287 -104 l 1
 281 -126 268 -148 249 -168 c 0
 236 -184 212 -191 175 -197 c 0
 141 -202 109 -204 78 -204 c 1
 78 -99 l 1
 119 -99 146 -93 160 -86 c 0
 180 -74 190 -54 190 -29 c 0
 190 -17 188 -9 186 0 c 2
 9 505 l 1
EndSplineSet
EndChar
StartChar: z
Encoding: 122 122 92
Width: 464
Flags: W
HStem: 0 106<181 436> 399 106<38 268>
Fore
38 505 m 1
 429 505 l 1
 429 399 l 1
 181 106 l 1
 436 106 l 1
 436 0 l 1
 20 0 l 1
 20 106 l 1
 268 399 l 1
 38 399 l 1
 38 505 l 1
EndSplineSet
EndChar
StartChar: braceleft
Encoding: 123 123 93
Width: 361
Flags: W
HStem: -188 91<248.374 294> 206 87<35 54.4285> 589 91<216 294>
VStem: 112 106<-62 155 336 554>
Fore
35 206 m 1
 35 293 l 1
 86 293 112 307 112 338 c 2
 112 552 l 2
 112 592 123 622 148 645 c 0
 173 668 194 680 216 680 c 2
 294 680 l 1
 294 589 l 1
 261 589 l 2
 242 589 229 584 225 577 c 0
 219 568 218 555 218 539 c 2
 218 341 l 2
 218 290 187 260 129 249 c 1
 154 246 174 238 191 226 c 0
 209 213 218 188 218 151 c 2
 218 -48 l 2
 218 -64 222 -75 226 -84 c 0
 231 -91 242 -97 261 -97 c 2
 294 -97 l 1
 294 -188 l 1
 216 -188 l 2
 194 -188 173 -177 148 -154 c 0
 123 -130 112 -100 112 -61 c 2
 112 152 l 2
 112 188 86 206 35 206 c 1
EndSplineSet
EndChar
StartChar: bar
Encoding: 124 124 94
Width: 259
Flags: W
VStem: 93 74<-188 680>
Fore
167 680 m 1
 167 -188 l 1
 93 -188 l 1
 93 680 l 1
 167 680 l 1
EndSplineSet
EndChar
StartChar: braceright
Encoding: 125 125 95
Width: 361
Flags: W
HStem: 206 87<306.799 327.96>
VStem: 144 108<-63 165 328.6 554>
Fore
328 293 m 1
 328 206 l 1
 304 206 287 203 274 194 c 0
 260 187 252 174 252 152 c 2
 252 -61 l 2
 252 -102 239 -133 215 -154 c 0
 190 -177 167 -188 146 -188 c 2
 67 -188 l 1
 67 -97 l 1
 102 -97 l 2
 122 -97 133 -91 138 -84 c 0
 142 -75 144 -64 144 -48 c 2
 144 151 l 2
 144 212 175 244 235 251 c 1
 210 252 188 261 171 273 c 0
 152 283 144 306 144 341 c 2
 144 539 l 2
 144 555 142 568 138 577 c 0
 133 584 122 590 102 590 c 2
 67 590 l 1
 67 680 l 1
 146 680 l 2
 161 680 175 676 191 667 c 0
 206 657 222 642 235 622 c 0
 246 603 252 580 252 552 c 2
 252 339 l 2
 252 307 277 293 328 293 c 1
EndSplineSet
EndChar
StartChar: asciitilde
Encoding: 126 126 96
Width: 543
Flags: W
Fore
122 162 m 1
 55 162 l 1
 62 210 78 246 104 270 c 0
 126 290 148 300 173 300 c 0
 190 300 209 293 226 283 c 2
 320 229 l 2
 341 218 357 212 370 212 c 0
 399 212 412 231 412 270 c 1
 483 270 l 1
 483 251 480 232 476 216 c 0
 470 200 457 181 439 164 c 0
 419 142 399 133 377 133 c 0
 358 133 336 139 310 154 c 2
 206 210 l 2
 191 218 177 223 165 223 c 0
 151 223 139 216 135 204 c 0
 129 193 125 180 122 162 c 1
EndSplineSet
EndChar
StartChar: uni0E10.descless
Encoding: 128 63232 97
Width: 517
Flags: W
HStem: 0 21G<319 423> 135 65<175 186> 287 68<175 185.133> 457 75<416 425> 500 70<219 252>
VStem: 65 68<244 246> 328 95<193 289>
Fore
319 0 m 1xee
 315 28 303 62 286 106 c 0
 268 149 260 171 257 171 c 1
 254 165 246 157 232 148 c 0
 219 139 200 135 175 135 c 0
 141 135 113 146 96 167 c 0
 75 188 65 213 65 244 c 0
 65 274 75 300 96 320 c 0
 115 342 141 354 175 355 c 0
 206 355 232 349 251 338 c 0
 268 325 281 303 291 274 c 0
 299 261 306 244 315 225 c 0
 323 204 328 194 328 193 c 2
 328 270 l 2
 328 312 323 338 313 349 c 0
 302 361 278 370 242 380 c 0
 204 390 167 400 128 406 c 0
 88 413 59 418 41 419 c 1
 41 455 l 1
 67 492 96 519 126 541 c 0
 155 560 190 570 231 570 c 0xee
 262 570 299 566 338 552 c 0
 376 541 402 532 416 532 c 0
 434 532 455 538 478 547 c 1
 478 547 480 538 484 519 c 0
 490 502 493 484 494 471 c 1
 464 463 438 457 416 457 c 0xf6
 402 457 389 458 377 461 c 0
 365 464 348 470 325 478 c 0
 300 487 281 492 270 494 c 0
 260 499 246 500 232 500 c 0
 218 500 204 496 190 490 c 0
 175 483 165 477 164 471 c 1
 177 470 199 467 229 463 c 0
 260 457 281 452 297 447 c 0
 352 432 387 413 402 389 c 0
 416 364 423 325 423 274 c 2
 423 0 l 1
 319 0 l 1xee
175 200 m 0
 190 200 200 204 206 213 c 0
 215 222 218 231 218 244 c 0
 218 255 215 265 206 274 c 0
 200 281 190 287 175 287 c 0
 161 287 151 281 144 274 c 0
 136 265 133 255 133 244 c 0
 133 235 136 225 144 215 c 0
 152 206 162 202 175 200 c 0
EndSplineSet
EndChar
StartChar: uni0E34.left
Encoding: 129 63233 98
Width: 0
Flags: W
HStem: 705 68<-529 -488>
Fore
-434 890 m 0
 -393 890 -358 877 -331 857 c 0
 -304 840 -286 818 -273 793 c 0
 -260 768 -248 742 -242 715 c 0
 -236 684 -232 664 -229 652 c 5
 -246 657 -270 666 -304 676 c 0
 -339 683 -380 692 -425 697 c 0
 -455 703 -490 705 -531 705 c 0
 -563 705 -590 703 -615 702 c 0
 -639 700 -657 697 -668 696 c 1
 -660 753 -634 798 -592 834 c 0
 -550 871 -496 892 -434 890 c 0
-434 824 m 1
 -464 824 -490 819 -513 808 c 0
 -536 796 -551 784 -555 770 c 1
 -551 771 -541 771 -529 773 c 0
 -518 773 -505 773 -490 773 c 0
 -476 773 -457 771 -432 770 c 0
 -400 767 -374 761 -354 757 c 0
 -336 751 -323 745 -316 742 c 1
 -339 790 -378 818 -434 824 c 1
EndSplineSet
EndChar
StartChar: uni0E35.left
Encoding: 130 63234 99
Width: 0
Flags: W
HStem: 708 69<-513 -463>
VStem: -302 87<854 953>
Fore
-415 893 m 0
 -383 893 -358 884 -341 877 c 0
 -320 867 -307 858 -302 854 c 1
 -302 953 l 1
 -215 953 l 5
 -215 726 l 1
 -213 726 -206 702 -197 652 c 1
 -215 657 -244 667 -286 679 c 0
 -326 690 -367 696 -405 702 c 0
 -436 706 -471 708 -513 708 c 0
 -538 708 -557 708 -574 706 c 0
 -589 705 -605 705 -621 703 c 0
 -638 702 -647 700 -648 700 c 1
 -644 734 -631 766 -609 796 c 0
 -589 828 -563 848 -528 867 c 0
 -494 883 -457 895 -415 893 c 0
-416 828 m 1
 -444 828 -468 822 -492 811 c 0
 -516 799 -531 786 -536 771 c 1
 -531 773 -522 773 -512 774 c 0
 -500 777 -483 777 -463 777 c 0
 -451 777 -434 774 -413 773 c 0
 -381 770 -355 766 -336 760 c 0
 -318 754 -304 748 -297 745 c 1
 -306 767 -319 783 -338 798 c 0
 -355 812 -381 822 -416 828 c 1
EndSplineSet
EndChar
StartChar: uni0E36.left
Encoding: 131 63235 100
Width: 0
Flags: W
HStem: 708 69<-544 -501> 828 65<-459 -447> 898 63<-331 -318>
VStem: -297 68<865 880>
Fore
-229 880 m 1
 -229 831 -244 799 -274 784 c 1
 -268 774 -260 758 -251 735 c 0
 -241 710 -235 683 -229 652 c 1
 -248 657 -277 667 -318 679 c 0
 -358 690 -400 696 -438 702 c 0
 -468 706 -505 708 -545 708 c 0
 -570 708 -590 708 -606 706 c 0
 -621 705 -638 705 -654 703 c 0
 -670 702 -680 700 -682 700 c 1
 -677 734 -664 766 -642 796 c 0
 -621 828 -594 848 -560 867 c 0
 -528 883 -490 893 -447 893 c 0
 -442 893 -436 893 -428 892 c 0
 -419 890 -416 890 -415 887 c 1
 -413 902 -405 918 -390 935 c 0
 -376 954 -354 961 -323 961 c 0
 -297 961 -276 954 -260 938 c 0
 -244 924 -235 905 -229 880 c 1
-450 828 m 1
 -477 828 -502 822 -525 811 c 0
 -550 799 -564 789 -568 773 c 1
 -564 774 -555 774 -544 777 c 0
 -532 777 -518 777 -503 777 c 0
 -489 777 -470 774 -445 773 c 0
 -415 770 -389 766 -368 760 c 0
 -351 754 -338 748 -329 745 c 1
 -339 767 -352 783 -370 798 c 0
 -389 812 -415 822 -450 828 c 1
-325 841 m 0
 -316 841 -310 844 -304 850 c 0
 -300 856 -297 861 -297 870 c 0
 -297 877 -300 883 -304 887 c 0
 -310 895 -316 898 -325 898 c 0
 -342 898 -352 887 -352 870 c 0
 -352 850 -342 841 -325 841 c 0
EndSplineSet
EndChar
StartChar: uni0E37.left
Encoding: 132 63236 101
Width: 0
Flags: W
HStem: 708 69<-513 -463> 828 65<-425 -412>
VStem: -297 82<850 953>
Fore
-297 850 m 1
 -297 953 l 1
 -215 953 l 1
 -215 726 l 1
 -213 726 -206 702 -197 652 c 1
 -215 657 -244 667 -286 679 c 0
 -326 690 -367 696 -405 702 c 0
 -436 706 -471 708 -513 708 c 0
 -538 708 -557 708 -574 706 c 0
 -589 705 -605 705 -621 703 c 0
 -638 702 -647 700 -648 700 c 1
 -629 779 -596 831 -552 856 c 0
 -508 880 -461 893 -412 893 c 1
 -412 953 l 1
 -335 953 l 1
 -335 873 l 1
 -329 873 -318 866 -297 850 c 1
-416 828 m 1
 -444 828 -468 822 -492 811 c 0
 -516 799 -531 786 -536 771 c 1
 -531 773 -522 773 -512 774 c 0
 -500 777 -483 777 -463 777 c 0
 -451 777 -434 774 -413 773 c 0
 -381 770 -355 766 -336 760 c 0
 -318 754 -304 748 -297 745 c 1
 -306 767 -319 783 -338 798 c 0
 -355 812 -381 822 -416 828 c 1
EndSplineSet
EndChar
StartChar: ellipsis
Encoding: 133 8230 102
Width: 859
VWidth: 2048
Flags: W
VStem: 64 172<51 61> 331 174<48 61> 602 172<49 52>
Fore
505 51 m 4
 505 12 477 -12 420 -20 c 5
 367 -20 338 3 331 49 c 5
 331 99 361 123 419 123 c 4
 444 123 465 115 481 102 c 4
 496 88 505 72 505 51 c 4
774 51 m 5
 774 12 747 -12 690 -20 c 5
 638 -20 608 3 602 49 c 5
 602 99 631 123 689 123 c 4
 713 123 734 115 753 102 c 5
 766 88 773 72 774 51 c 5
236 51 m 4
 236 3 206 -20 149 -20 c 4
 91 -20 64 3 64 51 c 4
 64 99 91 123 149 123 c 4
 206 123 236 99 236 51 c 4
EndSplineSet
EndChar
StartChar: uni0E48.low_left
Encoding: 134 63237 103
Width: 0
Flags: W
VStem: -338 96<658 908>
Fore
-338 658 m 1
 -338 908 l 1
 -242 908 l 1
 -242 658 l 1
 -338 658 l 1
EndSplineSet
EndChar
StartChar: uni0E49.low_left
Encoding: 135 63238 104
Width: 0
Flags: W
HStem: 729 67<-434 -425> 860 69<-425 -423>
VStem: -525 68<821 833> -393 75<821 833> -216 91<884 922>
Fore
-318 821 m 0
 -319 790 -325 768 -331 754 c 0
 -339 740 -344 731 -349 729 c 1
 -344 731 -338 731 -329 732 c 0
 -320 734 -313 737 -303 742 c 0
 -291 747 -281 753 -270 760 c 0
 -260 768 -251 777 -244 789 c 0
 -226 824 -216 857 -216 884 c 0
 -216 902 -216 915 -218 922 c 1
 -125 922 l 1
 -125 803 -164 722 -242 684 c 0
 -289 664 -341 652 -399 652 c 0
 -416 652 -431 652 -444 654 c 0
 -457 655 -465 657 -470 658 c 1
 -470 692 l 1
 -465 693 -457 697 -450 706 c 0
 -441 713 -434 721 -432 729 c 1
 -436 729 -445 732 -464 737 c 0
 -481 742 -494 754 -506 771 c 0
 -518 789 -525 808 -525 831 c 0
 -525 858 -515 882 -496 899 c 0
 -478 919 -454 929 -425 929 c 0
 -400 929 -380 924 -365 912 c 0
 -349 902 -338 887 -329 870 c 0
 -320 854 -318 837 -318 821 c 0
-425 796 m 0
 -415 796 -406 799 -402 806 c 0
 -396 812 -393 821 -393 829 c 0
 -393 837 -396 844 -402 850 c 0
 -406 857 -415 860 -425 860 c 0
 -434 860 -442 857 -447 850 c 0
 -454 844 -457 837 -457 829 c 0
 -457 821 -454 815 -447 806 c 0
 -442 799 -436 796 -425 796 c 0
EndSplineSet
EndChar
StartChar: uni0E4A.low_left
Encoding: 136 63239 105
Width: 0
Flags: W
HStem: 645 51<-521 -514.64> 741 49<-524 -512> 816 64<-406 -390>
VStem: -502 55<710 726> -368 65<760 782> -262 68<814 835>
Fore
-521 645 m 0
 -550 647 -571 658 -590 683 c 0
 -608 708 -619 737 -618 771 c 0
 -618 803 -606 828 -590 848 c 0
 -574 870 -551 880 -521 880 c 0
 -500 880 -484 877 -476 869 c 0
 -464 860 -457 856 -454 850 c 1
 -450 856 -442 860 -432 869 c 0
 -420 877 -407 880 -390 880 c 0
 -362 880 -339 871 -325 854 c 0
 -310 835 -303 812 -303 782 c 0
 -303 755 -310 731 -323 708 c 1
 -318 709 -312 715 -303 721 c 0
 -294 728 -287 735 -280 747 c 0
 -268 770 -262 793 -262 816 c 0
 -262 831 -264 845 -267 860 c 1
 -202 883 l 1
 -197 873 -194 857 -194 835 c 0
 -194 789 -206 748 -229 716 c 0
 -246 692 -268 676 -297 667 c 0
 -325 658 -358 655 -400 655 c 1
 -400 657 -400 660 -402 668 c 0
 -403 677 -403 682 -403 682 c 1
 -399 686 -390 695 -381 708 c 0
 -374 721 -368 740 -368 760 c 0
 -367 798 -380 816 -405 816 c 0
 -416 816 -425 812 -431 808 c 0
 -439 803 -444 798 -447 795 c 1
 -451 798 -457 803 -468 809 c 0
 -478 816 -490 819 -505 819 c 0
 -531 819 -544 808 -545 783 c 1
 -544 784 -539 784 -532 786 c 0
 -526 789 -519 790 -512 790 c 0
 -490 789 -474 782 -464 768 c 0
 -452 754 -447 735 -447 710 c 0
 -447 693 -454 679 -468 666 c 0
 -483 652 -500 645 -521 645 c 0
-522 741 m 0
 -538 741 -545 734 -545 719 c 0
 -545 715 -544 709 -539 705 c 0
 -534 700 -529 696 -522 696 c 0
 -516 696 -512 697 -506 703 c 0
 -503 708 -502 715 -502 719 c 0
 -502 724 -503 729 -506 734 c 0
 -512 740 -516 741 -522 741 c 0
EndSplineSet
EndChar
StartChar: uni0E4B.low_left
Encoding: 137 63240 106
Width: 0
Flags: W
HStem: 753 87<-493 -399 -307 -213>
VStem: -399 92<658 753 840 932>
Fore
-399 753 m 1
 -493 753 l 1
 -493 840 l 1
 -399 840 l 1
 -399 932 l 1
 -307 932 l 1
 -307 840 l 1
 -213 840 l 1
 -213 753 l 1
 -307 753 l 1
 -307 658 l 1
 -399 658 l 1
 -399 753 l 1
EndSplineSet
EndChar
StartChar: uni0E4C.low_left
Encoding: 138 63241 107
Width: 0
Flags: W
HStem: 658 66<-332 -324> 786 67<-332 -324> 853 72<-326 -283>
VStem: -454 89<755 777> -302 70<755 764>
Fore
-184 864 m 0
 -232 856 -280 853 -326 853 c 0
 -299 853 -277 844 -261 826 c 0
 -244 809 -232 789 -232 761 c 0
 -231 734 -241 709 -257 690 c 0
 -274 670 -297 658 -328 658 c 0
 -365 657 -396 668 -419 690 c 0
 -442 710 -454 741 -454 777 c 0
 -452 841 -426 883 -377 908 c 0
 -355 918 -325 924 -283 925 c 0
 -242 929 -215 934 -199 941 c 0
 -181 947 -174 963 -174 992 c 1
 -91 992 l 1
 -91 958 -99 931 -113 908 c 0
 -128 884 -152 870 -184 864 c 0
-332 786 m 0
 -342 786 -351 783 -357 779 c 1
 -362 771 -365 764 -365 755 c 0
 -365 747 -362 741 -357 734 c 0
 -351 728 -342 724 -332 724 c 0
 -323 724 -315 728 -310 734 c 0
 -304 740 -302 747 -302 755 c 0
 -302 777 -312 786 -332 786 c 0
EndSplineSet
EndChar
StartChar: uni0E48.low
Encoding: 139 63242 108
Width: 0
Flags: W
VStem: -174 96<658 908>
AnchorPoint: "AboveBase" -78.2998 652.5 mark 0
Fore
-174 658 m 1
 -174 908 l 1
 -78 908 l 1
 -78 658 l 1
 -174 658 l 1
EndSplineSet
EndChar
StartChar: uni0E49.low
Encoding: 140 63243 109
Width: 0
Flags: W
HStem: 729 67<-330 -320> 860 69<-330 -317>
VStem: -419 65<821 833> -289 74<821 833> -112 90<887 922>
AnchorPoint: "AboveBase" -78.2998 652.5 mark 0
Fore
-215 821 m 0
 -216 790 -219 767 -228 753 c 0
 -235 740 -239 731 -244 729 c 1
 -241 729 -232 731 -218 735 c 0
 -204 740 -190 744 -175 753 c 0
 -161 760 -149 773 -139 789 c 0
 -122 822 -112 856 -112 887 c 0
 -112 903 -112 915 -113 922 c 1
 -22 922 l 1
 -22 803 -61 722 -139 684 c 0
 -184 664 -236 652 -293 652 c 0
 -312 652 -326 652 -339 654 c 0
 -352 655 -361 657 -365 658 c 1
 -365 692 l 1
 -361 693 -352 697 -344 706 c 0
 -336 713 -329 721 -328 729 c 1
 -331 729 -342 732 -361 737 c 0
 -378 742 -392 754 -403 771 c 0
 -415 790 -419 809 -419 831 c 0
 -419 857 -409 880 -392 899 c 0
 -374 919 -349 929 -319 929 c 0
 -286 929 -260 918 -241 895 c 0
 -223 873 -215 848 -215 821 c 0
-320 796 m 0
 -312 796 -303 799 -297 806 c 0
 -291 815 -289 821 -289 829 c 0
 -289 837 -291 844 -297 850 c 0
 -303 857 -312 860 -320 860 c 0
 -331 860 -339 857 -344 850 c 0
 -351 844 -354 837 -354 829 c 0
 -354 821 -351 815 -344 806 c 0
 -339 799 -332 796 -320 796 c 0
EndSplineSet
EndChar
StartChar: uni0E4A.low
Encoding: 141 63244 110
Width: 0
Flags: W
HStem: 651 57<-387 -374> 755 53<-387 -376> 837 68<-387 -368 -261 -244>
VStem: -354 48<721 734> -222 73<773 796> -103 73<834 858>
AnchorPoint: "AboveBase" -78.2998 652.5 mark 0
Fore
-387 651 m 0
 -418 651 -444 666 -463 693 c 0
 -481 721 -493 753 -492 786 c 0
 -492 819 -480 847 -463 870 c 0
 -444 893 -418 905 -387 905 c 0
 -376 905 -364 903 -354 899 c 0
 -345 896 -338 893 -332 890 c 0
 -328 886 -325 883 -319 880 c 0
 -316 877 -315 873 -313 871 c 1
 -307 877 -300 883 -289 892 c 0
 -277 899 -262 905 -244 905 c 0
 -213 905 -190 895 -173 877 c 1
 -157 857 -149 831 -149 796 c 0
 -149 768 -157 741 -173 716 c 1
 -167 718 -161 722 -151 729 c 0
 -142 735 -133 745 -125 758 c 0
 -110 782 -103 809 -103 841 c 0
 -103 858 -106 877 -113 895 c 1
 -38 909 l 1
 -33 895 -30 877 -30 858 c 0
 -30 805 -45 760 -71 724 c 0
 -88 697 -112 680 -142 671 c 0
 -174 664 -212 658 -255 658 c 1
 -255 660 -255 664 -255 670 c 0
 -257 679 -257 683 -257 689 c 1
 -252 693 -244 703 -236 718 c 0
 -226 732 -222 751 -222 773 c 0
 -222 815 -235 835 -261 835 c 0
 -274 835 -286 832 -294 826 c 0
 -303 821 -310 816 -315 811 c 1
 -315 811 l 1
 -315 812 -316 815 -320 819 c 0
 -328 824 -335 828 -341 832 c 0
 -349 835 -358 837 -368 837 c 0
 -399 837 -413 824 -415 799 c 1
 -412 802 -406 803 -400 805 c 0
 -393 806 -386 808 -376 808 c 0
 -352 806 -336 798 -325 783 c 0
 -313 767 -306 745 -306 721 c 0
 -306 703 -315 686 -329 671 c 0
 -344 657 -364 651 -387 651 c 0
-378 755 m 0
 -394 755 -403 747 -403 732 c 0
 -403 716 -394 708 -378 708 c 0
 -362 708 -354 716 -354 732 c 0
 -354 740 -355 744 -358 748 c 0
 -364 754 -370 755 -378 755 c 0
EndSplineSet
EndChar
StartChar: uni0E4B.low
Encoding: 142 63245 111
Width: 0
Flags: W
HStem: 753 87<-355 -260 -171 -75>
VStem: -260 89<658 753 840 932>
AnchorPoint: "AboveBase" -78.2998 652.5 mark 0
Fore
-260 753 m 1
 -355 753 l 1
 -355 840 l 1
 -260 840 l 1
 -260 932 l 1
 -171 932 l 1
 -171 840 l 1
 -75 840 l 1
 -75 753 l 1
 -171 753 l 1
 -171 658 l 1
 -260 658 l 1
 -260 753 l 1
EndSplineSet
EndChar
StartChar: uni0E4C.low
Encoding: 143 63246 112
Width: 0
Flags: W
HStem: 660 64<-251 -234> 789 64<-241 -235>
VStem: -210 69<757 764>
AnchorPoint: "AboveBase" -78.2998 652.5 mark 0
Fore
-91 864 m 0
 -117 858 -144 857 -168 856 c 0
 -193 854 -216 853 -235 853 c 0
 -206 853 -186 844 -168 826 c 1
 -151 809 -141 789 -141 761 c 0
 -139 734 -149 709 -165 690 c 0
 -184 670 -206 660 -236 660 c 0
 -277 660 -307 671 -329 693 c 0
 -351 715 -364 742 -362 777 c 0
 -362 808 -354 834 -341 857 c 0
 -329 879 -310 896 -286 908 c 0
 -264 918 -232 924 -191 928 c 0
 -151 929 -123 934 -104 941 c 0
 -90 945 -81 963 -81 992 c 1
 0 992 l 1
 0 918 -30 874 -91 864 c 0
-241 789 m 0
 -251 789 -260 784 -265 779 c 0
 -270 771 -274 766 -274 757 c 0
 -274 748 -270 742 -265 734 c 0
 -261 728 -252 724 -241 724 c 0
 -231 724 -223 728 -218 734 c 0
 -213 741 -210 748 -210 757 c 0
 -210 766 -213 773 -218 780 c 1
 -225 784 -232 789 -241 789 c 0
EndSplineSet
EndChar
StartChar: uni0E0D.descless
Encoding: 144 63247 113
Width: 783
Flags: W
HStem: -10 61<187 207> 0 86<342 587> 139 61<188 207> 503 67<278 303>
VStem: 91 61<86 103> 91 97<97 279> 242 60<96 108> 396 96<86 421> 609 96<106 557>
Fore
705 557 m 1x7780
 705 106 l 2
 705 75 700 52 692 38 c 0
 683 23 668 13 651 9 c 0
 632 3 605 0 570 0 c 2
 342 0 l 1
 342 86 l 1
 396 86 l 1
 396 419 l 2
 396 445 387 465 365 480 c 0
 344 494 315 502 280 503 c 0
 265 503 244 500 216 492 c 0
 188 483 167 471 155 457 c 1
 165 455 181 452 204 444 c 0
 226 438 248 428 267 413 c 1
 267 367 l 1
 249 367 232 362 215 351 c 0
 197 339 188 315 188 277 c 2
 188 199 l 1x7780
 190 200 190 200 191 200 c 0
 197 200 l 0
 218 200 238 194 254 186 c 0
 268 175 281 162 290 146 c 0
 299 129 302 113 302 96 c 0
 302 77 299 61 290 45 c 0
 281 28 268 14 254 4 c 0
 238 -4 218 -10 197 -10 c 0
 164 -10 138 0 119 22 c 0
 102 41 91 65 91 97 c 2xbb80
 91 270 l 2
 91 302 96 326 103 344 c 0
 112 362 125 378 144 392 c 1
 136 394 123 400 104 405 c 0
 87 409 65 415 42 416 c 1
 42 447 l 1
 55 468 84 493 125 525 c 0
 167 555 226 570 303 570 c 0
 339 570 370 566 394 554 c 0
 419 542 439 529 452 513 c 0
 467 494 477 477 481 458 c 0
 489 439 492 420 492 405 c 2
 492 86 l 1
 570 86 l 2
 589 86 600 88 605 93 c 0
 608 99 609 112 609 133 c 2
 609 557 l 1
 705 557 l 1x7780
199 51 m 0xbb80
 206 51 215 52 223 58 c 0
 229 62 235 67 238 74 c 0
 241 80 242 87 242 96 c 0
 242 109 239 119 231 128 c 0
 223 136 213 139 199 139 c 0
 184 139 174 135 165 126 c 0
 157 117 152 106 152 96 c 0
 152 84 157 74 165 65 c 0
 174 55 184 51 199 51 c 0xbb80
EndSplineSet
EndChar
StartChar: quoteleft
Encoding: 145 8216 114
Width: 232
VWidth: 2048
Flags: W
Fore
26 629 m 4
 25 682 41 721 77 754 c 5
 113 786 148 806 181 809 c 5
 194 783 l 5
 167 768 149 757 139 748 c 5
 125 737 115 718 112 695 c 5
 130 695 151 689 168 679 c 4
 187 667 197 647 199 615 c 5
 199 594 191 577 177 557 c 5
 165 542 148 536 125 536 c 4
 91 536 67 544 52 560 c 5
 35 579 26 602 26 629 c 4
EndSplineSet
EndChar
StartChar: quoteright
Encoding: 146 8217 115
Width: 230
VWidth: 2048
Flags: W
Fore
203 705 m 4
 215 654 204 610 174 574 c 5
 146 534 115 509 81 500 c 5
 65 522 l 5
 88 542 104 557 113 567 c 4
 126 580 133 600 130 625 c 5
 112 621 91 622 71 631 c 4
 52 639 38 657 30 686 c 4
 28 706 30 726 41 747 c 4
 51 766 67 774 90 779 c 4
 123 784 148 782 165 767 c 5
 186 753 199 732 203 705 c 4
EndSplineSet
EndChar
StartChar: quotedblleft
Encoding: 147 8220 116
Width: 468
VWidth: 2048
Flags: W
Fore
25 626 m 4
 22 677 38 718 74 751 c 5
 109 784 142 805 175 809 c 5
 190 784 l 5
 164 768 146 757 135 748 c 4
 119 735 112 718 109 693 c 5
 129 693 148 689 167 679 c 4
 186 668 194 647 197 615 c 4
 199 593 191 576 177 557 c 4
 165 542 148 534 125 534 c 4
 91 532 68 542 52 558 c 4
 35 577 25 597 25 626 c 4
248 632 m 4
 244 682 261 722 297 757 c 5
 329 790 364 809 399 815 c 5
 412 790 l 5
 387 774 368 761 357 753 c 4
 342 741 335 722 331 697 c 5
 349 697 370 693 389 683 c 4
 406 671 416 651 419 619 c 4
 419 597 413 580 400 563 c 4
 389 547 370 539 348 539 c 4
 313 539 289 545 274 564 c 5
 257 580 248 603 248 632 c 4
EndSplineSet
EndChar
StartChar: quotedblright
Encoding: 148 8221 117
Width: 469
VWidth: 2048
Flags: W
Fore
416 684 m 4
 418 635 402 594 364 563 c 4
 329 529 294 512 261 506 c 5
 248 532 l 5
 274 545 291 558 303 567 c 4
 318 580 328 597 331 621 c 5
 310 621 291 628 274 638 c 4
 255 648 246 668 244 702 c 4
 244 722 251 741 265 757 c 4
 277 773 294 782 318 782 c 4
 351 782 376 771 390 754 c 5
 407 737 416 715 416 684 c 4
193 684 m 4
 197 635 178 594 141 563 c 5
 106 529 72 512 38 506 c 5
 25 532 l 5
 51 545 68 558 80 567 c 4
 96 579 103 596 109 621 c 5
 90 621 71 628 51 638 c 4
 33 648 23 670 22 702 c 4
 22 722 28 741 42 757 c 4
 54 773 72 782 96 782 c 4
 129 782 154 771 168 754 c 5
 186 740 193 716 193 684 c 4
EndSplineSet
EndChar
StartChar: bullet
Encoding: 149 8226 118
Width: 294
VWidth: 2048
Flags: W
HStem: 458 20G<122.5 156.5>
Fore
139 164 m 0
 90 164 51 180 23 212 c 0
 -4 242 -17 278 -17 320 c 0
 -17 349 -12 376 0 399 c 0
 14 423 33 444 54 457 c 0
 77 471 106 478 139 478 c 0
 174 478 203 471 226 457 c 0
 249 442 267 423 280 400 c 1
 291 376 297 349 297 320 c 0
 297 278 283 241 255 210 c 0
 229 180 190 164 139 164 c 0
EndSplineSet
EndChar
StartChar: endash
Encoding: 150 8211 119
Width: 871
VWidth: 2048
Flags: W
HStem: 274 54<-54 873>
Fore
-54 328 m 1
 873 328 l 1
 873 274 l 1
 -54 274 l 1
 -54 328 l 1
EndSplineSet
EndChar
StartChar: emdash
Encoding: 151 8212 120
Width: 1744
VWidth: 2048
Flags: W
HStem: 274 54<-106 1747>
Fore
-106 328 m 1
 1747 328 l 1
 1747 274 l 1
 -106 274 l 1
 -106 328 l 1
EndSplineSet
EndChar
StartChar: uni0E31.left
Encoding: 152 63248 121
Width: 0
Flags: W
HStem: 657 78<-283 -265> 828 65<-380.547 -365>
VStem: -478 69<786 791> -331 63<784 791>
Fore
-370 893 m 0
 -338 893 -313 883 -294 864 c 0
 -277 842 -268 818 -268 786 c 0
 -268 774 -270 766 -274 755 c 0
 -277 747 -280 741 -283 735 c 1
 -242 735 -204 745 -171 766 c 0
 -136 783 -106 821 -81 879 c 1
 -3 848 l 1
 -13 809 -33 774 -59 747 c 0
 -87 718 -116 695 -154 680 c 0
 -191 666 -232 657 -276 657 c 0
 -290 657 -302 657 -310 658 c 0
 -355 664 -394 679 -429 700 c 0
 -463 721 -480 748 -478 786 c 0
 -478 818 -467 842 -450 864 c 0
 -431 883 -405 893 -370 893 c 0
-370 748 m 0
 -357 748 -348 753 -341 760 c 0
 -335 768 -331 779 -331 789 c 0
 -331 799 -335 808 -341 816 c 0
 -348 824 -357 828 -370 828 c 0
 -383 828 -393 824 -400 816 c 0
 -406 808 -409 799 -409 789 c 0
 -409 779 -406 768 -400 760 c 0
 -393 753 -383 748 -370 748 c 0
EndSplineSet
EndChar
StartChar: uni0E4D.left
Encoding: 153 63249 122
Width: 0
Flags: W
HStem: 658 68<-364.628 -352> 812 68<-366.906 -352>
VStem: -467 68<760.672 773> -313 67<758.956 773>
Fore
-355 880 m 0
 -320 880 -293 870 -274 847 c 0
 -254 826 -246 799 -246 770 c 0
 -246 741 -255 715 -276 692 c 0
 -294 670 -320 658 -355 658 c 0
 -390 658 -418 670 -438 692 c 0
 -457 715 -467 741 -467 770 c 0
 -467 799 -457 826 -438 847 c 0
 -419 869 -392 880 -355 880 c 0
-355 726 m 0
 -342 726 -332 731 -325 740 c 0
 -316 747 -313 758 -313 770 c 0
 -313 782 -316 792 -325 799 c 0
 -332 808 -342 812 -355 812 c 0
 -368 812 -378 809 -387 802 c 0
 -394 793 -399 782 -399 770 c 0
 -399 758 -394 747 -387 740 c 0
 -378 731 -368 726 -355 726 c 0
EndSplineSet
EndChar
StartChar: uni0E47.left
Encoding: 154 63250 123
Width: 0
Flags: W
HStem: 658 60<-304 -297> 737 74<-470 -452> 768 60<-312.861 -295> 841 65<-383 -345>
VStem: -606 80<774 802> -277 75<958.999 978.937>
Fore
-304 658 m 0xbc
 -319 658 -335 663 -348 670 c 0
 -362 679 -376 689 -390 700 c 0
 -405 710 -416 721 -428 728 c 0
 -439 734 -451 737 -463 737 c 0
 -474 737 -481 729 -490 710 c 0
 -499 693 -502 673 -502 655 c 1
 -522 655 l 1
 -544 667 -564 689 -580 716 c 0
 -597 744 -606 773 -606 802 c 0
 -606 816 -605 829 -600 841 c 0
 -589 869 -574 886 -554 896 c 0
 -534 906 -506 911 -470 911 c 0
 -452 911 -439 911 -429 909 c 0
 -394 908 -370 906 -358 906 c 0
 -329 906 -307 911 -297 921 c 0
 -283 929 -277 948 -277 979 c 1
 -202 979 l 1
 -202 929 -215 895 -239 873 c 0
 -264 853 -304 841 -362 841 c 0
 -390 841 -413 842 -431 844 c 0
 -465 844 -490 840 -505 831 c 0
 -519 822 -526 803 -526 774 c 1
 -525 782 -518 790 -506 798 c 0
 -494 806 -478 811 -454 811 c 0xdc
 -434 811 -418 808 -406 799 c 0
 -394 792 -387 784 -381 780 c 1
 -370 811 -345 828 -304 828 c 0
 -277 828 -255 819 -241 805 c 0
 -226 790 -219 768 -219 744 c 0
 -219 719 -228 697 -242 683 c 0
 -257 667 -278 658 -304 658 c 0xbc
-304 718 m 0
 -297 718 -290 721 -286 726 c 0
 -280 731 -278 735 -278 744 c 0
 -278 751 -280 757 -286 761 c 0
 -290 767 -297 768 -304 768 c 0xbc
 -313 768 -318 766 -323 760 c 0
 -328 755 -329 748 -329 744 c 0
 -329 737 -328 731 -323 726 c 0
 -318 721 -313 718 -304 718 c 0
EndSplineSet
EndChar
StartChar: uni0E48.left
Encoding: 155 63251 124
Width: 0
Flags: W
VStem: -335 87<1014 1206>
Fore
-335 1014 m 1
 -335 1206 l 1
 -248 1206 l 1
 -248 1014 l 5
 -335 1014 l 1
EndSplineSet
EndChar
StartChar: uni0E49.left
Encoding: 156 63252 125
Width: 0
Flags: W
HStem: 1037 58<-382 -374> 1150 58<-382 -371>
VStem: -457 55<1115 1126> -345 62<1116 1126>
Fore
-283 1116 m 0
 -286 1089 -289 1070 -294 1058 c 0
 -300 1047 -304 1038 -307 1037 c 1
 -306 1037 -299 1038 -287 1043 c 0
 -276 1045 -264 1050 -251 1058 c 0
 -238 1067 -228 1076 -219 1088 c 0
 -210 1105 -203 1121 -202 1137 c 0
 -199 1151 -197 1173 -197 1201 c 1
 -122 1201 l 1
 -122 1098 -154 1030 -218 999 c 0
 -260 980 -303 972 -348 972 c 0
 -362 972 -376 973 -387 974 c 0
 -399 976 -406 976 -412 979 c 1
 -412 1006 l 1
 -406 1008 -402 1012 -393 1018 c 0
 -386 1022 -381 1030 -380 1037 c 1
 -381 1037 -392 1038 -406 1044 c 0
 -420 1048 -434 1058 -442 1073 c 0
 -452 1088 -457 1105 -457 1124 c 0
 -457 1147 -450 1167 -432 1183 c 0
 -418 1199 -396 1208 -373 1208 c 0
 -344 1208 -320 1198 -306 1180 c 0
 -291 1160 -283 1138 -283 1116 c 0
-374 1095 m 0
 -355 1095 -345 1105 -345 1122 c 0
 -345 1131 -348 1137 -352 1143 c 0
 -357 1147 -365 1150 -374 1150 c 0
 -381 1150 -390 1147 -394 1143 c 0
 -400 1137 -402 1131 -402 1122 c 0
 -402 1116 -399 1109 -393 1102 c 0
 -389 1098 -381 1095 -374 1095 c 0
EndSplineSet
EndChar
StartChar: uni0E4A.left
Encoding: 157 63253 126
Width: 0
Flags: W
HStem: 976 49<-441 -436> 1067 47<-443 -431> 1140 59<-331 -316>
VStem: -532 69<1047 1096> -419 51<1038 1053> -294 62<1086 1108> -193 64<1137 1160>
Fore
-439 976 m 0
 -467 979 -489 990 -506 1014 c 0
 -525 1037 -532 1064 -532 1096 c 1
 -529 1127 -519 1151 -505 1170 c 0
 -490 1189 -467 1199 -439 1199 c 0
 -428 1199 -416 1198 -407 1195 c 0
 -383 1180 l 0
 -378 1174 -376 1172 -376 1172 c 1
 -376 1172 l 1
 -373 1176 -365 1182 -354 1189 c 0
 -344 1196 -331 1199 -316 1199 c 0
 -289 1199 -267 1192 -254 1174 c 0
 -239 1159 -232 1135 -232 1108 c 0
 -232 1082 -239 1057 -251 1035 c 1
 -246 1037 -241 1043 -232 1050 c 0
 -225 1057 -216 1064 -212 1073 c 0
 -200 1095 -193 1116 -193 1140 c 0
 -193 1151 -194 1167 -199 1182 c 1
 -136 1202 l 1
 -130 1189 -129 1174 -129 1160 c 0
 -129 1114 -141 1074 -164 1044 c 0
 -180 1021 -202 1006 -228 998 c 0
 -255 990 -289 986 -326 986 c 1
 -326 992 -326 995 -326 999 c 0
 -328 1005 -328 1008 -328 1012 c 1
 -323 1018 -316 1025 -307 1037 c 0
 -300 1048 -297 1064 -294 1086 c 0
 -294 1101 -297 1114 -302 1125 c 0
 -306 1135 -315 1140 -329 1140 c 0
 -339 1140 -348 1137 -354 1132 c 0
 -362 1127 -367 1124 -368 1119 c 1
 -368 1119 l 1
 -368 1121 -370 1122 -376 1125 c 0
 -381 1130 -389 1132 -396 1137 c 0
 -405 1140 -415 1143 -425 1143 c 0
 -450 1143 -463 1131 -464 1109 c 1
 -463 1111 -457 1111 -451 1112 c 0
 -445 1114 -439 1114 -431 1114 c 0
 -412 1114 -396 1108 -386 1095 c 0
 -374 1082 -368 1063 -368 1041 c 0
 -368 1024 -376 1009 -389 996 c 0
 -403 983 -419 976 -439 976 c 0
-441 1067 m 0
 -455 1067 -463 1060 -463 1047 c 0
 -463 1032 -455 1025 -441 1025 c 0
 -426 1025 -419 1032 -419 1047 c 0
 -419 1060 -426 1067 -441 1067 c 0
EndSplineSet
EndChar
StartChar: uni0E4B.left
Encoding: 158 63254 127
Width: 0
Flags: W
HStem: 1056 75<-413 -331 -249 -167>
VStem: -331 82<985 1056 1131 1202>
Fore
-331 1056 m 1
 -413 1056 l 1
 -413 1131 l 1
 -331 1131 l 1
 -331 1202 l 1
 -249 1202 l 1
 -249 1131 l 1
 -167 1131 l 1
 -167 1056 l 1
 -249 1056 l 1
 -249 985 l 1
 -331 985 l 1
 -331 1056 l 1
EndSplineSet
EndChar
StartChar: uni0E4C.left
Encoding: 159 63255 128
Width: 0
Flags: W
HStem: 928 55<-415 -405> 1037 55<-415 -407>
VStem: -516 75<1011 1028> -389 61<1011 1019>
Fore
-287 1101 m 0
 -326 1095 -355 1095 -374 1093 c 0
 -392 1092 -403 1092 -407 1092 c 0
 -383 1092 -365 1085 -351 1070 c 0
 -338 1056 -328 1037 -328 1016 c 0
 -326 992 -335 970 -349 954 c 0
 -364 937 -383 928 -409 928 c 0
 -442 925 -468 937 -487 956 c 0
 -506 973 -516 996 -516 1028 c 0
 -516 1082 -494 1119 -451 1138 c 0
 -431 1147 -405 1154 -370 1156 c 0
 -336 1157 -313 1161 -299 1167 c 0
 -283 1172 -277 1186 -277 1209 c 1
 -209 1209 l 1
 -209 1182 -215 1157 -228 1138 c 0
 -239 1119 -260 1105 -287 1101 c 0
-415 1037 m 0
 -432 1037 -441 1030 -441 1011 c 0
 -441 993 -432 983 -415 983 c 0
 -396 983 -389 993 -389 1011 c 0
 -389 1018 -390 1024 -394 1030 c 0
 -400 1034 -406 1037 -415 1037 c 0
EndSplineSet
EndChar
StartChar: uni0E01
Encoding: 161 3585 130
Width: 603
Flags: W
HStem: 0 21G<91 188 431 526> 499 71<281 315>
VStem: 91 97<0 289> 431 95<0 394>
Fore
144 392 m 1
 136 394 123 400 104 405 c 0
 87 409 65 415 42 416 c 1
 42 447 l 1
 46 452 52 461 62 471 c 0
 72 483 88 496 110 513 c 0
 130 528 160 542 191 554 c 0
 223 566 261 570 303 570 c 4
 348 570 386 564 418 551 c 4
 451 536 477 516 496 489 c 0
 516 461 526 428 526 387 c 2
 526 0 l 1
 431 0 l 1
 431 378 l 2
 431 418 418 450 393 468 c 0
 367 490 335 499 294 499 c 0
 248 499 202 483 157 455 c 1
 162 454 168 452 178 451 c 0
 190 450 203 444 219 439 c 0
 236 432 252 425 267 413 c 1
 267 367 l 1
 249 367 232 362 215 351 c 0
 197 339 188 315 188 277 c 2
 188 0 l 1
 91 0 l 1
 91 270 l 2
 91 302 96 326 103 344 c 0
 112 362 125 378 144 392 c 1
EndSplineSet
EndChar
StartChar: uni0E02
Encoding: 162 3586 131
Width: 590
Flags: W
HStem: 0 86<149 385> 316 67<119.965 132> 468 103<129 187>
VStem: 16 71<415 433> 173 68<426 433> 215 97<86 257> 286 81<418 433> 416 97<111 557>
Fore
286 418 m 1xf3
 286 445 278 465 265 478 c 0
 251 490 236 496 219 499 c 1
 223 493 228 484 232 474 c 0
 238 461 241 445 241 428 c 0
 239 394 229 368 210 348 c 0
 188 326 162 316 129 316 c 0
 96 316 68 328 48 349 c 0
 26 370 16 396 16 428 c 0
 16 458 25 484 41 506 c 0
 58 528 78 544 104 555 c 0
 130 567 160 571 187 571 c 0
 241 571 286 557 318 528 c 0
 351 499 367 464 367 425 c 0xfb
 367 403 365 386 361 374 c 0
 355 361 348 348 339 335 c 0
 329 319 323 307 318 299 c 0
 313 287 312 274 312 255 c 2
 312 86 l 1
 373 86 l 2
 393 86 405 88 409 93 c 0
 415 100 416 113 416 133 c 2
 416 557 l 5
 513 557 l 1
 513 106 l 2
 513 62 503 35 481 22 c 0
 461 7 425 0 373 0 c 2
 149 0 l 1
 149 86 l 1
 215 86 l 1
 215 252 l 2xf5
 215 273 218 289 223 302 c 0
 228 313 238 328 249 342 c 0
 261 357 268 368 274 377 c 0
 278 386 281 400 286 418 c 1xf3
129 383 m 0
 144 383 154 389 162 396 c 0
 168 405 173 415 173 426 c 0
 173 438 168 450 162 457 c 0
 154 465 144 468 129 468 c 0
 116 468 106 464 99 455 c 0
 90 447 87 438 87 426 c 0
 87 415 90 405 99 396 c 0
 106 389 116 383 129 383 c 0
EndSplineSet
EndChar
StartChar: uni0E03
Encoding: 163 3587 132
Width: 652
Flags: W
HStem: 0 86<212 457> 242 65<138.936 151> 393 65<137.535 160>
VStem: 190 67<351 358> 278 96<86 351> 348 80<458 466> 480 96<133 557>
Fore
149 242 m 0xf6
 106 242 75 255 54 283 c 0
 33 310 22 344 22 387 c 0
 22 396 22 412 25 431 c 0
 28 463 41 487 59 508 c 0
 77 529 99 545 119 557 c 0
 142 568 161 574 174 574 c 1
 236 539 l 1
 306 574 l 1
 335 568 362 555 389 534 c 0
 415 513 428 489 428 461 c 0xf6
 428 442 423 426 415 415 c 0
 406 403 396 393 387 381 c 0
 378 370 374 354 374 336 c 2
 374 86 l 1
 436 86 l 2
 457 86 468 88 474 93 c 0
 478 100 480 113 480 133 c 2
 480 557 l 1
 576 557 l 1
 576 133 l 2
 576 86 567 51 552 30 c 0
 538 10 505 0 455 0 c 2
 212 0 l 1
 212 86 l 1
 278 86 l 1
 278 344 l 2xfa
 278 392 294 423 329 441 c 1
 341 450 348 455 348 464 c 0
 348 476 336 489 312 500 c 1
 236 464 l 1
 160 500 l 1
 141 496 128 489 117 477 c 0
 110 465 103 455 102 447 c 1
 103 450 109 452 115 454 c 0
 123 457 135 458 149 458 c 0
 171 458 190 454 206 444 c 0
 223 436 235 423 242 407 c 0
 251 393 257 376 257 355 c 0
 260 323 248 294 229 274 c 0
 210 252 184 242 149 242 c 0xf6
148 307 m 0
 162 307 173 313 178 320 c 0
 187 329 190 339 190 351 c 0
 190 362 187 374 178 381 c 0
 173 390 162 393 148 393 c 0
 135 393 125 389 116 380 c 0
 109 373 104 362 104 351 c 0
 104 339 109 329 116 320 c 0
 125 313 135 307 148 307 c 0
EndSplineSet
EndChar
StartChar: uni0E04
Encoding: 164 3588 133
Width: 598
Flags: W
HStem: 0 21G<129 226 426 521> 364 67<273 285.159> 500 76<262 296>
VStem: 39 83<349 373> 129 97<0 219> 315 66<308.776 323> 426 95<0 385>
Fore
273 210 m 0
 267 210 257 212 246 213 c 0
 232 216 226 218 226 219 c 2
 226 0 l 1
 129 0 l 1
 129 97 l 2
 129 122 126 142 117 164 c 0
 110 184 99 206 84 231 c 0
 68 255 59 278 51 300 c 0
 42 320 39 344 39 373 c 0
 41 416 52 452 77 483 c 0
 100 515 129 538 167 552 c 0
 204 567 244 576 286 576 c 0
 326 576 364 568 402 554 c 0
 436 539 465 516 489 487 c 0
 509 457 521 420 521 378 c 2
 521 0 l 1
 426 0 l 1
 426 374 l 2
 426 415 412 445 383 467 c 0
 355 489 320 500 280 500 c 0
 238 500 202 489 171 465 c 0
 138 441 122 409 122 368 c 0
 122 345 125 325 133 303 c 0
 139 286 142 277 144 277 c 1
 144 277 144 277 144 278 c 0
 144 307 152 341 171 376 c 0
 187 409 222 429 273 431 c 0
 304 431 331 420 352 400 c 0
 373 378 381 352 381 320 c 0
 381 290 373 265 352 244 c 0
 332 223 306 212 273 210 c 0
273 277 m 0
 287 277 297 281 304 290 c 0
 312 299 315 307 315 320 c 0
 315 332 312 344 304 352 c 0
 297 361 287 364 273 364 c 0
 260 364 249 358 241 351 c 0
 232 342 229 332 229 320 c 0
 229 310 232 299 241 290 c 0
 249 281 260 277 273 277 c 0
EndSplineSet
EndChar
StartChar: uni0E05
Encoding: 165 3589 134
Width: 598
Flags: W
HStem: 0 21G<129 226 426 521> 364 67<273 285.159>
VStem: 39 83<349 385> 129 97<0 219> 315 66<308.776 323> 426 95<0 385>
Fore
206 567 m 1
 291 531 l 1
 383 567 l 1
 415 558 442 542 464 521 c 0
 484 500 500 477 508 451 c 0
 516 425 521 400 521 378 c 2
 521 0 l 1
 426 0 l 1
 426 376 l 2
 426 403 423 425 418 441 c 0
 413 455 399 470 377 483 c 1
 291 452 l 1
 210 489 l 1
 181 477 161 463 144 441 c 0
 129 419 122 394 122 368 c 0
 122 345 125 325 133 303 c 0
 139 286 142 277 144 277 c 1
 144 277 144 277 144 278 c 0
 144 307 152 341 171 376 c 0
 187 409 222 429 273 431 c 0
 304 431 331 420 352 400 c 0
 373 378 381 352 381 320 c 0
 381 290 373 265 352 244 c 0
 332 223 306 212 273 210 c 0
 267 210 257 212 246 213 c 0
 232 216 226 218 226 219 c 2
 226 0 l 1
 129 0 l 1
 129 97 l 2
 129 122 126 142 117 164 c 0
 110 184 99 206 84 231 c 0
 68 255 59 278 51 300 c 0
 42 320 39 344 39 373 c 0
 41 468 97 532 206 567 c 1
273 277 m 0
 287 277 297 281 304 290 c 0
 312 299 315 307 315 320 c 0
 315 332 312 344 304 352 c 0
 297 361 287 364 273 364 c 0
 260 364 249 358 241 351 c 0
 232 342 229 332 229 320 c 0
 229 310 232 299 241 290 c 0
 249 281 260 277 273 277 c 0
EndSplineSet
EndChar
StartChar: uni0E06
Encoding: 166 3590 135
Width: 749
Flags: W
HStem: -12 74<260 277> 238 64<149 156> 389 63<151 156>
VStem: 154 75<101.403 118> 193 69<345 357> 283 95<86 178 256 345> 352 80<452 459> 577 94<0 557>
Fore
378 329 m 2xe5
 378 257 l 1
 403 254 428 249 455 238 c 0
 481 228 506 212 529 197 c 0
 552 181 568 167 577 155 c 1
 577 557 l 1
 671 557 l 1
 671 0 l 1
 577 0 l 1
 577 9 568 28 552 55 c 0
 536 84 513 112 483 136 c 0
 454 161 419 174 378 178 c 1
 378 86 l 2
 378 58 368 35 351 16 c 0
 332 -1 307 -12 277 -12 c 0
 239 -12 209 1 187 26 c 0
 165 51 154 80 154 115 c 0
 154 151 165 181 188 210 c 0
 212 238 242 254 283 257 c 1
 283 339 l 2xf5
 283 387 300 418 335 436 c 0
 345 441 352 450 352 457 c 0
 352 470 341 483 316 494 c 1
 241 458 l 1
 164 494 l 1
 146 492 133 483 122 470 c 0
 110 455 103 444 100 436 c 1
 103 439 110 442 119 445 c 0
 128 450 139 451 154 452 c 0xf3
 186 452 212 442 231 423 c 0
 251 403 262 378 262 349 c 0xe9
 264 318 252 291 231 270 c 0
 210 249 184 238 154 238 c 0
 112 239 80 252 59 277 c 0
 38 303 26 338 26 378 c 0
 26 399 28 413 29 425 c 0
 36 465 55 500 90 528 c 0
 123 554 152 567 178 567 c 1
 241 534 l 1
 312 567 l 1
 339 564 367 551 393 529 c 0
 419 508 432 483 432 455 c 0xf3
 432 442 431 431 426 420 c 0
 420 413 415 403 406 393 c 0
 396 381 390 374 386 365 c 0
 380 357 378 344 378 329 c 2xe5
239 77 m 0
 244 67 252 62 264 62 c 0
 277 62 283 71 283 86 c 2
 283 181 l 1
 268 180 255 173 244 160 c 0
 235 144 229 129 229 113 c 0
 229 102 232 88 239 77 c 0
151 302 m 0
 164 302 174 306 181 315 c 0
 190 323 193 332 193 345 c 0xe9
 193 357 190 367 184 376 c 0
 175 383 165 389 151 389 c 0
 138 389 128 383 119 376 c 0
 112 367 109 357 109 345 c 0
 109 335 112 323 119 315 c 0
 128 306 138 302 151 302 c 0
EndSplineSet
EndChar
StartChar: uni0E07
Encoding: 167 3591 136
Width: 477
Flags: W
HStem: -16 81<292 300> 348 65<277.29 296> 500 67<277.936 296>
VStem: 175 69<457 465> 304 96<80 463> 329 71<447 465>
Fore
287 567 m 0xf8
 319 567 348 557 368 538 c 0
 390 516 400 492 400 463 c 2
 400 80 l 2
 400 49 390 26 373 10 c 0
 351 -9 328 -16 300 -16 c 0
 255 -16 222 1 200 38 c 2
 16 349 l 1
 91 399 l 1
 104 377 123 345 148 304 c 0
 173 264 199 218 229 167 c 0
 260 116 274 90 274 88 c 0
 281 74 290 65 294 65 c 0
 300 65 304 75 304 97 c 2
 304 349 l 1
 304 349 303 349 300 349 c 0
 297 348 291 348 287 348 c 0
 252 348 226 358 204 380 c 0
 186 402 175 428 175 457 c 0
 175 487 186 513 204 534 c 0
 225 555 252 567 287 567 c 0xf8
287 413 m 0
 302 413 312 418 318 426 c 0
 326 434 329 444 329 457 c 0xf4
 329 468 326 480 318 489 c 0
 312 496 302 500 287 500 c 0
 274 500 264 494 255 487 c 0
 248 478 244 468 244 457 c 0
 244 445 248 434 255 426 c 0
 264 418 274 413 287 413 c 0
EndSplineSet
EndChar
StartChar: uni0E08
Encoding: 168 3592 137
Width: 564
Flags: W
HStem: -7 69<379 385> 167 68<193 207> 319 68<193 207> 490 77<249 283>
VStem: 84 67<266.043 282> 236 134<84 277> 392 95<88 399>
Fore
487 112 m 2
 487 64 477 30 457 16 c 0
 439 1 415 -7 383 -7 c 0
 357 -7 336 0 319 13 c 0
 302 25 290 45 281 72 c 0
 277 90 270 115 264 142 c 0
 255 171 252 186 251 186 c 1
 249 181 242 178 235 174 c 0
 225 168 212 167 193 167 c 0
 160 168 130 178 113 200 c 0
 93 222 84 248 84 277 c 0
 84 304 93 331 113 354 c 0
 130 376 160 387 193 387 c 0
 251 387 291 358 307 304 c 0
 351 160 370 86 370 84 c 0
 373 68 377 62 381 62 c 0
 387 62 392 72 392 91 c 2
 392 380 l 2
 392 419 380 447 355 464 c 0
 331 481 300 490 265 490 c 0
 197 490 139 458 91 399 c 1
 30 442 l 1
 81 526 161 567 268 567 c 0
 332 567 386 551 426 519 c 0
 467 489 487 442 487 383 c 2
 487 112 l 2
193 235 m 0
 209 235 218 238 226 246 c 0
 232 254 236 265 236 277 c 0
 236 289 232 300 226 307 c 0
 218 316 209 319 193 319 c 0
 178 319 168 315 162 306 c 0
 154 299 151 289 151 277 c 0
 151 265 154 255 162 248 c 0
 171 239 180 235 193 235 c 0
EndSplineSet
EndChar
StartChar: uni0E09
Encoding: 169 3593 138
Width: 651
Flags: W
HStem: -12 71<519 538> 157 68<135 140> 312 66<134 146> 493 77<281 315>
VStem: 26 70<259 280> 151 95<0 280> 180 66<259 280> 429 96<78 184 253 400> 566 65<108 117>
Fore
136 378 m 0xfd80
 167 378 191 368 213 351 c 0
 235 332 246 307 246 280 c 2
 246 148 l 1
 265 175 291 197 326 215 c 0
 358 232 393 246 429 254 c 1
 429 381 l 2
 429 418 418 447 396 465 c 0
 374 484 341 493 297 493 c 0
 268 493 239 483 212 465 c 0
 184 447 160 426 138 400 c 1
 74 444 l 1
 99 481 130 512 171 536 c 0
 210 558 254 570 304 570 c 4
 373 570 426 554 465 521 c 0
 505 487 525 441 525 383 c 2
 525 254 l 1
 558 248 584 231 603 204 c 0
 621 178 632 148 631 110 c 0
 631 74 619 45 597 23 c 0
 577 0 551 -12 519 -12 c 0
 494 -12 476 -4 457 10 c 0
 439 25 429 48 429 78 c 2
 429 184 l 1
 378 171 336 146 302 112 c 0
 267 77 248 39 242 0 c 1
 151 0 l 1
 151 161 l 1
 149 161 148 161 144 160 c 0
 142 157 139 157 136 157 c 0
 102 160 75 171 55 191 c 0
 36 213 26 238 26 267 c 0
 26 297 38 323 55 344 c 0
 75 367 102 378 136 378 c 0xfd80
566 117 m 0
 566 136 563 151 554 162 c 0
 545 174 536 180 525 184 c 1
 525 80 l 1
 526 65 529 59 538 59 c 0
 542 61 547 64 552 68 c 0
 555 75 558 84 563 93 c 0
 564 102 566 110 566 117 c 0
138 225 m 0
 152 225 162 229 171 238 c 0
 177 246 180 255 180 268 c 0xfb80
 180 280 177 291 171 300 c 0
 162 307 152 312 138 312 c 0
 125 312 115 306 106 299 c 0
 99 290 96 280 96 268 c 0
 96 257 99 248 106 239 c 0
 115 229 125 225 138 225 c 0
EndSplineSet
EndChar
StartChar: uni0E0A
Encoding: 170 3594 139
Width: 601
Flags: W
HStem: 0 86<164 405> 315 68<147 153> 407 70<368 378>
VStem: 36 73<415 433> 193 69<415 433> 232 96<86 257> 429 96<111 341>
Fore
300 419 m 0xf6
 302 445 293 465 280 478 c 0
 267 493 252 500 238 502 c 1
 242 496 248 487 254 476 c 0
 260 461 262 445 262 429 c 0xfa
 262 396 252 368 232 348 c 0
 213 326 186 315 149 315 c 0
 115 315 88 326 67 348 c 0
 46 368 36 396 36 429 c 0
 36 455 45 480 62 502 c 0
 78 522 100 539 125 551 c 0
 149 563 174 568 199 568 c 0
 239 568 277 560 307 542 c 0
 341 525 361 502 368 477 c 1
 381 477 403 484 432 502 c 0
 463 516 493 551 525 605 c 1
 593 560 l 1
 577 522 555 494 531 477 c 0
 506 458 487 447 474 442 c 1
 481 439 493 429 506 413 c 0
 518 396 525 368 525 329 c 2
 525 106 l 2
 525 75 521 52 515 38 c 0
 508 23 496 13 480 9 c 0
 464 3 439 0 405 0 c 2
 164 0 l 1
 164 86 l 1
 232 86 l 1
 232 255 l 2
 232 274 236 289 241 300 c 0
 246 312 254 325 265 339 c 0
 276 352 283 364 290 374 c 0
 294 383 300 399 300 419 c 0xf6
151 383 m 0
 164 383 174 389 181 396 c 0
 190 405 193 415 193 426 c 0
 193 438 190 450 181 457 c 0
 174 465 164 468 151 468 c 0
 138 468 128 464 119 455 c 0
 112 447 109 438 109 426 c 0
 109 415 112 405 119 396 c 0
 128 389 138 383 151 383 c 0
378 407 m 1
 377 387 376 370 370 361 c 0
 365 351 361 341 352 331 c 0
 344 319 339 307 335 297 c 0
 329 286 328 267 328 246 c 2
 328 86 l 1xf6
 383 86 l 2
 405 86 418 88 423 93 c 0
 428 100 429 113 429 133 c 2
 429 320 l 2
 429 355 423 378 409 390 c 0
 399 402 387 407 378 407 c 1
EndSplineSet
EndChar
StartChar: uni0E0B
Encoding: 171 3595 140
Width: 636
Flags: W
HStem: 0 86<199 441> 242 65<128.936 143> 393 65<127.535 151>
VStem: 180 69<351 358> 267 95<86 266> 465 95<112.623 342>
Fore
299 574 m 1
 319 571 344 560 368 541 c 0
 393 521 407 500 412 477 c 1
 423 478 444 487 471 505 c 0
 500 521 528 554 558 605 c 1
 629 560 l 1
 613 522 593 494 568 477 c 0
 544 458 525 447 512 442 c 1
 519 439 529 429 542 413 c 0
 554 394 560 367 560 329 c 2
 560 106 l 2
 560 62 552 33 538 20 c 0
 521 7 489 0 441 0 c 2
 199 0 l 1
 199 86 l 1
 267 86 l 1
 267 264 l 2
 267 281 270 297 276 307 c 0
 280 316 289 328 302 342 c 0
 313 355 320 367 328 377 c 0
 335 389 338 402 339 419 c 0
 339 441 338 457 332 468 c 0
 328 480 318 490 302 500 c 1
 228 464 l 1
 151 500 l 1
 133 496 117 489 110 477 c 0
 102 465 96 455 93 447 c 1
 96 450 100 452 106 454 c 0
 113 457 125 458 141 458 c 0
 162 458 180 454 199 444 c 0
 213 436 226 423 235 407 c 0
 242 393 249 376 249 355 c 0
 251 325 239 297 219 276 c 0
 200 254 174 242 141 242 c 0
 100 242 67 255 45 283 c 0
 23 312 12 345 12 387 c 0
 12 396 13 412 14 431 c 0
 20 458 30 484 49 506 c 0
 67 528 88 545 110 557 c 0
 133 568 151 574 164 574 c 1
 228 539 l 1
 239 544 254 552 273 560 c 0
 290 568 299 574 299 574 c 1
413 407 m 1
 412 390 407 376 403 365 c 0
 399 354 393 344 386 335 c 0
 378 323 374 312 368 299 c 0
 364 286 362 267 362 246 c 2
 362 86 l 1
 418 86 l 2
 439 86 452 88 457 93 c 0
 463 100 465 113 465 133 c 2
 465 320 l 2
 465 355 458 378 444 390 c 0
 432 402 420 407 413 407 c 1
138 307 m 0
 152 307 162 313 171 320 c 0
 177 329 180 339 180 351 c 0
 180 362 177 374 171 381 c 0
 162 390 152 393 138 393 c 0
 125 393 115 389 106 380 c 0
 99 373 96 362 96 351 c 0
 96 339 99 329 106 320 c 0
 115 313 125 307 138 307 c 0
EndSplineSet
EndChar
StartChar: uni0E0C
Encoding: 172 3596 141
Width: 783
Flags: W
HStem: -10 58<395 406> 139 61<188 207> 503 67<278 303>
VStem: 91 61<88 103> 91 97<97 279> 242 60<96 103> 320 54<85 103> 396 96<208 421> 412 80<54 128> 609 96<130 557>
Fore
492 65 m 2xe6c0
 492 45 484 26 470 12 c 0
 455 -3 434 -10 406 -10 c 0
 378 -10 357 0 342 20 c 0
 328 39 320 65 320 97 c 0
 320 125 328 149 339 168 c 0
 351 187 368 200 396 209 c 1
 396 419 l 2
 396 445 387 465 365 480 c 0
 344 494 315 502 280 503 c 0
 265 503 244 500 216 492 c 0
 188 483 167 471 155 457 c 1
 165 455 181 452 204 444 c 0
 226 438 248 428 267 413 c 1
 267 367 l 1
 249 367 232 362 215 351 c 0
 197 339 188 315 188 277 c 2
 188 199 l 1xef40
 190 200 190 200 191 200 c 0
 197 200 l 0
 218 200 238 194 254 186 c 0
 268 175 281 162 290 146 c 0
 299 129 302 113 302 96 c 0
 302 77 299 61 290 45 c 0
 281 28 268 14 254 4 c 0
 238 -4 218 -10 197 -10 c 0
 164 -10 138 0 119 22 c 0
 102 41 91 65 91 97 c 2xf640
 91 270 l 2
 91 302 96 326 103 344 c 0
 112 362 125 378 144 392 c 1
 136 394 123 400 104 405 c 0
 87 409 67 415 42 416 c 1
 42 447 l 1
 55 468 84 493 125 525 c 0
 167 555 226 570 303 570 c 0
 339 570 370 566 394 554 c 0
 419 542 439 529 452 513 c 0
 467 494 477 477 481 458 c 0
 489 439 492 420 492 405 c 2xef40
 492 203 l 1
 512 199 529 190 547 178 c 0
 566 167 580 160 590 151 c 0
 600 142 606 136 609 130 c 1
 609 557 l 1
 705 557 l 1
 705 0 l 1
 609 0 l 1
 602 17 589 42 568 72 c 0
 547 102 522 122 492 129 c 1
 492 65 l 2xe6c0
199 51 m 0
 206 51 215 52 223 58 c 0
 229 62 235 67 238 74 c 0
 241 80 242 87 242 96 c 0
 242 109 239 119 231 128 c 0
 223 136 213 139 199 139 c 0
 184 139 174 135 165 126 c 0
 157 117 152 106 152 96 c 0xf640
 152 84 157 74 165 65 c 0
 174 55 184 51 199 51 c 0
412 55 m 1xe6c0
 412 146 l 1
 396 144 387 138 381 129 c 0
 377 122 374 109 374 90 c 0
 374 78 377 68 383 61 c 0
 389 52 394 48 402 48 c 0
 406 48 409 51 412 55 c 1xe6c0
EndSplineSet
EndChar
StartChar: uni0E0D
Encoding: 173 3597 142
Width: 783
Flags: W
HStem: -270 82<493 517> -86 61<428 430> -10 61<187 207> 0 86<342 587> 139 61<188 207> 503 67<278 303>
VStem: 91 61<86 99> 91 97<97 291> 242 60<96 108> 320 63<-129 -118.779> 396 96<86 421> 474 57<-132 -125> 609 96<106 557>
Fore
705 557 m 1xdde8
 705 106 l 2
 705 75 700 52 692 38 c 0
 683 23 668 13 651 9 c 0
 632 3 605 0 570 0 c 2
 342 0 l 1
 342 86 l 1
 396 86 l 1
 396 419 l 2
 396 445 387 465 365 480 c 0
 344 494 315 502 280 503 c 0
 265 503 244 500 216 492 c 0
 188 483 167 471 155 457 c 1
 165 455 181 452 204 444 c 0
 226 438 248 428 267 413 c 1
 267 367 l 1
 249 367 232 362 215 351 c 0
 197 339 188 315 188 277 c 2
 188 199 l 1xdde8
 190 200 190 200 191 200 c 0
 197 200 l 0
 218 200 238 194 254 186 c 0
 268 175 281 162 290 146 c 0
 299 129 302 113 302 96 c 0
 302 77 299 61 290 45 c 0
 281 28 268 14 254 4 c 0
 238 -4 218 -10 197 -10 c 0
 164 -10 138 0 119 22 c 0
 102 41 91 65 91 97 c 2xeec8
 91 270 l 2
 91 302 96 326 103 344 c 0
 112 362 125 378 144 392 c 1
 136 394 123 400 104 405 c 0
 87 409 65 415 42 416 c 1
 42 447 l 1
 55 468 84 493 125 525 c 0
 167 555 226 570 303 570 c 0
 339 570 370 566 394 554 c 0
 419 542 439 529 452 513 c 0
 467 494 477 477 481 458 c 0
 489 439 492 420 492 405 c 2
 492 86 l 1
 570 86 l 2
 589 86 600 88 605 93 c 0
 608 99 609 112 609 133 c 2
 609 557 l 1
 705 557 l 1xdde8
515 -188 m 1
 536 -188 555 -178 577 -160 c 0
 597 -138 608 -96 608 -30 c 1
 702 -30 l 1
 702 -91 692 -139 670 -175 c 0
 648 -212 622 -236 592 -249 c 0
 560 -264 528 -270 493 -270 c 0
 464 -270 439 -267 419 -260 c 0
 381 -246 357 -229 342 -209 c 0
 328 -187 319 -161 320 -129 c 0
 320 -100 332 -75 351 -55 c 0
 368 -35 394 -25 428 -25 c 0
 463 -25 489 -35 506 -55 c 0
 522 -77 531 -103 531 -130 c 0xccd8
 531 -155 526 -175 515 -188 c 1
428 -174 m 0
 442 -174 454 -168 463 -161 c 0
 470 -152 474 -141 474 -129 c 0xccd8
 474 -117 470 -106 463 -99 c 0
 454 -90 442 -86 428 -86 c 0
 415 -86 403 -90 394 -99 c 0
 387 -106 383 -117 383 -129 c 0
 383 -141 389 -152 396 -161 c 0xcce8
 405 -168 415 -174 428 -174 c 0
199 51 m 0xeec8
 206 51 215 52 223 58 c 0
 229 62 235 67 238 74 c 0
 241 80 242 87 242 96 c 0
 242 109 239 119 231 128 c 0
 223 136 213 139 199 139 c 0
 184 139 174 135 165 126 c 0
 157 117 152 106 152 96 c 0
 152 84 157 74 165 65 c 0
 174 55 184 51 199 51 c 0xeec8
EndSplineSet
Substitution: 0 65534 'ndsc' uni0E0D.descless
Substitution: 0 65534 'nds0' uni0E0D.descless
EndChar
StartChar: uni0E0E
Encoding: 174 3598 143
Width: 658
Flags: W
HStem: -267 80<198 228> -104 79<226 244> 146 60<135 146> 499 71<333 370>
VStem: 25 62<95 103> 90 77<-158 -146> 181 61<95 102> 484 96<-138 394>
AnchorPoint: "BelowBase" 569.85 -314.65 basechar 0
Fore
394 -77 m 1
 416 -88 436 -99 451 -110 c 0
 467 -123 478 -133 484 -138 c 1
 484 378 l 2
 484 418 471 447 445 468 c 0
 420 489 389 499 349 499 c 0
 328 499 303 494 278 487 c 0
 254 480 232 470 212 455 c 1
 222 454 238 451 260 444 c 0
 280 439 300 428 320 413 c 1
 320 367 l 1
 304 367 289 362 270 351 c 0
 252 339 242 315 242 277 c 2
 242 100 l 2
 242 67 232 41 215 22 c 0
 197 0 171 -10 135 -12 c 1
 100 -10 72 0 54 22 c 0
 35 42 25 67 25 97 c 0
 25 128 35 154 54 175 c 0
 72 197 100 209 135 209 c 0
 138 209 141 209 142 209 c 0
 144 206 144 206 146 206 c 1
 146 270 l 2
 146 302 151 326 160 344 c 0
 167 362 180 378 199 392 c 1
 190 394 177 400 160 405 c 0
 141 409 119 415 96 416 c 1
 96 447 l 1
 100 452 106 461 116 471 c 0
 126 483 142 496 164 513 c 0
 186 528 213 542 244 554 c 0
 277 566 315 570 357 570 c 0
 400 570 438 564 471 550 c 0
 506 536 532 515 551 487 c 0
 570 458 580 425 580 387 c 2
 580 -267 l 5
 484 -267 l 1
 464 -238 442 -213 419 -194 c 0
 396 -177 380 -164 368 -157 c 1
 357 -187 338 -213 310 -235 c 0
 281 -255 248 -268 206 -267 c 0
 175 -267 148 -254 125 -231 c 0
 102 -210 90 -180 90 -146 c 0
 91 -109 104 -80 129 -59 c 0
 154 -38 187 -26 226 -25 c 0
 254 -25 283 -30 318 -42 c 1
 319 -38 320 -28 325 -16 c 0
 328 -4 331 10 335 30 c 1
 415 13 l 1
 413 -1 409 -20 406 -38 c 0
 402 -55 399 -68 394 -77 c 1
135 51 m 0
 149 51 161 55 168 65 c 0
 177 75 181 87 181 99 c 0
 181 112 178 123 171 133 c 0
 162 141 149 146 135 146 c 0
 119 146 109 141 100 133 c 0
 91 123 87 112 87 99 c 0
 87 87 91 75 100 65 c 0
 109 55 119 51 135 51 c 0
242 -180 m 0
 261 -173 273 -162 280 -149 c 0
 289 -138 293 -128 294 -119 c 1
 274 -110 251 -104 228 -104 c 0
 209 -104 193 -110 184 -117 c 0
 173 -126 167 -138 167 -151 c 0
 167 -154 168 -160 171 -165 c 0
 175 -180 188 -187 213 -187 c 0
 226 -187 236 -186 242 -180 c 0
EndSplineSet
EndChar
StartChar: uni0E0F
Encoding: 175 3599 144
Width: 658
Flags: W
HStem: -268 69<176 194> -126 68<178 193> 146 60<126 146> 499 71<339 366>
VStem: 25 56<95 102> 81 70<-168 -151> 177 65<95 102> 484 96<-141 394>
AnchorPoint: "BelowBase" 569.85 -314.65 basechar 0
Fore
428 -84 m 1
 484 -141 l 1
 484 378 l 2
 484 418 471 447 445 468 c 0
 420 489 389 499 349 499 c 0
 328 499 303 494 278 487 c 0
 254 480 232 470 212 455 c 1
 222 454 238 451 260 444 c 0
 280 439 300 428 320 413 c 1
 320 367 l 1
 304 367 289 362 270 351 c 0
 252 339 242 315 242 277 c 2
 242 100 l 2
 242 67 232 41 215 22 c 0
 197 0 171 -10 135 -12 c 1
 100 -10 72 0 54 22 c 0
 35 42 25 67 25 97 c 0
 25 128 35 154 54 175 c 0
 72 197 100 209 135 209 c 0
 138 209 141 209 142 209 c 0
 144 206 144 206 146 206 c 1
 146 270 l 2
 146 302 151 326 160 344 c 0
 167 362 180 378 199 392 c 1
 190 394 177 400 160 405 c 0
 141 409 119 415 96 416 c 1
 96 447 l 1
 100 452 106 461 116 471 c 0
 126 483 142 496 164 513 c 0
 186 528 213 542 244 554 c 0
 277 566 315 570 357 570 c 0
 400 570 438 564 471 550 c 0
 506 536 532 515 551 487 c 0
 570 458 580 425 580 387 c 2
 580 -267 l 1
 490 -267 l 1
 423 -187 l 1
 348 -267 l 1
 339 -251 331 -236 319 -222 c 0
 307 -206 300 -199 294 -193 c 1
 290 -204 280 -222 262 -239 c 0
 244 -260 218 -268 181 -268 c 0
 154 -268 129 -260 112 -238 c 0
 91 -216 81 -187 81 -151 c 1
 86 -122 97 -99 117 -81 c 0
 139 -65 164 -58 191 -58 c 0
 219 -58 246 -65 268 -80 c 1
 273 -72 277 -58 281 -36 c 0
 287 -16 291 4 293 28 c 1
 364 16 l 1
 352 -54 339 -102 328 -126 c 1
 331 -128 336 -133 341 -138 c 0
 345 -142 351 -149 355 -155 c 1
 367 -144 383 -129 402 -112 c 0
 419 -93 428 -86 428 -84 c 1
135 51 m 0
 149 52 161 58 167 67 c 0
 174 75 177 86 177 99 c 0
 177 112 174 123 165 133 c 0
 157 141 144 146 126 146 c 0
 112 144 102 139 93 130 c 0
 86 122 81 112 81 100 c 0
 81 86 87 74 97 65 c 1
 104 55 117 51 135 51 c 0
206 -193 m 0
 216 -188 225 -178 231 -167 c 0
 236 -155 239 -151 239 -149 c 1
 239 -149 l 1
 222 -135 204 -126 188 -126 c 0
 171 -126 157 -135 151 -152 c 1
 151 -184 162 -199 186 -199 c 0
 193 -199 200 -197 206 -193 c 0
EndSplineSet
EndChar
StartChar: uni0E10
Encoding: 176 3600 145
Width: 497
Flags: W
HStem: -313 58<60 71> -210 56<317 338> -194 55<62 74> -80 57<324 338> 0 21G<310 412> 135 67<154 171> 287 68<164 171> 457 75<406 419> 500 70<222 241>
VStem: -22 60<-235 -219> 54 69<233.399 247> 232 59<-122 -110> 316 96<193 296> 338 81<-228 -210> 364 55<-122 -110>
Fore
310 0 m 1x9ef8
 304 28 293 62 276 106 c 0
 260 149 249 171 248 171 c 0
 242 165 235 157 222 148 c 0
 209 139 188 135 164 135 c 0
 129 135 102 146 84 167 c 0
 64 188 54 213 54 244 c 0
 54 274 64 300 84 320 c 0
 103 342 129 354 164 355 c 0
 194 355 222 349 239 338 c 0
 257 325 270 303 281 274 c 0
 287 261 294 244 303 225 c 0
 312 204 316 194 316 193 c 2
 316 270 l 2
 316 300 315 320 310 335 c 0
 304 348 299 357 289 362 c 0
 278 367 261 373 232 380 c 0
 194 390 157 400 117 406 c 0
 78 413 49 418 30 419 c 1
 30 455 l 1
 46 477 62 496 81 515 c 0
 102 532 123 547 146 555 c 0
 167 566 193 570 222 570 c 4x9ef8
 252 570 287 564 326 552 c 0
 365 539 392 532 406 532 c 0
 425 532 445 538 468 547 c 0
 470 547 471 538 477 519 c 0
 480 502 483 484 484 471 c 1
 454 463 428 457 406 457 c 0x9f78
 392 457 378 458 367 461 c 0
 355 464 338 470 315 478 c 0
 290 487 273 492 261 494 c 0
 248 499 235 500 222 500 c 0
 206 500 193 496 178 490 c 0
 164 483 155 477 154 471 c 1
 167 470 188 467 218 463 c 0
 248 457 270 451 286 447 c 0
 342 431 378 413 392 389 c 0
 405 364 412 325 412 274 c 2
 412 0 l 1
 310 0 l 1x9ef8
312 -246 m 1
 338 -228 l 1
 338 -209 l 1xde74
 336 -210 331 -210 326 -210 c 0
 297 -210 274 -200 257 -181 c 0
 241 -164 232 -141 232 -116 c 0
 232 -91 241 -68 260 -51 c 0
 276 -33 299 -23 326 -23 c 0
 354 -23 376 -30 393 -49 c 0
 412 -65 419 -87 419 -112 c 2xde72
 419 -210 l 2xde74
 419 -226 415 -239 405 -249 c 0
 394 -261 383 -270 368 -278 c 0
 354 -287 336 -299 315 -310 c 1
 251 -274 l 1
 194 -307 l 1
 151 -264 l 1
 136 -297 106 -315 62 -313 c 0
 38 -313 17 -302 1 -286 c 0
 -13 -267 -22 -246 -22 -219 c 0
 -22 -197 -12 -177 9 -162 c 0
 26 -148 48 -139 72 -139 c 0xbe74
 96 -139 116 -148 135 -162 c 1
 136 -154 139 -141 142 -119 c 0
 146 -99 148 -74 148 -46 c 1
 210 -46 l 1
 210 -77 209 -106 203 -135 c 0
 199 -162 190 -188 180 -210 c 1xde74
 206 -236 l 2
 209 -236 215 -231 229 -223 c 0
 244 -215 251 -210 251 -209 c 1
 312 -246 l 1
71 -194 m 0xbe70
 59 -194 51 -199 46 -204 c 0
 41 -212 38 -219 38 -228 c 0
 38 -246 49 -255 71 -255 c 0
 81 -255 91 -251 100 -241 c 0
 106 -232 112 -225 113 -218 c 1
 110 -213 104 -209 99 -203 c 0
 90 -199 81 -194 71 -194 c 0xbe70
328 -154 m 0xde72
 339 -154 348 -151 354 -142 c 0
 361 -136 364 -128 364 -117 c 0
 364 -109 361 -100 354 -91 c 0
 348 -84 339 -80 328 -80 c 0
 316 -80 306 -84 302 -91 c 0
 294 -100 291 -109 291 -117 c 0
 291 -128 294 -136 302 -142 c 0
 306 -151 316 -154 328 -154 c 0xde72
165 202 m 0
 180 202 190 206 199 215 c 0
 204 223 209 232 209 244 c 0
 209 255 204 265 199 274 c 0
 190 281 180 287 165 287 c 0
 151 287 141 281 135 274 c 0
 126 265 123 255 123 244 c 0
 123 232 126 223 135 215 c 0
 142 206 152 202 165 202 c 0
EndSplineSet
Substitution: 0 65534 'ndsc' uni0E10.descless
Substitution: 0 65534 'nds0' uni0E10.descless
EndChar
StartChar: uni0E11
Encoding: 177 3601 146
Width: 767
Flags: W
HStem: 0 21G<267 357 594 690> 242 65<126.936 141> 393 65<125.535 148> 484 76<569 576>
VStem: 10 83<351 386> 178 68<339 355> 267 95<0 357> 336 77<458 471> 594 96<0 454>
Fore
362 339 m 2xfe80
 362 229 l 1
 458 465 l 2
 474 500 487 525 500 539 c 0
 513 554 538 560 574 560 c 0
 625 560 657 550 670 526 c 0
 683 503 690 470 690 428 c 2
 690 0 l 1
 594 0 l 1
 594 420 l 2
 594 447 593 464 592 471 c 0
 590 480 583 483 576 484 c 0
 567 484 560 481 555 477 c 0
 552 471 551 467 550 463 c 2
 357 0 l 1
 267 0 l 1
 267 344 l 2xfe80
 267 392 283 423 318 441 c 1
 329 450 336 455 336 464 c 0
 336 476 325 487 300 500 c 1
 225 464 l 1
 148 500 l 1
 129 496 116 489 106 477 c 0
 99 465 91 455 90 447 c 1
 91 450 97 452 103 454 c 0
 112 457 123 458 138 458 c 0
 160 458 178 454 194 444 c 0
 212 436 225 423 232 407 c 0
 241 392 244 374 246 355 c 0
 246 325 236 297 216 276 c 0
 197 254 171 242 138 242 c 0
 97 242 64 255 42 281 c 0
 22 307 10 342 10 386 c 0
 10 406 12 420 13 431 c 0
 17 458 29 484 48 508 c 0
 65 529 86 545 109 557 c 0
 129 568 148 574 162 574 c 1
 225 539 l 1
 294 574 l 1
 323 568 351 555 376 534 c 0
 400 513 413 489 413 461 c 0xfd80
 413 447 412 438 407 429 c 0
 403 423 396 415 389 405 c 0
 380 394 374 386 368 377 c 0
 364 368 362 355 362 339 c 2xfe80
136 307 m 0
 151 307 161 313 168 320 c 0
 175 329 178 339 178 351 c 0
 178 362 175 374 168 381 c 0
 161 390 151 393 136 393 c 0
 123 393 113 389 104 380 c 0
 97 373 93 362 93 351 c 0
 93 339 97 329 104 320 c 0
 113 313 123 307 136 307 c 0
EndSplineSet
EndChar
StartChar: uni0E12
Encoding: 178 3602 147
Width: 810
Flags: W
HStem: -10 58<423 434> 364 67<277 290>
VStem: 33 82<349 365> 165 70<318 327> 319 68<320 326> 348 54<90 103> 425 94<208 404> 438 81<54 129> 635 96<130 557>
Fore
188 116 m 1xf680
 200 130 210 148 222 165 c 0
 231 180 242 197 254 213 c 1
 229 215 210 226 191 248 c 0
 174 268 165 294 165 323 c 0
 165 354 175 378 197 400 c 0
 218 420 244 431 277 431 c 0
 312 431 338 420 355 402 c 0
 374 380 387 354 387 320 c 0
 389 286 377 252 357 225 c 2
 206 0 l 1
 123 0 l 1
 123 58 117 102 110 129 c 0
 109 130 100 149 86 180 c 0
 68 212 55 242 46 273 c 0
 38 300 33 331 33 365 c 0
 35 412 54 454 90 492 c 0
 125 529 162 555 203 567 c 1
 291 529 l 1
 381 568 l 1
 438 541 474 515 492 489 c 0
 509 464 519 426 519 378 c 2xfa80
 519 203 l 1
 547 197 570 186 592 168 c 0
 613 152 628 139 635 130 c 1
 635 557 l 1
 731 557 l 1
 731 0 l 1
 634 0 l 1
 628 17 615 42 594 72 c 0
 576 102 551 122 519 129 c 1
 519 65 l 2xf180
 519 45 512 26 496 12 c 0
 481 -3 463 -10 434 -10 c 0
 406 -10 386 0 370 20 c 0
 355 39 345 65 348 97 c 0
 348 125 355 149 367 168 c 0
 378 187 396 200 425 209 c 1
 425 392 l 2
 425 423 419 445 412 458 c 0
 403 471 392 483 377 492 c 1
 291 458 l 1
 203 492 l 1
 144 461 115 416 115 362 c 0
 115 323 129 273 161 210 c 0
 173 187 178 167 184 149 c 0
 187 133 188 122 188 116 c 1xf680
438 55 m 1xf580
 438 146 l 1
 413 142 402 125 402 90 c 0
 402 78 405 68 409 61 c 0
 416 52 423 48 428 48 c 0
 432 48 436 51 438 55 c 1xf580
277 277 m 0
 291 277 302 281 307 290 c 0
 316 299 319 307 319 320 c 0xf880
 319 332 316 344 307 352 c 0
 302 361 291 364 277 364 c 0
 264 364 254 358 246 351 c 0
 238 342 235 332 235 320 c 0
 235 310 238 299 246 290 c 0
 254 281 264 277 277 277 c 0
EndSplineSet
EndChar
StartChar: uni0E13
Encoding: 179 3603 148
Width: 809
Flags: W
HStem: -12 71<700 716> -10 61<187 207> 139 61<188 207> 503 67<278 303>
VStem: 91 61<86.8867 101> 91 97<97 293> 242 60<96 100> 396 96<0 421> 609 96<72 184 253 557> 745 66<108 130>
Fore
396 0 m 1xb7c0
 396 419 l 2
 396 445 387 465 365 480 c 0
 344 494 315 502 280 503 c 0
 265 503 244 500 216 492 c 0
 188 483 167 471 155 457 c 1
 165 455 181 452 204 444 c 0
 226 438 248 428 267 413 c 1
 267 367 l 1
 249 367 232 362 215 351 c 0
 197 339 188 315 188 277 c 2
 188 199 l 1xb7c0
 190 200 190 200 191 200 c 0
 197 200 l 0
 218 200 238 194 254 186 c 0
 268 175 281 162 290 146 c 0
 299 129 302 113 302 96 c 0
 302 77 299 61 290 45 c 0
 281 28 268 14 254 4 c 0
 238 -4 218 -10 197 -10 c 0
 164 -10 138 0 119 22 c 0
 102 41 91 65 91 97 c 2x7bc0
 91 270 l 2
 91 302 96 326 103 344 c 0
 112 362 125 378 144 392 c 1
 136 394 123 400 104 405 c 0
 87 409 67 415 42 416 c 1
 42 447 l 1
 55 468 84 493 125 525 c 0
 167 555 226 570 303 570 c 0
 339 570 370 566 394 554 c 0
 419 542 439 529 452 513 c 0
 467 494 477 477 481 458 c 0
 489 439 492 420 492 405 c 2
 492 174 l 1
 506 191 525 209 550 225 c 0
 574 241 593 251 609 254 c 1
 609 557 l 1
 705 557 l 1
 705 254 l 1
 740 248 766 231 784 204 c 0
 803 178 811 148 811 110 c 0
 811 74 799 45 779 23 c 0
 757 0 731 -12 700 -12 c 0
 676 -12 654 -4 635 10 c 0
 618 25 609 48 609 78 c 2
 609 184 l 1
 579 171 551 146 529 112 c 0
 508 77 493 41 489 0 c 1
 396 0 l 1xb7c0
199 51 m 0x7bc0
 206 51 215 52 223 58 c 0
 229 62 235 67 238 74 c 0
 241 80 242 87 242 96 c 0
 242 109 239 119 231 128 c 0
 223 136 213 139 199 139 c 0
 184 139 174 135 165 126 c 0
 157 117 152 106 152 96 c 0
 152 84 157 74 165 65 c 0
 174 55 184 51 199 51 c 0x7bc0
745 117 m 0
 745 135 741 149 732 161 c 0
 724 173 715 180 705 184 c 1
 705 80 l 2
 705 65 708 59 716 59 c 0xb3c0
 724 61 732 67 737 78 c 0
 742 90 745 103 745 117 c 0
EndSplineSet
EndChar
StartChar: uni0E14
Encoding: 180 3604 149
Width: 597
Flags: W
HStem: 0 21G<123 206 425 519> 362 67<277 285> 489 81<274 292>
VStem: 35 81<347 365> 165 70<308.463 322> 319 68<319 323> 425 94<0 399>
Fore
280 570 m 4
 361 568 420 551 461 513 c 0
 500 476 519 431 519 378 c 2
 519 0 l 1
 425 0 l 1
 425 387 l 2
 425 420 412 445 383 464 c 0
 355 480 323 489 283 489 c 0
 239 489 200 476 167 452 c 0
 133 428 116 396 116 354 c 0
 116 320 130 274 161 210 c 0
 173 187 178 167 184 149 c 0
 187 133 188 122 188 116 c 1
 200 130 210 148 222 164 c 0
 232 178 242 194 254 212 c 1
 229 213 210 225 191 246 c 0
 174 267 165 293 165 320 c 0
 165 352 175 377 197 399 c 0
 218 419 244 429 277 429 c 0
 312 429 338 419 355 400 c 0
 374 378 387 352 387 319 c 0
 389 281 377 251 357 223 c 2
 206 0 l 1
 123 0 l 1
 123 58 117 102 110 129 c 0
 109 135 100 151 86 180 c 0
 71 212 59 241 49 273 c 0
 41 302 35 332 35 365 c 0
 36 400 48 431 68 463 c 0
 88 493 116 519 154 541 c 0
 190 560 232 570 280 570 c 4
277 277 m 0
 291 277 302 281 307 290 c 0
 316 299 319 307 319 319 c 0
 319 331 316 342 307 351 c 0
 302 358 291 362 277 362 c 0
 264 362 254 357 246 349 c 0
 238 341 235 331 235 319 c 0
 235 307 238 299 246 290 c 0
 254 281 264 277 277 277 c 0
EndSplineSet
EndChar
StartChar: uni0E15
Encoding: 181 3605 150
Width: 597
Flags: W
HStem: 0 21G<123 206 425 519> 364 67<277 290>
VStem: 33 82<349 365> 165 70<318 325> 319 68<320 326> 425 94<0 404>
Fore
519 0 m 1
 425 0 l 1
 425 392 l 2
 425 423 419 445 412 458 c 0
 403 471 392 483 377 492 c 1
 291 458 l 1
 203 492 l 1
 144 461 115 416 115 362 c 0
 115 323 129 273 161 210 c 0
 173 187 178 167 184 149 c 0
 187 133 188 122 188 116 c 1
 200 130 210 148 222 165 c 0
 231 180 242 197 254 213 c 1
 229 215 210 226 191 248 c 0
 174 268 165 294 165 323 c 0
 165 354 175 378 197 400 c 0
 218 420 244 431 277 431 c 0
 312 431 338 420 355 402 c 0
 374 380 387 354 387 320 c 0
 389 286 377 252 357 225 c 2
 206 0 l 1
 123 0 l 1
 123 58 117 102 110 129 c 0
 109 130 100 149 86 180 c 0
 68 212 55 242 46 273 c 0
 38 300 33 331 33 365 c 0
 35 412 54 454 90 492 c 0
 125 529 162 555 203 567 c 1
 291 529 l 1
 381 568 l 1
 438 541 474 515 492 489 c 0
 509 464 519 426 519 378 c 2
 519 0 l 1
277 277 m 0
 291 277 302 281 307 290 c 0
 316 299 319 307 319 320 c 0
 319 332 316 344 307 352 c 0
 302 361 291 364 277 364 c 0
 264 364 254 358 246 351 c 0
 238 342 235 332 235 320 c 0
 235 310 238 299 246 290 c 0
 254 281 264 277 277 277 c 0
EndSplineSet
EndChar
StartChar: uni0E16
Encoding: 182 3606 151
Width: 603
Flags: W
HStem: -10 62<200 210> 148 62<202 213.76> 499 71<281 315>
VStem: 91 69<100 102> 91 97<100 279> 254 59<89.5632 102> 431 95<0 395>
Fore
188 210 m 1xee
 202 210 l 2
 236 210 264 199 283 177 c 0
 303 154 313 128 313 100 c 0
 313 71 303 45 283 23 c 0
 264 1 236 -10 202 -10 c 0
 168 -10 142 1 123 23 c 0
 102 45 91 68 91 100 c 2xf6
 91 270 l 2
 91 302 96 326 103 344 c 0
 112 362 125 378 144 392 c 1
 136 394 123 400 104 405 c 0
 87 409 65 415 42 416 c 1
 42 447 l 1
 46 452 52 461 62 471 c 0
 72 483 88 496 110 513 c 0
 130 528 160 542 191 554 c 0
 223 566 261 570 303 570 c 0
 348 570 386 564 418 551 c 0
 451 536 477 516 496 489 c 0
 516 461 526 428 526 387 c 2
 526 0 l 1
 431 0 l 1
 431 378 l 2
 431 418 418 450 393 468 c 0
 367 490 335 499 294 499 c 0
 248 499 202 483 157 455 c 1
 162 454 168 452 178 451 c 0
 190 450 203 444 219 439 c 0
 236 432 252 425 267 413 c 1
 267 367 l 1
 249 367 232 362 215 351 c 0
 197 339 188 315 188 277 c 2
 188 210 l 1xee
210 52 m 0
 223 54 232 59 241 67 c 0
 249 75 254 87 254 99 c 0
 254 113 249 125 241 135 c 0
 232 142 219 148 202 148 c 0
 187 146 177 141 171 133 c 0
 162 125 160 113 160 100 c 0
 160 88 164 77 173 67 c 0
 180 58 193 52 210 52 c 0
EndSplineSet
EndChar
StartChar: uni0E17
Encoding: 183 3607 152
Width: 655
Flags: W
HStem: 0 21G<157 248 484 580> 348 65<122 142> 484 76<460 465> 500 67<129.965 142>
VStem: 29 68<447 467> 157 95<0 454> 181 71<447 467> 484 96<0 456>
Fore
157 0 m 1xed
 157 349 l 1
 151 348 139 348 122 348 c 0
 93 351 71 364 54 386 c 0
 38 406 29 431 29 458 c 0
 29 489 39 515 59 536 c 0
 77 557 104 567 139 567 c 0xdd
 175 567 203 555 223 534 c 0
 242 513 252 484 252 454 c 2
 252 229 l 1
 349 465 l 2
 364 502 377 526 390 541 c 0
 403 554 428 560 464 560 c 0
 516 560 550 550 560 526 c 0
 574 503 580 470 580 428 c 2
 580 0 l 1
 484 0 l 1
 484 420 l 2
 484 445 483 464 481 471 c 0
 480 480 474 483 465 484 c 0
 457 484 451 481 447 477 c 0
 442 471 441 467 439 463 c 2
 248 0 l 1
 157 0 l 1xed
139 413 m 0
 154 413 164 418 171 426 c 0
 178 434 181 444 181 457 c 0xdb
 181 468 178 480 171 489 c 0
 164 496 154 500 139 500 c 0
 126 500 116 494 109 487 c 0
 100 478 97 468 97 457 c 0
 97 445 100 434 109 426 c 0
 116 418 126 413 139 413 c 0
EndSplineSet
EndChar
StartChar: uni0E18
Encoding: 184 3608 153
Width: 519
Flags: W
HStem: 0 86<52 322> 383 67<91 142> 458 73<408 426> 499 69<214 233>
VStem: 122 94<86 345> 345 96<111 289>
Fore
128 450 m 1xdc
 133 450 138 450 142 451 c 0
 149 451 162 451 184 451 c 0
 280 451 352 432 399 396 c 0
 426 374 441 332 441 273 c 2
 441 106 l 2
 441 62 432 33 418 20 c 0
 403 7 370 0 320 0 c 2
 52 0 l 1
 52 86 l 1
 122 86 l 1
 122 345 l 1
 216 345 l 1
 216 86 l 1
 302 86 l 2
 323 86 335 88 339 93 c 0
 344 100 345 113 345 133 c 2
 345 274 l 2
 345 291 344 307 341 319 c 0
 338 331 328 342 313 354 c 0
 302 364 274 370 231 376 c 0
 187 380 141 383 91 383 c 0
 61 383 39 383 25 381 c 1
 25 439 l 1
 45 474 71 503 104 529 c 0
 139 555 181 568 229 568 c 0xdc
 264 568 300 563 339 551 c 0
 378 538 405 531 416 531 c 0
 434 531 455 536 477 547 c 1
 499 477 l 1
 471 465 445 458 420 458 c 0xec
 400 458 368 465 326 478 c 0
 281 492 248 499 219 499 c 0
 193 499 173 492 157 480 c 0
 142 468 133 457 128 450 c 1xdc
EndSplineSet
EndChar
StartChar: uni0E19
Encoding: 185 3609 154
Width: 646
Flags: W
HStem: -12 71<519 538> 351 65<134 146> 503 67<134 151>
VStem: 26 70<461 471> 151 95<0 471> 180 66<451 471> 429 96<78 184 253 557> 566 65<106 117>
Fore
429 557 m 1xfb
 525 557 l 1
 525 254 l 1
 558 248 584 231 603 204 c 0
 621 178 632 148 631 110 c 0
 631 74 619 45 597 23 c 0
 577 0 551 -12 519 -12 c 0
 494 -12 476 -4 457 10 c 0
 439 25 429 48 429 78 c 2
 429 184 l 1
 387 171 348 144 312 106 c 0
 274 68 251 33 242 0 c 1
 151 0 l 1
 151 352 l 1
 149 352 148 352 144 352 c 0
 142 351 139 351 136 351 c 0
 102 351 75 362 55 386 c 0
 36 406 26 432 26 461 c 0
 26 490 36 516 55 538 c 0
 75 558 102 570 136 570 c 0
 167 570 191 563 213 544 c 0
 235 525 246 500 246 471 c 2
 246 142 l 1
 267 171 293 193 328 213 c 0
 361 231 394 246 429 254 c 1
 429 557 l 1xfb
138 416 m 0
 152 416 162 420 171 429 c 0
 177 438 180 447 180 461 c 0xf7
 180 471 177 483 171 492 c 0
 162 500 152 503 138 503 c 0
 125 503 115 499 106 490 c 0
 99 481 96 471 96 461 c 0
 96 450 99 438 106 429 c 0
 115 420 125 416 138 416 c 0
566 117 m 0
 566 136 563 151 554 162 c 0
 545 174 536 180 525 184 c 1
 525 80 l 1
 526 65 529 59 538 59 c 0
 542 61 547 64 552 68 c 0
 555 75 558 84 563 93 c 0
 564 102 566 110 566 117 c 0
EndSplineSet
EndChar
StartChar: uni0E1A
Encoding: 186 3610 155
Width: 620
Flags: W
HStem: 0 86<68 414> 348 65<104 126> 500 67<113.936 126>
VStem: 13 67<447 465> 141 95<86 454> 165 71<447 465> 445 97<127 557>
Fore
141 86 m 1xfa
 141 349 l 1
 135 348 123 348 104 348 c 0
 77 351 54 364 38 386 c 0
 22 406 13 431 13 458 c 0
 13 477 16 494 25 513 c 0
 33 529 45 542 62 552 c 0
 78 563 99 567 123 567 c 0
 160 567 187 555 206 534 c 0
 226 513 236 484 236 454 c 2
 236 86 l 1
 394 86 l 2
 416 86 431 88 438 96 c 0
 442 100 445 113 445 133 c 2
 445 557 l 1
 542 557 l 5
 542 109 l 2
 542 65 531 38 508 23 c 0
 483 9 445 0 394 0 c 2
 68 0 l 1
 68 86 l 1
 141 86 l 1xfa
123 413 m 0
 136 413 146 418 154 426 c 0
 162 434 165 444 165 457 c 0xf6
 165 468 162 480 154 489 c 0
 146 496 136 500 123 500 c 0
 110 500 100 494 91 487 c 0
 84 478 80 468 80 457 c 0
 80 445 84 434 91 426 c 0
 100 418 110 413 123 413 c 0
EndSplineSet
EndChar
StartChar: uni0E1B
Encoding: 187 3611 156
Width: 620
Flags: W
HStem: 0 86<68 414> 348 65<104 126> 500 67<113.936 126>
VStem: 13 67<447 465> 141 95<86 454> 165 71<447 465> 445 97<127 774>
AnchorPoint: "AboveBase" 406 652.5 basechar 0
Fore
141 86 m 1xfa
 141 349 l 1
 135 348 123 348 104 348 c 0
 77 351 54 364 38 386 c 0
 22 406 13 431 13 458 c 0
 13 477 16 494 25 513 c 0
 33 529 45 542 62 552 c 0
 78 563 99 567 123 567 c 0
 160 567 187 555 206 534 c 0
 226 513 236 484 236 454 c 2
 236 86 l 1
 394 86 l 2
 416 86 431 88 438 96 c 0
 442 100 445 113 445 133 c 2
 445 774 l 1
 542 774 l 1
 542 109 l 2
 542 65 531 38 508 23 c 0
 483 9 445 0 394 0 c 2
 68 0 l 1
 68 86 l 1
 141 86 l 1xfa
123 413 m 0
 136 413 146 418 154 426 c 0
 162 434 165 444 165 457 c 0xf6
 165 468 162 480 154 489 c 0
 146 496 136 500 123 500 c 0
 110 500 100 494 91 487 c 0
 84 478 80 468 80 457 c 0
 80 445 84 434 91 426 c 0
 100 418 110 413 123 413 c 0
EndSplineSet
EndChar
StartChar: uni0E1C
Encoding: 188 3612 157
Width: 611
Flags: W
HStem: 0 21G<78 168 441 534> 348 65<181.327 200> 500 67<181.965 202>
VStem: 78 71<0 465> 78 90<0 23.8399> 235 67<447 465> 441 93<0 21.6032 188 557>
Fore
168 0 m 1xee
 78 0 l 1
 78 454 l 2xf6
 78 484 88 513 109 534 c 0
 128 555 155 567 191 567 c 0
 216 567 238 563 254 552 c 0
 268 542 281 529 290 513 c 0
 299 494 302 477 302 458 c 0
 302 431 293 406 277 386 c 0
 261 364 238 351 210 348 c 0
 191 348 180 348 174 349 c 1
 174 188 l 1
 306 325 l 1
 439 188 l 1
 439 557 l 1
 534 557 l 5
 534 0 l 1
 441 0 l 1
 441 45 429 78 407 103 c 2
 304 219 l 1
 200 103 l 2
 178 80 168 46 168 0 c 1xee
191 500 m 0
 178 500 168 494 161 487 c 0
 152 478 149 468 149 457 c 0
 149 445 152 434 161 426 c 0
 168 418 178 413 191 413 c 0
 204 413 215 418 223 426 c 0
 231 434 235 444 235 457 c 0
 235 468 231 480 223 489 c 0
 215 496 204 500 191 500 c 0
EndSplineSet
EndChar
StartChar: uni0E1D
Encoding: 189 3613 158
Width: 611
Flags: W
HStem: 0 21G<78 168 441 534> 348 65<181.327 200> 500 67<181.965 202>
VStem: 78 71<0 465> 78 90<0 23.8399> 235 67<447 465> 441 93<0 21.6032 188 774>
AnchorPoint: "AboveBase" 397.3 652.5 basechar 0
Fore
168 0 m 1xee
 78 0 l 1
 78 454 l 2xf6
 78 484 88 513 109 534 c 0
 128 555 155 567 191 567 c 0
 216 567 238 563 254 552 c 0
 268 542 281 529 290 513 c 0
 299 494 302 477 302 458 c 0
 302 431 293 406 277 386 c 0
 261 364 238 351 210 348 c 0
 191 348 180 348 174 349 c 1
 174 188 l 1
 306 325 l 1
 439 188 l 1
 439 774 l 1
 534 774 l 1
 534 0 l 1
 441 0 l 1
 441 45 429 78 407 103 c 2
 304 219 l 1
 200 103 l 2
 178 80 168 46 168 0 c 1xee
191 500 m 0
 178 500 168 494 161 487 c 0
 152 478 149 468 149 457 c 0
 149 445 152 434 161 426 c 0
 168 418 178 413 191 413 c 0
 204 413 215 418 223 426 c 0
 231 434 235 444 235 457 c 0
 235 468 231 480 223 489 c 0
 215 496 204 500 191 500 c 0
EndSplineSet
EndChar
StartChar: uni0E1E
Encoding: 190 3614 159
Width: 696
Flags: W
HStem: 0 21G<136 229 522 618> 348 65<102 122> 500 67<110.086 122>
VStem: 10 67<447 465> 136 96<0 454> 162 70<447 465> 522 96<0 18.1937 255 557>
Fore
232 255 m 1xfa
 377 544 l 1
 522 255 l 1
 522 557 l 1
 618 557 l 1
 618 0 l 1
 522 0 l 1
 522 9 521 20 519 36 c 0
 518 51 515 64 509 75 c 2
 377 355 l 1
 242 75 l 2
 238 64 235 51 232 36 c 0
 231 20 231 9 229 0 c 1
 136 0 l 1
 136 349 l 1
 130 348 119 348 102 348 c 0
 74 351 51 364 35 386 c 0
 17 406 10 431 10 458 c 0
 10 477 13 494 22 513 c 0
 29 529 42 542 59 552 c 0
 75 563 96 567 119 567 c 0
 155 567 184 555 203 534 c 0
 223 513 232 484 232 454 c 2
 232 255 l 1xfa
119 413 m 0
 133 413 142 418 151 426 c 0
 160 434 162 444 162 457 c 0xf6
 162 468 160 480 151 489 c 0
 142 496 133 500 119 500 c 0
 106 500 97 494 88 487 c 0
 80 478 77 468 77 457 c 0
 77 445 80 434 88 426 c 0
 97 418 106 413 119 413 c 0
EndSplineSet
EndChar
StartChar: uni0E1F
Encoding: 191 3615 160
Width: 696
Flags: W
HStem: 0 21G<136 229 522 618> 348 65<102 122> 500 67<110.086 122>
VStem: 10 67<447 465> 136 96<0 454> 162 70<447 465> 522 96<0 18.1937 255 774>
AnchorPoint: "AboveBase" 481.4 652.5 basechar 0
Fore
232 255 m 1xfa
 377 544 l 1
 522 255 l 1
 522 774 l 1
 618 774 l 1
 618 0 l 1
 522 0 l 1
 522 9 521 20 519 36 c 0
 518 51 515 64 509 75 c 2
 377 355 l 1
 242 75 l 2
 238 64 235 51 232 36 c 0
 231 20 231 9 229 0 c 1
 136 0 l 1
 136 349 l 1
 130 348 119 348 102 348 c 0
 74 351 51 364 35 386 c 0
 17 406 10 431 10 458 c 0
 10 477 13 494 22 513 c 0
 29 529 42 542 59 552 c 0
 75 563 96 567 119 567 c 0
 155 567 184 555 203 534 c 0
 223 513 232 484 232 454 c 2
 232 255 l 1xfa
119 413 m 0
 133 413 142 418 151 426 c 0
 160 434 162 444 162 457 c 0xf6
 162 468 160 480 151 489 c 0
 142 496 133 500 119 500 c 0
 106 500 97 494 88 487 c 0
 80 478 77 468 77 457 c 0
 77 445 80 434 88 426 c 0
 97 418 106 413 119 413 c 0
EndSplineSet
EndChar
StartChar: uni0E20
Encoding: 192 3616 161
Width: 655
Flags: W
HStem: 0 21G<481 577> 146 60<130 142> 499 71<327.832 359>
VStem: 22 62<95 103> 178 61<95 102> 481 96<0 394>
Fore
130 209 m 0
 135 209 138 209 139 209 c 0
 141 206 141 206 142 206 c 1
 142 270 l 2
 142 302 148 326 155 344 c 0
 164 364 175 380 193 392 c 1
 186 394 173 400 154 405 c 0
 136 409 115 415 91 416 c 1
 91 447 l 1
 97 452 103 461 113 471 c 0
 123 483 139 496 161 513 c 0
 181 528 210 542 241 554 c 0
 274 566 312 570 354 570 c 0
 396 570 434 564 468 550 c 0
 503 536 529 515 547 487 c 0
 567 458 577 425 577 387 c 2
 577 0 l 1
 481 0 l 1
 481 378 l 2
 481 418 468 450 444 468 c 0
 418 490 386 499 345 499 c 0
 325 499 300 494 276 487 c 0
 251 480 229 470 209 455 c 1
 218 454 235 451 255 444 c 0
 277 439 297 428 318 413 c 1
 318 367 l 1
 302 367 286 362 267 351 c 0
 249 339 239 315 239 277 c 2
 239 100 l 2
 239 67 229 41 212 22 c 0
 193 0 167 -10 130 -12 c 1
 97 -10 68 0 51 22 c 0
 30 42 22 67 22 97 c 0
 22 128 30 154 51 175 c 0
 68 197 97 209 130 209 c 0
130 51 m 0
 146 51 160 55 167 65 c 0
 175 74 178 86 178 99 c 0
 178 129 162 146 130 146 c 0
 116 146 104 141 97 133 c 0
 88 123 84 112 84 99 c 0
 84 87 88 75 97 65 c 0
 104 55 116 51 130 51 c 0
EndSplineSet
EndChar
StartChar: uni0E21
Encoding: 193 3617 162
Width: 630
Flags: W
HStem: 0 21G<461 552> 348 65<141.29 160> 500 67<141.936 162>
VStem: 41 68<457 468> 45 71<108 117> 164 96<78 178 256 468> 193 67<451 468> 457 95<151 557>
Fore
457 557 m 1xe3
 552 557 l 1
 552 0 l 1
 461 0 l 1
 455 20 444 42 426 68 c 0
 407 96 383 117 354 139 c 0
 325 161 293 174 260 178 c 1
 260 86 l 2
 260 54 251 29 232 14 c 0
 215 -1 193 -12 171 -12 c 0
 133 -13 102 0 78 23 c 0
 58 45 45 74 45 110 c 0xed
 42 151 55 186 77 213 c 0
 100 241 129 255 164 257 c 1
 164 349 l 1
 160 349 l 0
 157 348 154 348 151 348 c 0
 116 348 90 358 71 380 c 0
 51 402 41 428 41 457 c 0
 41 489 51 515 68 536 c 0
 88 557 116 567 151 567 c 0
 180 567 206 557 228 539 c 0
 249 521 260 496 260 468 c 2xf5
 260 255 l 1
 316 248 362 232 394 209 c 0
 426 186 447 165 457 151 c 1
 457 557 l 1xe3
151 413 m 0
 164 413 174 418 181 426 c 0
 190 434 193 444 193 457 c 0
 193 468 190 480 181 489 c 0
 174 496 164 500 151 500 c 0
 138 500 128 494 119 487 c 0
 112 478 109 468 109 457 c 0xf3
 109 445 112 434 119 426 c 0
 128 418 138 413 151 413 c 0
164 184 m 1xed
 149 181 138 175 129 164 c 0
 122 152 116 136 116 117 c 0
 116 81 128 62 151 61 c 0
 160 61 164 67 164 80 c 2
 164 184 l 1xed
EndSplineSet
EndChar
StartChar: uni0E22
Encoding: 194 3618 163
Width: 584
Flags: W
HStem: 0 86<174 387> 357 66<210 228> 502 66<210 228>
VStem: 78 96<0 145> 260 63<453.911 470> 409 97<127 557>
Fore
157 267 m 1
 130 276 110 293 93 319 c 0
 75 345 67 376 67 406 c 0
 67 429 71 451 78 468 c 0
 90 502 109 526 133 544 c 0
 157 560 187 568 218 568 c 0
 249 568 276 558 293 539 c 0
 313 518 323 493 323 464 c 0
 323 434 313 409 294 389 c 0
 277 367 251 357 218 357 c 0
 202 357 186 362 171 368 c 1
 155 373 149 377 149 378 c 1
 149 378 149 378 151 378 c 1
 151 355 165 338 194 323 c 0
 225 307 254 302 283 300 c 1
 283 229 l 1
 242 229 215 222 199 204 c 0
 181 190 174 167 174 136 c 2
 174 86 l 1
 358 86 l 2
 380 86 394 88 402 96 c 0
 406 100 409 113 409 133 c 2
 409 557 l 1
 506 557 l 1
 506 106 l 2
 506 62 499 33 483 20 c 0
 467 7 434 0 387 0 c 2
 78 0 l 1
 78 136 l 2
 78 168 86 194 97 215 c 0
 109 235 119 248 130 255 c 0
 142 262 152 265 157 267 c 1
219 423 m 0
 232 423 242 426 249 434 c 0
 255 442 260 451 260 463 c 0
 260 474 255 481 249 490 c 0
 242 499 232 502 219 502 c 0
 206 502 197 499 190 490 c 0
 181 481 178 471 178 463 c 0
 178 452 181 444 190 436 c 0
 197 428 206 423 219 423 c 0
EndSplineSet
EndChar
StartChar: uni0E23
Encoding: 195 3619 164
Width: 508
Flags: W
HStem: -7 68<313 322> 146 69<316 321> 396 62<17 125> 464 72<402.546 418> 503 71<204 226>
VStem: 206 68<92.1937 108> 361 71<101 108>
Fore
432 276 m 2xee
 432 106 l 2
 432 74 420 48 400 26 c 0
 377 4 349 -7 316 -7 c 0
 281 -7 254 4 236 26 c 0
 216 48 206 74 206 103 c 0
 206 133 216 160 236 180 c 0
 255 202 281 213 316 215 c 0
 325 215 331 215 336 213 c 1
 336 276 l 2
 336 293 335 307 331 319 c 0
 328 331 318 344 303 355 c 0
 293 364 276 370 248 377 c 0
 219 381 184 387 139 392 c 0
 97 394 55 396 17 396 c 1
 17 447 l 1
 36 481 61 512 96 536 c 0xf6
 128 560 168 574 219 574 c 0xee
 254 574 291 567 332 555 c 0
 374 542 400 536 415 536 c 0
 434 536 455 541 477 552 c 1
 499 481 l 1
 470 470 444 464 416 464 c 0xf6
 392 464 358 470 315 483 c 0
 270 496 236 503 210 503 c 0
 184 503 164 499 151 487 c 0
 138 476 129 467 125 458 c 1
 249 458 338 439 389 399 c 0
 418 374 432 332 432 276 c 2xee
318 61 m 0
 331 61 341 64 349 72 c 0
 357 80 361 91 361 103 c 0
 361 115 357 126 351 135 c 0
 342 142 332 146 318 146 c 0
 303 146 293 141 286 133 c 0
 277 125 274 115 274 103 c 0
 274 91 277 81 286 74 c 0
 293 65 304 61 318 61 c 0
EndSplineSet
EndChar
StartChar: uni0E24
Encoding: 196 3620 165
Width: 603
Flags: W
HStem: -10 62<202 204> 148 62<188 204> 499 71<281 315>
VStem: 91 64<100 102> 91 97<100 287> 249 64<100 111> 431 95<-290 394>
Fore
188 210 m 1xee
 202 210 l 2
 236 210 264 199 283 177 c 0
 303 154 313 128 313 100 c 0
 313 71 303 45 283 23 c 0
 264 1 236 -10 202 -10 c 0
 168 -10 142 1 123 23 c 0
 102 45 91 68 91 100 c 2xf6
 91 270 l 2
 91 302 96 326 103 344 c 0
 112 362 125 378 144 392 c 1
 136 394 123 400 104 405 c 0
 87 409 65 415 42 416 c 1
 42 447 l 1
 46 452 52 461 62 471 c 0
 72 483 88 496 110 513 c 0
 130 528 160 542 191 554 c 0
 223 566 261 570 303 570 c 0
 348 570 386 564 418 551 c 0
 451 536 477 516 496 489 c 0
 516 461 526 428 526 387 c 2
 526 -290 l 1
 431 -290 l 1
 431 378 l 2
 431 418 418 450 393 468 c 0
 367 490 335 499 294 499 c 0
 248 499 202 483 157 455 c 1
 162 454 168 452 178 451 c 0
 190 450 203 444 219 439 c 0
 236 432 252 425 267 413 c 1
 267 367 l 1
 249 367 232 362 215 351 c 0
 197 339 188 315 188 277 c 2
 188 210 l 1xee
202 52 m 0
 216 52 229 58 238 67 c 0
 246 75 249 87 249 100 c 0
 249 130 232 148 202 148 c 0
 187 148 175 142 168 135 c 0
 161 125 155 113 155 100 c 0
 155 88 161 77 168 67 c 0
 177 58 187 52 202 52 c 0
EndSplineSet
EndChar
StartChar: uni0E25
Encoding: 197 3621 166
Width: 580
Flags: W
HStem: 0 21G<406 503> 326 73<214 222> 496 72<267 292>
VStem: 78 82<203 231.416> 241 66<99 105> 406 97<248 399>
Fore
199 -12 m 0
 165 -12 139 -1 117 17 c 0
 97 38 84 61 81 88 c 0
 78 126 78 175 78 232 c 1
 84 280 97 319 122 351 c 0
 144 381 175 399 216 399 c 0
 260 400 293 389 320 367 c 0
 349 345 368 323 383 294 c 0
 396 267 405 252 406 248 c 1
 406 381 l 2
 406 419 394 447 370 467 c 0
 345 487 312 496 267 496 c 0
 229 496 199 489 171 470 c 0
 142 452 122 431 104 409 c 1
 51 457 l 1
 68 487 97 512 135 534 c 0
 171 555 215 568 267 568 c 0
 335 568 392 552 436 519 c 0
 480 487 503 441 503 383 c 2
 503 0 l 1
 406 0 l 1
 400 35 389 75 374 126 c 0
 357 177 336 225 310 265 c 0
 283 306 254 328 222 326 c 0
 180 325 160 281 160 203 c 1
 164 204 168 204 175 206 c 0
 181 209 190 209 199 209 c 0
 232 206 261 197 278 178 c 0
 297 160 307 133 307 102 c 0
 310 68 299 42 278 22 c 0
 261 0 232 -10 199 -12 c 0
199 54 m 0
 213 54 223 59 231 67 c 0
 238 75 241 86 241 99 c 0
 241 110 238 122 231 129 c 0
 223 138 213 141 199 141 c 0
 184 141 174 136 167 128 c 0
 160 119 155 110 155 99 c 0
 155 87 160 77 167 68 c 0
 175 59 186 54 199 54 c 0
EndSplineSet
EndChar
StartChar: uni0E26
Encoding: 198 3622 167
Width: 655
Flags: W
HStem: 146 60<130 142> 499 71<327.832 359>
VStem: 22 62<93 103> 178 61<93 111> 481 96<-290 394>
Fore
130 209 m 0
 135 209 138 209 139 209 c 0
 141 206 141 206 142 206 c 1
 142 270 l 2
 142 302 148 326 155 344 c 0
 164 364 175 380 193 392 c 1
 186 394 173 400 154 405 c 0
 136 409 115 415 91 416 c 1
 91 447 l 1
 97 452 103 461 113 471 c 0
 123 483 139 496 161 513 c 0
 181 528 210 542 241 554 c 0
 274 566 312 570 354 570 c 0
 396 570 434 564 468 550 c 0
 503 536 529 515 547 487 c 0
 567 458 577 425 577 387 c 2
 577 -290 l 1
 481 -290 l 1
 481 378 l 2
 481 418 468 450 444 468 c 0
 418 490 386 499 345 499 c 0
 325 499 300 494 276 487 c 0
 251 480 229 470 209 455 c 1
 218 454 235 451 255 444 c 0
 277 439 297 428 318 413 c 1
 318 367 l 1
 302 367 286 362 267 351 c 0
 249 339 239 315 239 277 c 2
 239 100 l 2
 239 67 229 41 212 22 c 0
 193 0 167 -10 130 -12 c 1
 97 -10 68 0 51 22 c 0
 30 42 22 67 22 97 c 0
 22 128 30 154 51 175 c 0
 68 197 97 209 130 209 c 0
130 51 m 0
 146 51 160 55 167 65 c 0
 175 74 178 86 178 99 c 0
 178 129 162 146 130 146 c 0
 116 146 104 141 97 133 c 0
 88 123 84 112 84 99 c 0
 84 87 88 75 97 65 c 0
 104 55 116 51 130 51 c 0
EndSplineSet
EndChar
StartChar: uni0E27
Encoding: 199 3623 168
Width: 523
Flags: W
HStem: -12 66<335 337> 141 68<335 337> 492 78<203 237>
VStem: 223 68<99 105> 351 94<206 398> 377 68<97 106>
Fore
335 209 m 0xf4
 341 209 345 209 351 206 c 1
 351 378 l 2
 351 419 339 447 315 464 c 0
 290 481 260 492 222 492 c 0
 157 493 104 461 61 396 c 1
 -4 447 l 1
 16 481 46 512 84 536 c 0
 122 558 167 570 223 570 c 0
 293 570 349 554 389 519 c 0
 426 484 445 439 445 380 c 2xf8
 445 102 l 2
 445 71 436 42 415 22 c 0
 393 0 367 -12 335 -12 c 0
 300 -12 273 0 252 22 c 0
 232 42 222 71 223 103 c 0
 223 133 236 157 255 178 c 0
 276 199 302 209 335 209 c 0xf4
335 54 m 0
 349 54 358 59 367 67 c 0
 374 75 377 86 377 99 c 0xf4
 377 110 374 122 367 129 c 0
 358 138 349 141 335 141 c 0
 319 141 310 136 303 128 c 0
 294 119 291 110 291 99 c 0
 291 87 294 77 303 68 c 0
 312 59 320 54 335 54 c 0
EndSplineSet
EndChar
StartChar: uni0E28
Encoding: 200 3624 169
Width: 598
Flags: W
HStem: 0 21G<129 226 426 521> 364 68<273 280> 499 77<268 280>
VStem: 38 81<353 383> 129 97<0 219> 315 66<320 331.495> 426 95<0 380>
Fore
457 518 m 0
 458 518 464 526 474 542 c 0
 481 558 490 577 494 597 c 1
 577 560 l 1
 571 538 563 515 547 493 c 0
 532 470 521 454 509 444 c 1
 512 439 515 432 516 423 c 0
 519 413 521 399 521 378 c 2
 521 0 l 1
 426 0 l 1
 426 355 l 1
 426 381 l 1
 409 370 393 364 376 358 c 1
 377 357 377 352 378 345 c 0
 380 339 381 331 381 320 c 0
 380 290 370 264 352 242 c 0
 335 222 306 212 273 210 c 0
 267 210 257 212 246 213 c 0
 232 216 226 218 226 219 c 2
 226 0 l 1
 129 0 l 1
 129 97 l 2
 129 122 126 144 117 164 c 0
 110 184 99 206 84 232 c 0
 68 260 58 281 49 302 c 0
 41 320 38 344 38 373 c 0
 39 416 52 454 75 483 c 0
 97 513 126 536 164 551 c 0
 200 566 238 574 278 576 c 0
 302 576 325 574 348 568 c 0
 370 564 392 555 412 545 c 0
 432 536 447 526 457 518 c 0
336 413 m 1
 348 413 358 418 373 428 c 0
 383 436 393 444 400 450 c 1
 387 465 368 478 345 487 c 0
 320 494 297 499 268 499 c 0
 231 496 197 484 167 461 c 0
 136 436 119 406 119 368 c 0
 119 348 125 328 133 306 c 0
 139 287 142 277 144 277 c 1
 144 277 144 277 144 278 c 0
 144 303 152 336 168 374 c 0
 184 412 218 431 273 432 c 0
 291 432 306 431 316 426 c 0
 326 420 332 416 336 413 c 1
273 277 m 0
 287 277 297 281 304 290 c 0
 312 299 315 307 315 320 c 0
 315 332 312 344 304 352 c 0
 297 361 287 364 273 364 c 0
 260 364 249 358 241 351 c 0
 232 342 229 332 229 320 c 0
 229 310 232 299 241 290 c 0
 249 281 260 277 273 277 c 0
EndSplineSet
EndChar
StartChar: uni0E29
Encoding: 201 3625 170
Width: 633
Flags: W
HStem: 0 86<81 427> 190 61<423 461> 344 50<348.139 363> 348 65<119 139> 500 67<126.936 139>
VStem: 26 67<447 465> 154 95<86 454> 178 71<447 465> 268 57<306 320> 390 52<313 320> 461 94<127 212 252 557>
Fore
680 403 m 1xeee0
 680 373 676 344 666 320 c 0
 655 297 644 278 629 264 c 0
 616 249 602 238 587 229 c 0
 571 222 560 215 555 212 c 1
 555 109 l 2
 555 65 544 38 521 23 c 0
 499 9 461 0 407 0 c 2
 81 0 l 1
 81 86 l 1
 154 86 l 1
 154 349 l 1
 148 348 136 348 119 348 c 0xdee0
 91 351 68 364 52 386 c 0
 35 406 26 431 26 458 c 0
 26 489 36 515 55 536 c 0
 74 557 102 567 136 567 c 0
 174 567 202 557 219 536 c 0
 239 515 249 487 249 454 c 2
 249 86 l 1
 412 86 l 2
 432 86 447 88 452 96 c 0
 457 100 461 113 461 133 c 2
 461 190 l 1
 400 190 355 199 328 213 c 1
 306 228 291 239 283 251 c 0
 276 262 270 281 268 307 c 0
 268 329 276 349 290 367 c 0
 304 386 326 394 357 394 c 0
 381 394 403 387 418 373 c 0
 432 355 442 336 442 313 c 0
 444 287 436 265 423 251 c 1
 444 251 455 251 461 252 c 1
 461 557 l 1
 555 557 l 1
 555 287 l 1
 583 302 597 339 597 403 c 1
 680 403 l 1xeee0
357 280 m 0
 368 280 377 283 381 290 c 0
 387 297 390 304 390 313 c 0
 390 320 387 329 380 336 c 0
 376 341 367 344 357 344 c 0xece0
 348 344 339 341 335 335 c 0
 328 328 325 320 325 313 c 0
 325 304 328 299 335 290 c 0
 339 283 345 280 357 280 c 0
136 413 m 0xdde0
 151 413 161 418 168 426 c 0
 175 434 178 444 178 457 c 0
 178 468 175 480 168 489 c 0
 161 496 151 500 136 500 c 0
 123 500 113 494 104 487 c 0
 97 478 93 468 93 457 c 0
 93 445 97 434 104 426 c 0
 113 418 123 413 136 413 c 0xdde0
EndSplineSet
EndChar
StartChar: uni0E2A
Encoding: 202 3626 171
Width: 580
Flags: W
HStem: 0 21G<406 503> 326 73<214 222> 496 72<267 280>
VStem: 78 82<203 231.416> 241 66<99 105> 405 98<326 383>
Fore
199 54 m 0
 213 54 223 59 231 67 c 0
 238 75 241 86 241 99 c 0
 241 110 238 122 231 129 c 0
 223 138 213 141 199 141 c 0
 184 141 174 136 167 128 c 0
 160 119 155 110 155 99 c 0
 155 87 160 77 167 68 c 0
 175 59 186 54 199 54 c 0
367 461 m 1
 344 484 312 496 267 496 c 0
 229 496 199 489 171 470 c 0
 142 452 122 431 104 409 c 1
 51 457 l 1
 68 487 97 512 135 534 c 0
 171 555 215 568 267 568 c 0
 318 568 364 558 405 538 c 0
 407 538 418 554 434 584 c 0
 450 616 458 632 463 632 c 0
 467 631 478 625 499 613 c 0
 518 602 531 593 536 587 c 1
 531 579 518 560 500 534 c 0
 481 506 471 492 471 487 c 1
 483 476 492 461 496 444 c 0
 502 429 503 407 503 383 c 2
 503 0 l 1
 406 0 l 1
 400 35 389 75 374 126 c 0
 357 177 336 225 310 265 c 0
 283 306 254 328 222 326 c 0
 180 325 160 281 160 203 c 1
 164 204 168 204 175 206 c 0
 181 209 190 209 199 209 c 0
 232 206 261 197 278 178 c 0
 297 160 307 133 307 102 c 0
 310 68 299 42 278 22 c 0
 261 0 232 -10 199 -12 c 0
 165 -12 139 -1 117 17 c 0
 97 38 84 61 81 88 c 0
 78 126 78 175 78 232 c 1
 84 280 97 319 122 351 c 0
 144 381 175 399 216 399 c 0
 260 400 293 390 318 376 c 0
 319 376 328 390 342 418 c 0
 357 445 365 461 367 461 c 1
403 405 m 1
 400 394 393 381 383 365 c 0
 373 349 367 339 367 338 c 0
 377 325 386 310 392 291 c 0
 399 274 403 260 406 248 c 1
 406 274 406 300 405 326 c 0
 405 352 405 378 403 405 c 1
EndSplineSet
EndChar
StartChar: uni0E2B
Encoding: 203 3627 172
Width: 632
Flags: W
HStem: 0 21G<133 226 457 554> 331 84<431 447> 348 65<99 118> 500 67<105.816 118 445 459>
VStem: 4 68<447 465> 133 93<0 33 0 454> 157 71<447 465> 336 69<458 465> 457 97<0 273> 490 67<458 465>
Fore
228 255 m 1xbb
 249 290 274 318 302 339 c 0
 329 361 349 374 364 381 c 1
 345 403 336 429 336 458 c 0
 336 492 345 518 365 539 c 0
 386 558 415 568 452 568 c 0
 484 568 512 558 529 538 c 0
 547 516 557 490 557 458 c 0xbb40
 557 418 542 389 515 368 c 1
 521 367 529 357 539 342 c 0
 550 328 554 302 554 264 c 2
 554 0 l 1
 457 0 l 1
 457 264 l 2
 457 291 454 310 447 318 c 0
 441 326 436 331 431 331 c 1
 368 299 319 252 281 191 c 0
 244 130 226 74 226 22 c 2
 226 0 l 1
 133 0 l 1
 133 349 l 1xdd80
 128 348 116 348 99 348 c 0
 71 351 48 364 30 386 c 0
 13 406 4 431 4 458 c 0
 4 489 14 515 35 536 c 0
 52 557 80 567 115 567 c 0
 152 567 180 557 200 536 c 0
 218 515 228 487 228 454 c 2
 228 255 l 1xbb
447 415 m 0xd940
 463 415 471 419 478 428 c 0
 487 436 490 445 490 458 c 0
 490 470 487 481 478 490 c 0
 471 499 463 502 447 502 c 0
 434 502 425 496 416 489 c 0
 407 480 405 470 405 458 c 0
 405 447 407 436 416 428 c 0
 425 419 434 415 447 415 c 0xd940
115 413 m 0xbb
 129 413 139 418 146 426 c 0
 154 434 157 444 157 457 c 0
 157 468 154 480 146 489 c 0
 139 496 129 500 115 500 c 0
 102 500 91 494 84 487 c 0
 75 478 72 468 72 457 c 0
 72 445 75 434 84 426 c 0
 91 418 102 413 115 413 c 0xbb
EndSplineSet
EndChar
StartChar: uni0E2C
Encoding: 204 3628 173
Width: 698
Flags: W
HStem: 0 21G<141 232 526 621> 348 65<104 126> 444 65<514 526> 500 67<113.936 126> 583 65<522 528>
VStem: 13 67<447 467> 141 91<0 10.5416> 165 71<445 467> 419 68<544 554> 526 95<0 16.5481 242 465>
AnchorPoint: "AboveBase" 484.3 652.5 basechar 0
Fore
621 465 m 1xedc0
 621 0 l 1
 526 0 l 1
 526 9 525 20 522 36 c 0
 521 51 519 64 513 75 c 2
 380 325 l 1
 248 75 l 2
 242 67 239 54 238 36 c 0
 235 20 232 9 232 0 c 1
 141 0 l 1
 141 349 l 1
 135 348 123 348 104 348 c 0
 77 351 54 364 38 386 c 0
 22 406 13 431 13 458 c 0
 13 477 16 494 25 513 c 0
 33 529 45 542 62 552 c 0
 78 563 99 567 123 567 c 0xdec0
 160 567 187 555 206 534 c 0
 226 513 236 484 236 454 c 2
 236 242 l 1
 380 490 l 1
 526 242 l 1
 526 444 l 1
 494 444 470 454 451 474 c 0
 431 492 420 516 419 545 c 0
 419 576 429 600 447 619 c 0
 465 639 492 648 522 648 c 0
 563 648 589 638 603 615 c 0
 616 592 622 574 625 558 c 1
 639 570 651 593 658 628 c 1
 731 594 l 1
 726 571 718 551 703 532 c 0
 689 515 673 499 657 487 c 0
 642 476 629 467 621 465 c 1xedc0
522 509 m 0xecc0
 534 509 542 513 550 521 c 1
 557 528 560 536 560 547 c 0
 560 557 557 566 551 574 c 0
 544 580 534 583 522 583 c 0
 512 583 503 580 496 574 c 0
 490 566 487 557 487 547 c 0
 487 538 490 529 496 521 c 0
 505 513 513 509 522 509 c 0xecc0
123 413 m 0
 136 413 146 418 154 426 c 0
 162 434 165 444 165 457 c 0
 165 468 162 480 154 489 c 0
 146 496 136 500 123 500 c 0xddc0
 110 500 100 494 91 487 c 0
 84 478 80 468 80 457 c 0
 80 445 84 434 91 426 c 0
 100 418 110 413 123 413 c 0
EndSplineSet
EndChar
StartChar: uni0E2D
Encoding: 205 3629 174
Width: 587
Flags: W
HStem: 0 86<207 390> 173 66<191 201> 325 67<191 201> 493 77<253 289>
VStem: 78 74<106 289> 78 96<106 173> 238 66<271 289> 413 96<127 394>
Fore
174 174 m 1xf7
 174 133 l 2xf7
 174 113 177 100 181 96 c 0
 187 88 200 86 222 86 c 2
 362 86 l 2
 383 86 399 88 405 96 c 0
 409 100 413 113 413 133 c 2
 413 378 l 2
 413 454 364 492 267 493 c 0
 236 493 206 487 178 474 c 0
 151 458 126 441 109 418 c 1
 48 467 l 1
 67 494 97 519 135 541 c 0
 173 560 216 570 270 570 c 0
 348 570 406 554 447 521 c 0
 489 489 509 441 509 380 c 2
 509 110 l 2
 509 65 502 38 484 23 c 0
 468 9 438 0 390 0 c 2
 199 0 l 2
 165 0 141 3 125 9 c 0
 106 13 96 23 88 38 c 0
 81 52 78 75 78 106 c 2
 78 274 l 2xfb
 78 306 88 335 110 357 c 0
 130 380 160 392 193 392 c 0
 218 392 239 387 255 376 c 0
 273 365 286 352 293 336 c 0
 302 319 304 302 304 283 c 0
 304 254 294 228 276 204 c 0
 255 184 228 173 193 173 c 0
 188 173 186 173 181 174 c 0
 178 174 175 174 174 174 c 1xf7
194 239 m 0
 210 239 219 244 228 252 c 0
 235 261 238 270 238 281 c 0
 238 293 235 304 228 313 c 0
 219 320 210 325 194 325 c 0
 181 325 173 319 164 312 c 0
 155 303 152 293 152 281 c 0xfb
 152 270 155 261 164 252 c 0
 173 244 181 239 194 239 c 0
EndSplineSet
EndChar
StartChar: uni0E2E
Encoding: 206 3630 175
Width: 587
Flags: W
HStem: 0 86<188 382> 139 67<180 194> 281 68<178 201> 373 59<254 287.958> 512 67<236 271>
VStem: 61 75<463 470> 78 74<229 248> 78 96<97 140> 228 66<239 246> 413 96<116 450>
Fore
581 528 m 1xfcc0
 560 499 538 471 509 450 c 1
 509 110 l 2
 509 65 502 38 484 23 c 0
 468 9 438 0 390 0 c 2
 199 0 l 2
 165 0 141 3 125 9 c 0
 106 13 96 22 88 36 c 0
 81 51 78 74 78 103 c 2xf9c0
 78 229 l 2xfac0
 78 264 88 291 109 315 c 0
 128 338 155 349 193 349 c 0
 223 349 248 339 265 319 c 0
 283 299 293 274 294 246 c 0
 294 218 287 191 268 171 c 0
 251 149 225 139 193 138 c 0
 190 138 187 138 184 139 c 0
 178 139 175 139 174 141 c 1
 174 115 l 2xf9c0
 174 100 175 91 180 88 c 0
 186 87 199 86 222 86 c 2
 364 86 l 2
 386 86 400 88 405 96 c 0
 409 100 413 113 413 133 c 2
 413 402 l 1
 407 396 393 392 368 383 c 0
 344 376 306 373 252 373 c 0
 202 373 155 380 117 394 c 0
 80 409 61 432 61 465 c 0
 61 489 71 508 91 526 c 0
 112 544 136 557 165 566 c 0
 193 574 223 579 252 579 c 0
 310 579 355 570 390 555 c 0
 425 541 445 528 457 518 c 1
 465 526 484 547 515 584 c 1
 581 528 l 1xfcc0
190 206 m 0
 202 206 212 210 218 218 c 0
 225 226 228 235 228 244 c 0
 228 254 225 262 218 270 c 0
 212 278 202 281 190 281 c 0
 178 281 168 278 162 273 c 0
 155 264 152 255 152 244 c 0xfac0
 152 235 155 226 164 218 c 0
 171 210 178 206 190 206 c 0
254 432 m 0
 294 431 329 438 354 445 c 0
 378 455 392 463 392 465 c 1
 386 474 373 481 351 493 c 0
 329 505 297 512 255 512 c 0
 229 512 203 508 175 500 c 0
 149 492 136 481 136 468 c 0xfcc0
 136 447 175 434 254 432 c 0
EndSplineSet
EndChar
StartChar: uni0E2F
Encoding: 207 3631 176
Width: 556
Flags: W
HStem: 236 84<230 260> 348 65<181 189> 500 68<181 189>
VStem: 229 68<445.32 460> 383 95<152 313>
Fore
54 429 m 1
 62 521 104 567 186 568 c 0
 204 568 223 564 241 554 c 0
 260 544 273 531 281 513 c 0
 291 494 297 477 297 457 c 0
 297 426 287 400 267 378 c 0
 246 357 219 348 186 348 c 0
 180 348 175 348 171 349 c 0
 165 349 162 349 160 349 c 1
 167 331 200 320 260 320 c 1
 293 326 323 352 348 396 c 0
 373 441 386 494 386 557 c 1
 478 557 l 1
 478 174 l 2
 478 116 465 74 439 46 c 0
 412 17 362 -4 289 -23 c 1
 268 52 l 1
 306 65 332 77 348 86 c 0
 364 93 374 104 377 116 c 0
 381 129 383 151 383 180 c 2
 383 313 l 1
 376 293 357 276 329 261 c 0
 302 244 270 236 238 236 c 0
 229 236 216 238 202 239 c 0
 157 249 123 270 96 304 c 0
 67 339 54 380 54 429 c 1
187 413 m 0
 200 413 210 418 218 426 c 0
 226 434 229 444 229 457 c 0
 229 468 226 480 218 489 c 0
 210 496 200 500 187 500 c 0
 174 500 164 494 155 487 c 0
 148 478 144 468 144 457 c 0
 144 445 148 434 155 426 c 0
 164 418 174 413 187 413 c 0
EndSplineSet
EndChar
StartChar: uni0E30
Encoding: 208 3632 177
Width: 439
Flags: W
HStem: 0 80<139 178> 161 67<136 141> 329 78<139 178> 490 67<136 141>
VStem: 30 69<122 129 439.655 449.969 450 460.067> 178 68<120 123 447 451>
Fore
138 228 m 0
 171 228 197 218 216 199 c 0
 235 178 244 154 246 123 c 0
 246 116 244 109 242 100 c 0
 241 90 241 84 239 78 c 1
 252 80 268 90 289 109 c 0
 307 126 318 164 318 222 c 1
 409 222 l 1
 409 152 392 99 357 59 c 0
 320 20 262 0 178 0 c 0
 139 0 104 12 75 33 c 0
 46 54 30 84 30 122 c 0
 30 152 41 178 59 199 c 0
 77 218 103 228 138 228 c 0
138 557 m 0
 171 557 199 547 216 528 c 0
 236 506 244 481 246 451 c 0
 246 444 244 436 242 428 c 0
 241 418 241 412 239 406 c 1
 239 406 l 1
 242 406 251 409 262 415 c 0
 277 423 290 438 302 458 c 0
 313 480 318 509 318 550 c 1
 409 550 l 1
 409 503 403 464 389 432 c 0
 374 402 349 376 315 357 c 0
 280 339 236 329 178 329 c 0
 141 329 106 341 75 362 c 0
 45 383 28 412 29 450 c 0
 29 480 41 506 59 528 c 0
 77 547 103 557 138 557 c 0
139 80 m 0
 152 80 162 86 168 93 c 0
 175 102 178 110 178 122 c 0
 178 130 175 141 168 149 c 0
 162 157 152 161 139 161 c 0
 126 161 116 157 110 149 c 0
 102 141 99 130 99 122 c 0
 99 110 102 102 110 93 c 0
 116 86 126 80 139 80 c 0
139 407 m 0
 151 407 161 413 168 420 c 0
 175 429 178 438 178 450 c 0
 178 461 175 470 168 478 c 0
 162 487 152 490 139 490 c 0
 128 490 117 487 110 478 c 0
 102 470 99 461 99 450 c 0
 99 439 102 429 110 420 c 0
 117 413 128 407 139 407 c 0
EndSplineSet
EndChar
StartChar: uni0E31
Encoding: 209 3633 178
Width: 0
Flags: W
HStem: 660 75<-161 -139> 831 67<-257 -252>
VStem: -364 70<787 794> -216 61<787 794>
AnchorPoint: "AboveMark" -114.55 965.7 basemark 0
AnchorPoint: "AboveBase" -46.4004 652.5 mark 0
Fore
-257 898 m 0
 -225 898 -200 886 -181 867 c 0
 -164 845 -155 821 -155 790 c 0
 -155 780 -157 770 -161 760 c 0
 -164 751 -167 744 -168 740 c 1
 -167 740 -164 740 -160 737 c 0
 -154 735 -149 735 -144 735 c 0
 -116 735 -87 745 -54 767 c 0
 -22 786 7 824 30 880 c 1
 112 853 l 1
 100 812 81 779 55 751 c 0
 28 722 -3 700 -41 683 c 0
 -78 668 -117 660 -161 660 c 0
 -177 660 -188 660 -197 663 c 0
 -241 667 -280 682 -313 703 c 0
 -348 724 -364 753 -364 790 c 0
 -364 821 -354 847 -336 867 c 0
 -318 887 -291 899 -257 898 c 0
-255 753 m 0
 -244 753 -235 755 -226 764 c 0
 -219 771 -216 780 -216 792 c 0
 -216 803 -219 811 -226 819 c 0
 -235 828 -244 831 -255 831 c 0
 -267 831 -277 828 -286 819 c 0
 -291 811 -294 803 -294 792 c 0
 -294 780 -291 771 -286 764 c 0
 -277 755 -267 753 -255 753 c 0
EndSplineSet
EndChar
StartChar: uni0E32
Encoding: 210 3634 179
Width: 484
Flags: W
HStem: 0 21G<312 406> 499 75<201 215>
VStem: 312 94<0 423>
Fore
10 423 m 1
 20 458 41 493 72 526 c 0
 103 557 151 574 215 574 c 0
 283 571 332 557 362 529 c 0
 392 502 406 458 406 405 c 2
 406 0 l 1
 312 0 l 1
 312 406 l 2
 312 467 276 499 204 499 c 0
 148 499 110 465 91 400 c 1
 10 423 l 1
EndSplineSet
EndChar
StartChar: uni0E33
Encoding: 211 3635 180
Width: 484
Flags: W
HStem: 0 21G<312 406> 499 75<198 215> 658 68<-175 -169> 812 68<-175 -169>
VStem: -281 68<770 772> -128 66<757.535 773> 312 94<0 423>
Fore
10 423 m 1
 20 458 41 493 72 526 c 0
 103 557 151 574 215 574 c 0
 283 571 332 557 362 529 c 0
 392 502 406 458 406 405 c 2
 406 0 l 1
 312 0 l 1
 312 406 l 2
 312 467 276 499 204 499 c 0
 148 499 110 465 91 400 c 1
 10 423 l 1
-173 880 m 0
 -138 880 -110 870 -91 848 c 0
 -72 828 -62 802 -62 770 c 0
 -62 740 -72 713 -91 692 c 0
 -112 670 -138 658 -173 658 c 0
 -206 658 -232 670 -252 692 c 0
 -273 713 -281 740 -281 770 c 0
 -281 802 -273 828 -252 848 c 0
 -235 870 -206 880 -173 880 c 0
-171 726 m 0
 -157 726 -148 731 -139 740 c 0
 -130 747 -128 758 -128 770 c 0
 -128 782 -130 793 -139 802 c 0
 -148 809 -157 812 -171 812 c 0
 -186 812 -194 809 -202 802 c 0
 -210 793 -213 782 -213 770 c 0
 -213 758 -210 747 -202 740 c 0
 -194 731 -186 726 -171 726 c 0
EndSplineSet
Substitution: 0 65534 'amaa' uni0E32
MultipleSubs: 0 65534 'G001' uni0E4D uni0E32
EndChar
StartChar: uni0E34
Encoding: 212 3636 181
Width: 0
Flags: W
HStem: 705 68<-358 -317>
AnchorPoint: "AboveMark" -120.35 965.7 basemark 0
AnchorPoint: "AboveBase" -60.9004 652.5 mark 0
Fore
-262 890 m 4
 -222 887 -187 877 -160 857 c 4
 -133 840 -113 816 -99 792 c 4
 -86 767 -75 741 -71 713 c 4
 -64 684 -59 664 -58 652 c 5
 -74 657 -99 666 -133 676 c 4
 -168 683 -209 692 -252 697 c 4
 -284 703 -320 705 -361 705 c 4
 -392 705 -420 703 -445 702 c 4
 -470 700 -487 697 -497 696 c 5
 -492 732 -478 766 -458 795 c 4
 -436 822 -410 845 -376 864 c 4
 -341 882 -303 890 -262 890 c 4
-262 824 m 5
 -293 824 -319 819 -341 808 c 4
 -364 796 -378 784 -384 770 c 5
 -378 771 -371 771 -358 773 c 4
 -347 773 -334 773 -319 773 c 4
 -303 773 -286 771 -261 770 c 4
 -229 767 -202 761 -184 757 c 4
 -164 751 -151 745 -145 742 c 5
 -170 790 -209 818 -262 824 c 5
EndSplineSet
EndChar
StartChar: uni0E35
Encoding: 213 3637 182
Width: 0
Flags: W
HStem: 708 69<-374 -325>
VStem: -162 84<854 953>
AnchorPoint: "AboveMark" -120.35 965.7 basemark 0
AnchorPoint: "AboveBase" -78.2998 652.5 mark 0
Fore
-278 893 m 0
 -246 893 -220 884 -203 877 c 0
 -183 867 -170 858 -162 854 c 1
 -162 953 l 5
 -78 953 l 1
 -78 726 l 1
 -74 726 -68 702 -58 652 c 1
 -77 657 -106 667 -146 679 c 0
 -187 690 -229 696 -267 702 c 0
 -297 706 -334 708 -374 708 c 0
 -399 708 -419 708 -435 706 c 0
 -484 702 l 0
 -500 700 -510 700 -512 700 c 1
 -508 735 -494 768 -473 798 c 0
 -451 828 -425 850 -390 867 c 0
 -357 884 -319 895 -278 893 c 0
-278 828 m 1
 -306 828 -332 822 -355 811 c 0
 -377 799 -393 786 -397 771 c 1
 -393 773 -384 773 -373 774 c 0
 -361 777 -347 777 -325 777 c 0
 -313 777 -297 774 -276 773 c 0
 -251 770 -232 767 -213 764 c 0
 -197 758 -184 755 -173 751 c 0
 -162 747 -158 745 -158 745 c 1
 -158 745 l 1
 -183 793 -222 819 -278 828 c 1
EndSplineSet
EndChar
StartChar: uni0E36
Encoding: 214 3638 183
Width: 0
Flags: W
HStem: 708 69<-371 -330> 828 65<-287 -276> 898 63<-160 -146>
VStem: -125 66<865 880>
AnchorPoint: "AboveMark" -153.7 965.7 basemark 0
AnchorPoint: "AboveBase" -60.9004 652.5 mark 0
Fore
-59 880 m 1
 -59 831 -74 799 -102 784 c 1
 -97 774 -88 758 -80 737 c 0
 -70 715 -62 686 -58 652 c 1
 -75 657 -106 667 -146 679 c 0
 -187 690 -229 696 -265 702 c 0
 -297 706 -334 708 -374 708 c 0
 -399 708 -419 708 -435 706 c 0
 -452 705 -467 703 -483 702 c 0
 -497 700 -508 700 -510 700 c 1
 -503 735 -490 768 -470 798 c 0
 -450 828 -423 850 -389 867 c 0
 -355 884 -318 893 -276 893 c 0
 -271 893 -264 893 -257 892 c 0
 -248 890 -245 890 -245 887 c 0
 -229 937 -197 961 -151 961 c 0
 -125 961 -104 956 -87 941 c 0
 -72 925 -62 905 -59 880 c 1
-277 828 m 1
 -306 828 -332 822 -355 811 c 0
 -378 799 -392 789 -397 773 c 1
 -392 774 -384 774 -371 777 c 0
 -360 777 -347 777 -332 777 c 0
 -320 777 -300 774 -274 773 c 0
 -244 770 -218 766 -197 760 c 0
 -177 754 -164 748 -158 745 c 1
 -183 793 -223 819 -277 828 c 1
-154 841 m 4
 -145 841 -138 844 -133 850 c 0
 -129 856 -125 861 -125 870 c 0
 -125 877 -126 883 -132 887 c 0
 -136 895 -145 898 -154 898 c 0
 -171 898 -181 887 -181 870 c 0
 -181 850 -171 841 -154 841 c 4
EndSplineSet
EndChar
StartChar: uni0E37
Encoding: 215 3639 184
Width: 0
Flags: W
HStem: 708 69<-374 -325> 828 65<-289 -274>
VStem: -160 82<850 953>
AnchorPoint: "AboveMark" -175.45 965.7 basemark 0
AnchorPoint: "AboveBase" -78.2998 652.5 mark 0
Fore
-160 850 m 1
 -160 953 l 1
 -78 953 l 1
 -78 726 l 1
 -74 726 -68 702 -58 652 c 1
 -77 657 -106 667 -146 679 c 0
 -187 690 -229 696 -267 702 c 0
 -297 706 -334 708 -374 708 c 0
 -399 708 -419 708 -435 706 c 0
 -484 702 l 0
 -500 700 -510 700 -512 700 c 1
 -493 779 -460 831 -415 856 c 0
 -371 880 -323 893 -274 893 c 5
 -274 953 l 5
 -197 953 l 1
 -197 873 l 1
 -194 871 -188 870 -181 866 c 0
 -173 860 -167 856 -160 850 c 1
-278 828 m 1
 -306 828 -332 822 -355 811 c 0
 -377 799 -393 786 -397 771 c 1
 -393 773 -384 773 -373 774 c 0
 -361 777 -347 777 -325 777 c 0
 -313 777 -297 774 -276 773 c 0
 -251 770 -232 767 -213 764 c 0
 -197 758 -184 755 -173 751 c 0
 -162 747 -158 745 -158 745 c 1
 -158 745 l 1
 -183 793 -222 819 -278 828 c 1
EndSplineSet
EndChar
StartChar: uni0E38
Encoding: 216 3640 185
Width: 0
Flags: W
HStem: -287 68<-206 -185> -133 68<-198.888 -185>
VStem: -300 68<-177 -166> -144 66<-186 -167>
AnchorPoint: "BelowBase" -78.2998 -65.25 mark 0
Fore
-78 -409 m 1
 -167 -409 l 1
 -167 -286 l 1
 -175 -287 -188 -287 -206 -287 c 0
 -226 -286 -242 -278 -257 -267 c 0
 -273 -255 -281 -242 -290 -226 c 0
 -297 -212 -300 -194 -300 -177 c 0
 -300 -148 -290 -122 -270 -100 c 0
 -251 -77 -223 -65 -187 -65 c 4
 -168 -65 -151 -68 -135 -77 c 0
 -117 -86 -104 -99 -96 -113 c 0
 -84 -129 -78 -148 -78 -167 c 2
 -78 -409 l 1
-188 -219 m 0
 -175 -219 -164 -215 -155 -206 c 0
 -148 -199 -144 -188 -144 -177 c 0
 -144 -165 -148 -154 -155 -146 c 0
 -164 -138 -174 -133 -188 -133 c 0
 -203 -133 -213 -138 -222 -146 c 0
 -229 -154 -232 -165 -232 -177 c 0
 -232 -188 -229 -199 -222 -206 c 0
 -213 -215 -202 -219 -188 -219 c 0
EndSplineSet
EndChar
StartChar: uni0E39
Encoding: 217 3641 186
Width: 0
Flags: W
HStem: -419 80<-200 -182> -287 68<-345 -323> -130 65<-337.548 -323>
VStem: -439 66<-180 -167> -312 94<-326 -287> -283 65<-180 -165> -167 89<-322.81 -74>
AnchorPoint: "BelowBase" -78.2998 -65.25 mark 0
Fore
-312 -326 m 2xfa
 -312 -286 l 1xfa
 -318 -287 -329 -287 -345 -287 c 0
 -365 -286 -381 -278 -396 -267 c 0
 -412 -255 -420 -242 -429 -226 c 0
 -436 -212 -439 -194 -439 -177 c 0
 -439 -148 -429 -122 -409 -100 c 0
 -390 -77 -362 -65 -326 -65 c 0
 -299 -65 -273 -75 -251 -93 c 0
 -229 -112 -218 -136 -218 -167 c 2xf6
 -218 -312 l 2
 -218 -329 -210 -339 -191 -339 c 0
 -175 -339 -167 -331 -167 -313 c 2
 -167 -74 l 1
 -78 -74 l 5
 -78 -326 l 2
 -78 -354 -90 -377 -115 -393 c 0
 -139 -412 -165 -419 -193 -419 c 0
 -222 -419 -249 -412 -274 -393 c 0
 -299 -377 -312 -354 -312 -326 c 2xfa
-328 -219 m 0
 -313 -219 -303 -215 -294 -204 c 0
 -287 -197 -283 -187 -283 -175 c 0xf6
 -283 -164 -287 -154 -294 -144 c 0
 -303 -136 -313 -130 -328 -130 c 0
 -342 -130 -352 -136 -361 -144 c 0
 -368 -154 -373 -164 -373 -175 c 0
 -373 -187 -368 -197 -361 -204 c 0
 -352 -215 -342 -219 -328 -219 c 0
EndSplineSet
EndChar
StartChar: uni0E3A
Encoding: 218 3642 187
Width: 0
Flags: W
AnchorPoint: "BelowBase" -78.2998 -65.25 mark 0
Fore
-133 -91 m 0
 -122 -91 -112 -96 -103 -100 c 0
 -96 -104 -88 -112 -84 -122 c 0
 -78 -129 -77 -139 -77 -149 c 0
 -77 -164 -81 -177 -91 -188 c 0
 -102 -200 -115 -204 -133 -204 c 0
 -151 -204 -164 -200 -174 -188 c 0
 -186 -177 -190 -164 -190 -149 c 0
 -190 -135 -186 -119 -174 -109 c 0
 -164 -97 -151 -91 -133 -91 c 0
EndSplineSet
EndChar
StartChar: uni0E3F
Encoding: 223 3647 189
Width: 671
Flags: W
HStem: 0 116<216 398> 291 116<216 385> 564 116<77 398>
VStem: 77 139<0 291 0 564> 303 65<-58 754> 468 135<484 502> 484 135<212 220>
Fore
77 0 m 1xfc
 77 680 l 1
 378 680 l 2
 403 680 432 676 465 667 c 0
 496 658 522 645 541 628 c 1
 560 613 576 596 583 581 c 0
 587 576 590 563 594 544 c 0
 600 525 602 509 603 502 c 0xfc
 603 477 597 454 587 429 c 0
 577 405 560 381 538 362 c 1
 558 348 577 326 592 302 c 0
 606 276 616 248 619 219 c 1xfa
 619 180 615 148 603 119 c 0
 592 91 574 67 550 46 c 0
 512 14 457 0 383 0 c 2
 77 0 l 1xfc
303 745 m 1
 368 754 l 1
 368 -58 l 1
 303 -58 l 1
 303 745 l 1
216 291 m 1
 216 116 l 1
 380 116 l 2
 407 116 432 122 454 133 c 0
 476 144 487 171 484 212 c 0xfa
 484 244 476 265 457 276 c 0
 439 287 415 291 383 291 c 2
 216 291 l 1
216 564 m 1
 216 407 l 1
 376 407 l 2
 405 407 428 415 444 429 c 0
 461 444 468 463 468 484 c 0xfc
 467 538 438 564 381 564 c 2
 216 564 l 1
EndSplineSet
EndChar
StartChar: uni0E40
Encoding: 224 3648 190
Width: 307
Flags: W
HStem: -7 68<186 192> 146 69<174 192>
VStem: 78 68<101 108> 232 67<101 106>
Fore
188 -7 m 0
 154 -7 126 4 106 26 c 0
 88 48 78 74 78 106 c 2
 78 557 l 1
 174 557 l 1
 174 215 l 1
 188 215 l 2
 225 215 252 202 270 184 c 0
 289 164 297 138 299 106 c 0
 299 75 290 48 270 26 c 0
 251 3 223 -7 188 -7 c 0
190 61 m 0
 203 61 213 64 222 72 c 0
 229 80 232 91 232 103 c 0
 232 115 229 126 223 135 c 0
 215 142 204 146 190 146 c 0
 177 146 165 141 157 133 c 0
 149 125 146 115 146 103 c 0
 146 91 151 81 160 74 c 0
 167 65 177 61 190 61 c 0
EndSplineSet
EndChar
StartChar: uni0E41
Encoding: 225 3649 191
Width: 569
Flags: W
HStem: -7 68<186 192 452 463> 146 69<174 192 438 463>
VStem: 78 68<101 108> 78 96<106 557> 232 67<101 106> 342 67<101 108> 342 96<106 557> 494 69<101 106>
Fore
188 -7 m 0xd9
 154 -7 126 4 106 26 c 0
 88 48 78 74 78 106 c 2xe9
 78 557 l 1
 174 557 l 1
 174 215 l 1
 188 215 l 2
 225 215 252 202 270 184 c 0
 289 164 297 138 299 106 c 0
 299 75 290 48 270 26 c 0
 251 3 223 -7 188 -7 c 0xd9
452 -7 m 0
 418 -7 390 4 373 26 c 0
 352 48 342 74 342 106 c 2xcd
 342 557 l 1
 438 557 l 1
 438 215 l 1xcb
 452 215 l 2
 487 215 513 202 531 181 c 0
 550 162 560 138 563 106 c 0
 563 75 552 48 532 26 c 0
 513 4 487 -7 452 -7 c 0
190 61 m 0
 203 61 213 64 222 72 c 0
 229 80 232 91 232 103 c 0
 232 115 229 126 223 135 c 0
 215 142 204 146 190 146 c 0
 177 146 165 141 157 133 c 0
 149 125 146 115 146 103 c 0xe9
 146 91 151 81 160 74 c 0
 167 65 177 61 190 61 c 0
452 61 m 0
 467 61 477 64 483 72 c 0
 492 80 494 91 494 103 c 0
 494 115 492 126 483 135 c 0
 477 142 467 146 452 146 c 0
 438 146 428 141 420 133 c 0
 413 125 409 115 409 103 c 0xcd
 409 91 413 81 420 74 c 0
 429 65 439 61 452 61 c 0
EndSplineSet
EndChar
StartChar: uni0E42
Encoding: 226 3650 192
Width: 385
Flags: W
HStem: -7 71<254 256> 142 73<239 256> 886 83<284 301> 931 80<137 148>
VStem: 144 71<101 108> 144 95<106 778> 293 71<101 106>
Fore
239 753 m 2xd6
 239 215 l 1xd6
 254 215 l 2
 290 215 318 202 336 181 c 0
 354 162 362 138 364 106 c 0
 364 75 354 48 336 26 c 0
 316 4 289 -7 254 -7 c 0
 219 -7 191 4 173 26 c 0
 154 48 144 74 144 106 c 2xda
 144 755 l 2
 144 779 142 795 141 805 c 0
 138 815 130 822 123 831 c 0
 113 840 99 847 77 857 c 0
 55 867 16 883 -38 906 c 1
 -33 915 -22 925 -4 941 c 0
 10 956 30 972 59 987 c 0
 87 1003 115 1011 146 1011 c 0xd6
 165 1011 180 1009 190 1006 c 0
 200 1000 216 995 241 985 c 0
 265 973 283 969 297 969 c 0
 315 969 332 976 354 992 c 1
 387 919 l 1
 357 898 328 886 299 886 c 0xe6
 277 886 251 893 222 906 c 0
 191 919 174 925 165 928 c 0
 154 929 148 931 142 931 c 0
 135 931 128 929 123 928 c 0
 117 924 116 922 115 921 c 1
 154 902 181 886 197 877 c 0
 212 866 222 853 229 834 c 0
 236 816 239 789 239 753 c 2xd6
254 64 m 0
 267 64 277 67 283 75 c 0
 290 84 293 91 293 103 c 0
 293 115 290 123 283 130 c 0
 277 139 267 142 254 142 c 0
 242 142 232 139 226 130 c 0
 218 123 215 115 215 103 c 0xca
 215 91 218 84 226 75 c 0
 232 67 242 64 254 64 c 0
EndSplineSet
EndChar
StartChar: uni0E43
Encoding: 227 3651 193
Width: 385
Flags: W
HStem: -7 71<244.966 258> 142 71<241 258> 745 66<40 52> 745 177<52 68> 942 74<97 114>
VStem: -46 66<837 856> 67 63<824 842> 144 72<101 108> 144 97<106 874> 294 71<101 106>
Fore
241 867 m 2xeec0
 241 213 l 1xeec0
 255 213 l 2
 290 213 318 200 336 181 c 0
 354 162 364 138 365 106 c 0
 365 75 355 48 338 26 c 0
 318 4 290 -7 255 -7 c 0
 219 -7 191 4 173 26 c 0
 154 48 144 75 144 106 c 2xef40
 144 869 l 2
 144 893 142 912 138 924 c 0
 133 935 122 942 102 942 c 0
 86 942 74 941 68 935 c 0
 62 931 58 925 55 922 c 1xdec0
 80 922 99 915 112 896 c 0
 125 879 130 856 130 824 c 1
 126 771 100 745 52 745 c 0
 30 745 13 751 -3 760 c 0
 -22 770 -33 783 -38 802 c 0
 -42 821 -46 840 -46 856 c 0
 -46 899 -30 937 -3 969 c 0
 25 999 59 1016 103 1016 c 0
 148 1016 181 1003 204 974 c 0
 229 947 241 911 241 867 c 2xeec0
255 64 m 0
 267 64 277 67 286 75 c 0
 291 84 294 91 294 103 c 0
 294 115 291 123 286 130 c 0
 277 139 267 142 255 142 c 0
 244 142 235 139 228 130 c 0
 219 123 216 115 216 103 c 0xcf40
 216 91 219 84 228 75 c 0
 235 67 244 64 255 64 c 0
42 864 m 0
 36 864 30 860 26 856 c 0
 22 850 20 844 20 837 c 0
 20 831 22 824 26 819 c 0
 30 815 36 811 42 811 c 0xee40
 59 811 67 819 67 837 c 0
 67 856 59 864 42 864 c 0
EndSplineSet
EndChar
StartChar: uni0E44
Encoding: 228 3652 194
Width: 439
Flags: W
HStem: -7 71<305 315> 142 73<294 315>
VStem: 200 70<101 108> 200 94<106 944> 349 70<101 106>
Fore
200 866 m 1xd8
 154 713 l 2
 146 684 129 670 103 670 c 0
 88 670 77 676 68 683 c 0
 61 693 52 708 48 728 c 2
 -4 921 l 2
 -10 941 -20 954 -38 961 c 1
 16 1016 l 1
 41 1006 55 987 64 960 c 1
 104 811 l 1
 152 970 l 1
 161 999 186 1014 222 1014 c 0
 242 1014 260 1008 274 996 c 0
 289 985 294 967 294 944 c 2
 294 215 l 1xd8
 307 215 l 2
 344 215 373 202 390 184 c 0
 407 164 418 138 419 106 c 0
 419 75 409 48 390 26 c 0
 370 4 342 -7 307 -7 c 0
 274 -7 246 4 228 26 c 0
 210 48 200 74 200 106 c 2xe8
 200 866 l 1xd8
310 64 m 0
 323 64 332 67 339 75 c 0
 345 84 349 91 349 103 c 0
 349 115 345 123 339 130 c 0
 332 139 323 142 310 142 c 0
 297 142 287 139 280 130 c 0
 274 123 270 115 270 103 c 0xe8
 270 91 274 84 280 75 c 0
 287 67 297 64 310 64 c 0
EndSplineSet
EndChar
StartChar: uni0E45
Encoding: 229 3653 195
Width: 484
Flags: W
HStem: 499 75<201 215>
VStem: 312 94<-290 423>
Fore
10 423 m 1
 20 458 41 493 72 526 c 0
 103 557 151 574 215 574 c 0
 283 571 332 557 362 529 c 0
 392 502 406 458 406 405 c 2
 406 -290 l 1
 312 -290 l 1
 312 406 l 2
 312 467 276 499 204 499 c 0
 148 499 110 465 91 400 c 1
 10 423 l 1
EndSplineSet
EndChar
StartChar: uni0E46
Encoding: 230 3654 196
Width: 645
Flags: W
HStem: 228 69<300 302> 355 71<300 302>
VStem: 329 70<324 331> 471 96<-38 426>
Fore
293 484 m 1
 276 477 264 464 257 447 c 0
 249 432 246 419 244 412 c 1
 248 413 254 416 264 420 c 0
 273 425 286 426 300 426 c 0
 331 426 355 418 374 400 c 0
 390 381 399 357 399 329 c 0
 399 302 390 277 374 257 c 0
 355 238 331 228 300 228 c 0
 260 229 226 244 200 273 c 0
 174 300 160 336 157 383 c 0
 157 428 171 468 199 505 c 0
 225 539 257 560 297 568 c 1
 310 563 326 554 344 545 c 0
 362 536 373 529 373 528 c 1
 436 568 l 1
 483 560 516 541 538 513 c 0
 557 484 567 447 567 403 c 2
 567 -30 l 2
 567 -84 550 -125 513 -154 c 0
 476 -184 429 -203 374 -213 c 1
 349 -129 l 1
 354 -128 370 -122 399 -113 c 0
 425 -104 444 -96 455 -81 c 0
 467 -71 471 -51 471 -25 c 2
 471 393 l 2
 471 419 470 439 465 451 c 0
 461 464 451 476 436 484 c 1
 373 444 l 1
 373 444 l 1
 373 444 362 450 342 458 c 0
 323 470 306 478 293 484 c 1
300 297 m 0
 307 297 316 300 320 306 c 0
 326 312 329 318 329 326 c 0
 329 335 328 342 323 348 c 0
 318 352 310 355 300 355 c 0
 290 355 281 352 277 348 c 0
 273 342 270 335 270 326 c 0
 270 318 274 312 278 306 c 0
 283 300 291 297 300 297 c 0
EndSplineSet
EndChar
StartChar: uni0E47
Encoding: 231 3655 197
Width: 0
Flags: W
HStem: 655 63<-176.44 -158> 740 76<-334 -323> 771 61<-167 -158> 845 71<-250 -210>
VStem: -484 84<779 803> -141 63<745 749> -139 80<973.076 991.937>
AnchorPoint: "AboveBase" -78.2998 652.5 mark 0
AnchorPoint: "AboveMark" -281.3 652.5 mark 0
Fore
-167 655 m 0xbc
 -184 655 -199 660 -212 668 c 0
 -226 677 -241 686 -257 700 c 0
 -276 715 -289 724 -299 731 c 0
 -307 735 -319 740 -332 740 c 0
 -344 740 -354 729 -362 710 c 0
 -370 692 -374 671 -374 652 c 1
 -396 652 l 1
 -420 664 -441 684 -458 716 c 0
 -477 744 -484 773 -484 803 c 0
 -484 821 -481 835 -477 847 c 0
 -465 874 -447 895 -425 906 c 0
 -403 918 -373 922 -332 922 c 0
 -325 922 -318 922 -313 922 c 0
 -307 922 -303 922 -299 921 c 0
 -268 918 -242 916 -219 916 c 0
 -191 916 -171 921 -160 931 c 0
 -146 942 -139 961 -139 992 c 1
 -59 992 l 1
 -59 938 -72 903 -99 880 c 0
 -123 858 -167 845 -229 845 c 0
 -260 845 -281 847 -300 848 c 0
 -338 848 -364 844 -378 835 c 0
 -393 826 -400 806 -400 779 c 1
 -399 784 -392 793 -380 803 c 0
 -368 811 -351 816 -325 816 c 0xda
 -303 816 -286 812 -274 805 c 0
 -261 796 -252 789 -248 783 c 1
 -236 816 -210 832 -167 832 c 0
 -139 832 -116 824 -102 808 c 0
 -87 793 -78 771 -78 745 c 4
 -78 721 -87 700 -103 682 c 0
 -119 664 -141 655 -167 655 c 0xbc
-167 718 m 0
 -149 718 -141 728 -141 745 c 0
 -141 754 -142 760 -148 766 c 0
 -152 770 -160 771 -167 771 c 0xbc
 -175 771 -184 768 -188 764 c 0
 -193 758 -194 753 -194 745 c 0
 -194 728 -186 718 -167 718 c 0
EndSplineSet
EndChar
StartChar: uni0E48
Encoding: 232 3656 198
Width: 0
Flags: W
VStem: -164 86<1014 1206>
AnchorPoint: "AboveMark" -121.8 965.7 mark 0
Fore
-164 1014 m 1
 -164 1206 l 1
 -78 1206 l 1
 -78 1014 l 1
 -164 1014 l 1
EndSplineSet
Substitution: 0 65534 'loww' uni0E48.low
MultipleSubs: 0 65534 'amtn' uni0E4D uni0E48
EndChar
StartChar: uni0E49
Encoding: 233 3657 199
Width: 0
Flags: W
HStem: 1037 58<-225 -218> 1150 58<-227 -214>
VStem: -302 56<1116 1126> -190 62<1116 1126>
AnchorPoint: "AboveMark" -131.95 965.7 mark 0
Fore
-128 1116 m 0
 -129 1088 -133 1070 -138 1058 c 0
 -142 1047 -148 1038 -152 1037 c 1
 -149 1037 -141 1038 -129 1043 c 0
 -117 1045 -106 1050 -93 1058 c 0
 -81 1067 -72 1076 -64 1088 c 0
 -52 1106 -46 1122 -45 1137 c 0
 -42 1151 -41 1173 -41 1201 c 1
 38 1201 l 1
 38 1099 4 1031 -62 999 c 0
 -103 980 -148 972 -191 972 c 0
 -206 972 -222 973 -232 974 c 0
 -244 976 -251 976 -255 979 c 1
 -255 1006 l 1
 -251 1008 -244 1012 -238 1018 c 0
 -231 1022 -226 1030 -225 1037 c 1
 -226 1037 -236 1038 -251 1044 c 0
 -265 1048 -277 1057 -287 1072 c 0
 -297 1086 -302 1102 -302 1124 c 0
 -302 1147 -293 1167 -277 1183 c 0
 -262 1199 -241 1208 -216 1208 c 0
 -188 1208 -165 1198 -151 1180 c 0
 -136 1160 -128 1138 -128 1116 c 0
-218 1095 m 0
 -210 1095 -202 1098 -197 1102 c 0
 -191 1108 -190 1114 -190 1122 c 0
 -190 1131 -193 1137 -199 1143 c 0
 -203 1147 -210 1150 -218 1150 c 0
 -236 1150 -246 1140 -246 1122 c 0
 -246 1116 -242 1109 -238 1102 c 0
 -232 1098 -226 1095 -218 1095 c 0
EndSplineSet
Substitution: 0 65534 'loww' uni0E49.low
MultipleSubs: 0 65534 'amtn' uni0E4D uni0E49
EndChar
StartChar: uni0E4A
Encoding: 234 3658 200
Width: 0
Flags: W
HStem: 967 47<-330 -322> 1057 48<-330 -318> 1132 57<-326 -310 -218 -203>
VStem: -306 51<1026 1041> -181 62<1074 1096> -80 64<1132 1150>
AnchorPoint: "AboveMark" -233.45 965.7 mark 0
Fore
-326 967 m 0
 -354 967 -376 979 -393 1003 c 0
 -412 1028 -420 1056 -419 1086 c 0
 -419 1116 -407 1140 -393 1160 c 0
 -377 1180 -354 1189 -326 1189 c 0
 -307 1189 -293 1186 -283 1180 c 0
 -274 1172 -267 1167 -264 1161 c 1
 -261 1167 -252 1172 -241 1180 c 0
 -231 1186 -218 1189 -203 1189 c 0
 -175 1189 -155 1182 -141 1164 c 0
 -126 1147 -119 1124 -119 1096 c 0
 -119 1076 -122 1063 -125 1057 c 0
 -128 1048 -133 1038 -139 1025 c 1
 -135 1028 -129 1032 -122 1038 c 0
 -113 1044 -104 1051 -100 1063 c 0
 -88 1088 -81 1111 -80 1132 c 0
 -80 1144 -81 1157 -86 1170 c 1
 -23 1193 l 1
 -17 1177 -16 1163 -16 1148 c 0
 -16 1105 -29 1064 -51 1034 c 0
 -67 1011 -86 996 -113 990 c 0
 -141 982 -175 976 -213 976 c 5
 -213 982 -213 986 -213 990 c 0
 -213 993 -213 996 -215 1000 c 1
 -210 1006 -203 1014 -194 1025 c 0
 -187 1038 -181 1056 -181 1074 c 0
 -181 1092 -184 1105 -187 1114 c 0
 -191 1124 -202 1130 -216 1130 c 0
 -228 1130 -236 1127 -241 1122 c 0
 -248 1118 -252 1112 -255 1109 c 1
 -255 1109 l 1
 -255 1111 -261 1114 -273 1121 c 0
 -283 1130 -297 1132 -312 1132 c 0
 -336 1132 -349 1121 -351 1099 c 1
 -349 1101 -345 1101 -341 1102 c 0
 -336 1105 -329 1105 -318 1105 c 0
 -299 1102 -283 1096 -273 1083 c 0
 -261 1069 -255 1051 -255 1031 c 0
 -255 1014 -262 999 -276 986 c 0
 -290 973 -307 967 -326 967 c 0
-328 1057 m 0
 -342 1057 -351 1050 -351 1035 c 0
 -351 1021 -342 1014 -328 1014 c 0
 -313 1014 -306 1021 -306 1035 c 0
 -306 1050 -313 1057 -328 1057 c 0
EndSplineSet
Substitution: 0 65534 'loww' uni0E4A.low
MultipleSubs: 0 65534 'amtn' uni0E4D uni0E4A
EndChar
StartChar: uni0E4B
Encoding: 235 3659 201
Width: 0
Flags: W
HStem: 1056 75<-242 -161 -78 3>
VStem: -161 83<985 1056 1131 1202>
AnchorPoint: "AboveMark" -120.35 965.7 mark 0
Fore
-161 1056 m 1
 -242 1056 l 1
 -242 1131 l 1
 -161 1131 l 1
 -161 1202 l 1
 -78 1202 l 1
 -78 1131 l 1
 3 1131 l 1
 3 1056 l 5
 -78 1056 l 1
 -78 985 l 1
 -161 985 l 1
 -161 1056 l 1
EndSplineSet
Substitution: 0 65534 'loww' uni0E4B.low
MultipleSubs: 0 65534 'amtn' uni0E4D uni0E4B
EndChar
StartChar: uni0E4C
Encoding: 236 3660 202
Width: 0
Flags: W
HStem: 928 55<-248 -240> 1037 55<-248 -239>
VStem: -349 73<1011 1028> -222 60<1011 1019>
AnchorPoint: "AboveMark" -247.95 928 mark 0
Fore
-122 1101 m 0
 -162 1095 -190 1095 -206 1093 c 0
 -225 1092 -236 1092 -241 1092 c 0
 -216 1092 -199 1085 -184 1070 c 0
 -171 1056 -162 1037 -162 1016 c 0
 -161 992 -168 972 -184 956 c 0
 -199 937 -218 928 -242 928 c 4
 -276 925 -302 937 -319 956 c 0
 -339 973 -349 996 -349 1028 c 0
 -349 1082 -328 1119 -286 1138 c 0
 -265 1147 -239 1154 -204 1156 c 0
 -171 1157 -148 1161 -133 1167 c 0
 -117 1172 -112 1186 -112 1209 c 1
 -42 1209 l 1
 -42 1182 -49 1157 -62 1138 c 0
 -74 1119 -93 1105 -122 1101 c 0
-248 1037 m 0
 -265 1037 -276 1030 -276 1011 c 0
 -276 993 -265 983 -248 983 c 0
 -239 983 -232 986 -228 992 c 0
 -223 996 -222 1003 -222 1011 c 0
 -222 1019 -223 1024 -228 1030 c 0
 -232 1034 -239 1037 -248 1037 c 0
EndSplineSet
Substitution: 0 65534 'loww' uni0E4C.low
MultipleSubs: 0 65534 'amtn' uni0E4D uni0E4C
EndChar
StartChar: uni0E4D
Encoding: 237 3661 203
Width: 0
Flags: W
HStem: 658 68<-208.5 -174> 812 68<-208.5 -174>
VStem: -303 68<755.5 784.5> -149 68<755.5 784.5>
AnchorPoint: "AboveMark" -191.4 965.7 basemark 0
AnchorPoint: "AboveBase" -78.2998 652.5 mark 0
Fore
-191 880 m 0
 -157 880 -129 869 -110 847 c 0
 -91 826 -81 799 -81 770 c 0
 -81 741 -91 715 -112 692 c 0
 -130 670 -157 658 -191 658 c 0
 -226 658 -254 670 -274 692 c 0
 -293 715 -303 741 -303 770 c 0
 -303 799 -293 826 -274 847 c 0
 -254 869 -226 880 -191 880 c 0
-191 726 m 0
 -178 726 -168 731 -161 740 c 0
 -152 747 -149 758 -149 770 c 0
 -149 782 -152 792 -161 799 c 0
 -168 808 -178 812 -191 812 c 0
 -204 812 -215 809 -223 802 c 0
 -231 793 -235 782 -235 770 c 0
 -235 758 -231 747 -223 740 c 0
 -215 731 -204 726 -191 726 c 0
EndSplineSet
Substitution: 0 65534 'high' uni0E4D.high
EndChar
StartChar: uni0E4E
Encoding: 238 3662 204
Width: 0
VWidth: 2048
Flags: W
HStem: 735 64<-299 -276> 902 90<-274 -258> 1003 82<-126 -100>
VStem: -412 99<845 853> -231 74<944 985>
AnchorPoint: "AboveBase" -78.2998 652.5 mark 0
Fore
-13 956 m 1
 -25 958 l 2
 -30 961 -36 966 -39 970 c 0
 -48 980 -55 987 -62 993 c 0
 -72 999 -86 1003 -100 1003 c 0
 -115 1003 -128 998 -138 990 c 0
 -151 980 -157 963 -157 944 c 0
 -157 932 -152 919 -144 905 c 0
 -139 902 -138 893 -138 882 c 0
 -138 874 -142 869 -151 861 c 0
 -157 856 -164 854 -171 854 c 0
 -181 854 -193 860 -200 873 c 0
 -209 886 -216 893 -226 896 c 0
 -232 899 -244 902 -260 902 c 0
 -274 902 -286 896 -297 887 c 0
 -307 879 -313 864 -313 847 c 0
 -313 832 -307 822 -302 815 c 0
 -293 805 -286 799 -276 799 c 0
 -262 799 -252 803 -244 808 c 1
 -228 826 l 1
 -200 815 l 1
 -206 773 l 1
 -229 748 -261 735 -299 735 c 0
 -332 735 -361 747 -381 770 c 0
 -403 792 -412 819 -412 853 c 1
 -409 883 l 1
 -409 884 l 1
 -407 895 -403 906 -396 918 c 0
 -383 941 -365 957 -344 972 c 0
 -323 985 -300 992 -274 992 c 0
 -261 992 -246 990 -231 985 c 1
 -231 1012 -222 1035 -202 1056 c 0
 -180 1074 -154 1085 -126 1085 c 0
 -102 1085 -78 1080 -59 1072 c 0
 -38 1061 -22 1048 -7 1028 c 0
 -3 1024 0 1016 4 1003 c 0
 10 995 12 986 12 980 c 0
 12 963 3 956 -13 956 c 1
EndSplineSet
EndChar
StartChar: uni0E4F
Encoding: 239 3663 205
Width: 590
VWidth: 2048
Flags: W
HStem: 0 71<278 302> 138 74<268 286> 425 65<268 286> 558 71<278 302>
VStem: -35 70<315 337> 103 70<303 320> 381 73<303 320> 525 68<315 337>
Fore
277 425 m 4
 219 425 173 376 173 318 c 0
 173 260 219 212 277 212 c 0
 336 212 381 260 381 318 c 4
 381 376 336 425 277 425 c 4
278 0 m 0
 181 0 104 30 49 93 c 0
 -7 157 -35 231 -35 315 c 0
 -35 402 -7 476 48 538 c 0
 102 597 178 629 278 629 c 0
 344 629 403 615 451 584 c 1
 500 554 534 515 557 468 c 0
 580 420 593 370 593 315 c 0
 593 260 580 206 557 161 c 0
 534 115 500 75 451 45 c 1
 403 14 344 0 278 0 c 0
278 558 m 0
 202 558 141 534 100 487 c 0
 55 438 35 378 35 315 c 0
 35 273 42 232 62 194 c 0
 80 157 109 128 146 104 c 1
 180 81 226 71 278 71 c 0
 331 71 377 81 413 104 c 0
 452 129 480 161 500 197 c 0
 516 231 525 273 525 315 c 0
 525 380 503 438 461 487 c 0
 418 534 357 558 278 558 c 0
278 138 m 0
 242 138 210 146 181 162 c 0
 154 180 136 203 123 229 c 0
 110 257 103 286 103 315 c 0
 103 342 110 373 123 400 c 0
 135 426 154 447 181 465 c 0
 212 481 242 490 278 490 c 0
 315 490 345 481 376 465 c 0
 403 447 420 426 434 400 c 0
 447 373 454 342 454 315 c 0
 454 267 439 226 409 190 c 0
 377 155 332 138 278 138 c 0
EndSplineSet
EndChar
StartChar: uni0E50
Encoding: 240 3664 206
Width: 572
Flags: W
HStem: -7 84<290 312> 318 85<290 296>
VStem: 55 99<199 201> 428 98<184 201>
Fore
290 -7 m 0
 216 -7 160 14 117 55 c 0
 77 97 55 144 55 199 c 0
 55 232 64 267 81 299 c 0
 100 329 126 355 162 376 c 0
 199 393 241 403 290 403 c 0
 339 403 381 393 418 376 c 0
 454 355 481 329 500 299 c 0
 518 267 526 232 526 199 c 0
 526 164 516 129 499 99 c 0
 480 67 454 42 418 23 c 0
 383 4 341 -7 290 -7 c 0
290 318 m 0
 248 318 215 306 190 281 c 0
 165 257 154 229 154 199 c 0
 154 165 165 138 190 113 c 0
 213 88 246 77 290 77 c 0
 332 77 367 88 392 113 c 0
 416 138 428 165 428 197 c 0
 428 229 416 257 392 281 c 0
 367 306 332 318 290 318 c 0
EndSplineSet
EndChar
StartChar: uni0E51
Encoding: 241 3665 207
Width: 587
Flags: W
HStem: 213 76<289 289 289.031 298.108>
VStem: 59 90<184 204> 180 77<179 186> 320 80<172 186> 445 94<180 186>
Fore
149 202 m 0
 149 173 157 149 173 130 c 0
 188 113 203 103 218 103 c 1
 212 104 203 112 194 123 c 0
 187 135 181 152 180 180 c 0
 180 209 190 235 212 255 c 0
 232 277 257 289 289 289 c 0
 326 290 355 277 374 255 c 0
 392 235 400 209 400 174 c 0
 400 129 386 91 357 62 c 0
 329 30 289 16 236 16 c 1
 181 22 139 39 106 72 c 0
 74 104 59 149 59 204 c 0
 59 244 68 280 90 313 c 0
 112 345 139 373 175 390 c 0
 210 407 248 418 289 418 c 0
 368 416 431 394 474 354 c 0
 516 312 539 254 539 180 c 0
 541 87 496 9 412 -55 c 1
 352 3 l 1
 380 25 402 51 419 81 c 0
 438 113 445 146 445 180 c 0
 445 210 439 236 428 257 c 0
 416 280 399 297 374 310 c 0
 351 320 323 329 289 329 c 0
 248 329 215 318 190 293 c 0
 164 268 151 239 149 202 c 0
289 213 m 0
 280 213 273 210 267 203 c 0
 261 197 257 190 257 181 c 0
 257 174 261 167 267 160 c 0
 273 152 278 149 289 149 c 0
 300 149 307 152 313 160 c 0
 318 165 320 174 320 181 c 0
 320 190 318 199 312 204 c 0
 306 210 299 213 289 213 c 0
EndSplineSet
EndChar
StartChar: uni0E52
Encoding: 242 3666 208
Width: 698
Flags: W
HStem: 0 86<245 494> 106 71<300 307> 251 68<302 317> 331 85<505 526>
VStem: 78 96<172 465> 187 86<214 232> 345 70<209 217> 542 97<133 295>
Fore
418 274 m 1
 393 315 367 335 339 335 c 0
 329 335 320 332 315 329 c 0
 310 325 304 320 302 319 c 1
 325 319 344 315 362 304 c 0
 378 294 392 281 402 264 c 0
 409 248 415 229 415 209 c 0
 413 177 402 152 383 135 c 0
 365 116 338 106 303 106 c 0
 270 106 242 117 222 142 c 0
 199 167 187 197 187 232 c 0
 187 286 202 329 229 364 c 0
 257 399 293 416 335 416 c 0
 362 416 386 409 400 399 c 0
 415 387 423 377 428 368 c 1
 432 377 442 387 457 399 c 0
 471 409 494 416 526 416 c 0
 568 416 597 403 615 377 c 0
 631 352 639 325 639 293 c 2
 639 129 l 2
 639 86 628 54 606 33 c 0
 584 12 545 0 492 0 c 2
 264 0 l 2
 194 0 148 13 119 41 c 0
 91 68 78 113 78 174 c 2
 78 451 l 2
 78 471 75 490 71 503 c 0
 65 516 55 529 38 541 c 1
 110 600 l 1
 128 590 144 576 155 555 c 0
 167 534 174 512 174 484 c 2
 174 194 l 2
 174 155 178 128 188 110 c 0
 200 93 225 86 262 86 c 2
 476 86 l 2
 503 86 522 90 531 100 c 0
 539 110 542 128 542 154 c 2
 542 274 l 2
 542 294 541 310 536 318 c 0
 531 326 519 331 505 331 c 0
 490 331 480 328 471 320 c 0
 464 313 458 304 455 293 c 0
 452 281 451 277 450 276 c 2
 418 274 l 1
307 251 m 0
 297 251 287 248 280 239 c 0
 276 232 273 225 273 215 c 0
 273 204 276 197 281 188 c 0
 287 180 297 177 307 177 c 0
 332 178 345 190 345 213 c 0
 345 223 342 231 336 239 c 0
 329 248 319 251 307 251 c 0
EndSplineSet
EndChar
StartChar: uni0E53
Encoding: 243 3667 209
Width: 678
Flags: W
HStem: -3 74<185 195> 142 76<193 195> 329 87<468 478>
VStem: 61 99<212 238> 229 74<98 106> 316 96<0 254> 529 93<172 204>
Fore
238 335 m 0
 186 335 160 293 160 212 c 0
 160 213 162 213 167 215 c 0
 171 216 178 218 193 218 c 0
 228 218 255 206 274 184 c 0
 293 161 304 133 303 100 c 0
 303 68 291 45 270 26 c 0
 249 7 222 -3 187 -3 c 0
 103 -3 59 71 61 219 c 0
 61 252 68 283 81 315 c 0
 97 345 116 370 141 389 c 0
 165 406 193 416 228 416 c 0
 268 416 300 407 320 392 c 0
 342 377 355 364 361 352 c 1
 361 355 364 362 373 374 c 0
 378 383 390 393 406 403 c 0
 420 412 442 416 468 416 c 0
 526 416 566 394 589 351 c 0
 610 306 625 252 622 188 c 0
 621 104 606 41 581 0 c 1
 483 0 l 1
 494 14 506 42 515 84 c 0
 525 125 529 164 529 204 c 0
 529 242 525 273 515 294 c 0
 505 318 490 329 468 329 c 0
 445 329 431 320 423 306 c 0
 415 291 412 267 412 236 c 2
 412 0 l 1
 316 0 l 1
 316 239 l 2
 316 267 310 290 294 307 c 0
 280 326 262 335 238 335 c 0
193 142 m 0
 181 142 173 139 167 133 c 0
 161 125 157 116 157 106 c 0
 157 99 161 90 167 81 c 0
 173 74 181 71 193 71 c 0
 204 71 213 74 219 81 c 0
 226 90 229 99 229 106 c 0
 229 116 226 125 222 133 c 0
 215 139 204 142 193 142 c 0
EndSplineSet
EndChar
StartChar: uni0E54
Encoding: 244 3668 210
Width: 691
Flags: W
HStem: 0 91<267 312> 235 78<339 351> 331 88<293 327>
VStem: 54 98<194 211> 232 78<202 209> 376 76<194 209>
Fore
152 200 m 0
 152 157 171 128 202 113 c 0
 232 99 268 91 312 91 c 1
 283 100 264 113 251 133 c 0
 239 151 232 174 232 202 c 0
 232 229 242 254 261 278 c 0
 278 302 304 313 341 313 c 0
 377 313 405 302 423 278 c 0
 442 254 452 229 452 204 c 0
 452 180 447 164 439 152 c 0
 431 141 423 135 418 130 c 1
 432 119 452 112 476 110 c 0
 496 109 521 104 547 102 c 0
 574 97 602 87 631 71 c 1
 594 -13 l 1
 583 -3 567 4 544 12 c 0
 521 16 496 20 470 20 c 0
 445 20 413 16 376 10 c 0
 338 3 302 0 267 0 c 0
 239 0 213 4 188 13 c 0
 164 22 141 35 119 52 c 0
 99 71 84 91 72 117 c 0
 61 142 54 174 54 209 c 0
 54 246 64 281 84 315 c 0
 103 345 133 373 171 392 c 0
 209 409 254 419 304 419 c 0
 315 419 331 418 355 416 c 0
 402 412 431 409 444 409 c 0
 481 412 512 418 532 431 c 0
 554 442 568 465 580 499 c 0
 592 531 597 577 602 638 c 1
 693 628 l 1
 693 606 692 581 689 554 c 0
 684 526 679 493 667 457 c 0
 655 420 638 393 616 374 c 0
 577 338 529 319 476 319 c 0
 458 319 438 320 412 325 c 0
 387 326 365 328 349 329 c 0
 341 331 331 331 316 331 c 0
 268 331 229 320 199 302 c 0
 167 280 151 248 152 200 c 0
342 167 m 0
 364 167 376 178 376 202 c 0
 376 210 373 218 367 225 c 0
 362 231 354 235 342 235 c 0
 331 235 323 231 318 225 c 0
 313 216 310 210 310 202 c 0
 310 193 313 186 318 177 c 0
 323 171 331 167 342 167 c 0
EndSplineSet
EndChar
StartChar: uni0E55
Encoding: 245 3669 211
Width: 711
Flags: W
HStem: 0 91<270 315> 235 78<342 355> 319 90<455 478> 331 84<320 349> 480 80<342 351>
VStem: 58 97<194 211> 236 76<202 209> 378 77<194 211> 383 80<445 452>
Fore
455 409 m 1xef
 529 409 574 444 589 515 c 0
 596 554 602 594 605 638 c 1
 696 628 l 1
 696 619 695 605 693 581 c 0
 692 558 689 534 683 509 c 0
 679 484 671 461 660 436 c 0
 651 412 638 390 619 374 c 0
 580 338 532 319 478 319 c 0xef
 461 319 441 320 416 325 c 0
 392 326 373 328 354 329 c 0
 345 331 336 331 320 331 c 0
 273 331 232 320 203 302 c 0
 173 280 154 248 155 200 c 0
 155 157 174 129 204 115 c 0
 236 100 273 91 315 91 c 1
 287 100 267 113 254 133 c 0
 242 151 236 174 236 202 c 0
 236 229 246 254 264 278 c 0
 281 302 307 313 344 313 c 0
 380 313 407 302 426 278 c 0
 445 254 455 229 455 204 c 0
 455 180 451 164 442 152 c 0
 434 141 426 135 420 130 c 1
 436 119 455 112 478 110 c 0
 500 109 525 104 551 102 c 0
 577 97 605 87 634 71 c 1
 597 -13 l 1
 587 -4 570 3 547 10 c 0
 525 16 500 20 474 20 c 0
 450 20 416 16 378 10 c 0xdf
 341 3 304 0 270 0 c 0
 242 0 216 4 191 13 c 0
 167 22 144 35 123 52 c 0
 102 71 87 91 75 117 c 0
 64 142 58 174 58 209 c 0
 58 281 80 332 128 362 c 0
 174 392 212 407 242 413 c 1
 239 426 238 438 238 450 c 0
 238 481 249 508 273 529 c 0
 293 551 319 560 351 560 c 0
 383 558 409 550 431 528 c 0
 452 506 463 480 463 450 c 0xde80
 463 436 461 423 455 409 c 1xef
345 167 m 0
 367 167 378 178 378 202 c 0
 378 210 376 218 370 225 c 0
 365 231 357 235 345 235 c 0
 335 235 326 231 319 225 c 0
 315 216 312 210 312 202 c 0
 312 178 323 167 345 167 c 0
349 415 m 0xde80
 361 415 368 418 376 425 c 0
 380 431 383 439 383 447 c 0
 383 457 380 465 376 471 c 1
 368 477 361 480 349 480 c 0
 339 480 331 477 325 470 c 0
 319 464 316 455 316 447 c 0
 316 439 319 432 325 425 c 0
 331 418 339 415 349 415 c 0xde80
EndSplineSet
EndChar
StartChar: uni0E56
Encoding: 246 3670 212
Width: 508
Flags: W
HStem: -7 21G<232.5 276.5> 177 78<194 202> 344 94<251 297>
VStem: 81 80<134 148> 229 81<134 154> 394 96<200 234>
Fore
299 90 m 1
 303 90 313 96 328 103 c 0
 344 113 358 128 374 146 c 0
 389 164 394 188 394 216 c 0
 393 260 381 291 358 313 c 0
 336 335 300 345 251 344 c 0
 223 344 199 336 180 325 c 0
 161 313 148 304 141 297 c 1
 104 297 l 1
 103 325 99 357 88 394 c 0
 78 432 67 470 52 508 c 0
 38 544 23 574 10 596 c 1
 91 635 l 1
 103 619 116 584 135 534 c 0
 152 481 165 441 174 409 c 1
 216 428 257 438 297 438 c 0
 338 438 373 429 402 407 c 0
 429 389 452 361 467 328 c 0
 481 293 490 257 490 218 c 0
 490 141 465 86 415 49 c 0
 364 12 307 -7 246 -7 c 0
 219 -7 194 0 171 12 c 0
 146 23 125 39 106 61 c 0
 90 81 81 109 81 136 c 0
 81 167 91 194 112 219 c 0
 130 244 161 257 199 255 c 0
 219 255 239 249 255 239 c 0
 274 231 287 218 294 203 c 0
 303 188 307 173 310 154 c 0
 310 133 307 116 306 109 c 0
 303 100 300 93 299 90 c 1
194 109 m 0
 206 109 215 112 222 119 c 0
 226 126 229 135 229 142 c 0
 229 165 218 177 194 177 c 0
 173 177 161 165 161 142 c 0
 161 135 164 126 171 119 c 0
 175 112 184 109 194 109 c 0
EndSplineSet
EndChar
StartChar: uni0E57
Encoding: 247 3671 213
Width: 703
Flags: W
HStem: -12 74<195 207> 128 75<195 208> 316 83<195 208>
VStem: 39 94<196 224> 231 73<96 104> 450 89<206 240> 560 91<397 448> 566 89<238 300>
Fore
503 102 m 1xfd
 528 113 544 130 552 160 c 0
 560 187 566 222 566 264 c 0
 566 276 566 287 566 300 c 0xfd
 564 312 564 335 563 367 c 0
 560 399 560 420 560 432 c 0
 560 519 577 580 609 616 c 1
 622 608 635 603 648 594 c 0
 663 589 676 580 689 571 c 1
 664 542 651 493 651 425 c 0xfe
 651 413 652 399 652 383 c 0
 652 368 654 355 654 342 c 0
 654 329 654 318 655 310 c 0
 655 302 655 290 655 273 c 0
 655 228 651 188 642 154 c 0
 634 119 618 90 594 65 c 0
 576 45 550 28 516 13 c 0
 483 -1 457 -13 436 -17 c 1
 381 41 l 1
 396 52 407 68 418 90 c 0
 428 110 436 130 441 154 c 0
 445 175 450 199 450 222 c 0
 450 249 444 273 436 290 c 0
 428 307 413 316 393 316 c 0
 355 316 338 286 338 223 c 1
 262 223 l 1
 261 246 254 267 244 287 c 0
 236 306 222 316 203 316 c 0
 181 316 165 304 152 280 c 0
 139 255 133 232 133 210 c 0
 133 199 135 188 138 184 c 1
 139 187 144 191 152 197 c 0
 161 202 177 203 202 203 c 0
 235 203 261 193 278 173 c 0
 297 151 304 126 304 96 c 0
 304 64 294 39 277 20 c 0
 257 -1 231 -12 197 -12 c 0
 164 -12 136 0 112 22 c 0
 87 42 68 68 58 103 c 0
 46 136 39 171 39 209 c 0
 39 241 48 273 62 303 c 0
 77 331 99 355 125 374 c 0
 149 390 177 399 206 399 c 0
 238 399 261 392 274 380 c 0
 287 368 294 357 299 349 c 1
 303 357 313 368 328 381 c 0
 342 394 365 402 396 402 c 0
 429 402 457 393 478 376 c 0
 500 357 516 336 525 312 c 0
 534 287 539 260 539 229 c 0
 539 204 536 184 531 164 c 0
 525 144 518 128 513 116 c 0
 508 106 505 102 503 102 c 1
 503 102 l 1xfd
199 62 m 0
 209 62 216 65 223 72 c 0
 228 78 231 87 231 96 c 0
 231 103 228 110 223 117 c 0
 216 125 209 128 199 128 c 0
 188 128 180 125 175 117 c 0
 171 112 167 103 167 96 c 0
 167 87 171 78 175 72 c 0
 180 65 188 62 199 62 c 0
EndSplineSet
EndChar
StartChar: uni0E58
Encoding: 248 3672 214
Width: 669
Flags: W
HStem: -13 80<449 476> -13 161<465 484> 0 213<226 243.749> 213 76<474 491> 302 85<453 491> 318 87<275 311>
VStem: 54 95<189 212> 376 75<180 189> 515 95<129 180>
Fore
349 146 m 0x3780
 390 93 428 67 461 67 c 0
 465 67 470 67 476 68 c 0
 478 71 480 72 481 74 c 1
 451 74 426 86 406 106 c 0
 386 128 374 154 376 187 c 0
 376 215 389 238 409 260 c 0
 431 278 455 289 483 289 c 0
 508 289 531 280 551 265 c 0
 570 251 584 229 596 204 c 0
 606 180 610 155 610 129 c 0
 610 88 597 54 570 28 c 0
 542 0 506 -13 465 -13 c 0x9380
 432 -13 403 -7 378 4 c 0
 354 17 323 46 287 87 c 0
 273 104 262 113 255 113 c 0
 248 113 244 106 244 91 c 0
 244 80 248 64 254 46 c 0
 261 28 268 13 277 0 c 1
 162 0 l 1
 90 64 54 135 54 212 c 1
 62 276 88 323 130 355 c 0
 174 389 228 405 293 405 c 0x3780
 304 405 320 403 342 402 c 0
 364 399 383 394 402 393 c 0
 418 392 432 390 444 389 c 0
 454 387 465 387 477 387 c 0
 525 387 551 403 555 438 c 0
 557 445 557 457 557 471 c 0
 557 490 555 506 552 525 c 0
 551 542 547 558 544 576 c 0
 541 592 539 603 538 608 c 1
 628 608 l 1
 632 600 635 577 641 539 c 0
 645 502 648 468 647 441 c 0
 645 390 629 354 605 332 c 0
 580 312 541 302 489 302 c 0x1b80
 461 302 419 304 362 313 c 0
 341 316 320 318 303 318 c 0
 262 318 229 312 204 299 c 0
 180 286 164 264 155 236 c 0
 151 218 149 203 149 191 c 0
 149 167 155 148 171 135 c 1
 171 146 174 160 181 177 c 0
 188 194 203 206 226 213 c 1
 254 213 277 206 299 193 c 0
 319 178 336 164 349 146 c 0x3780
481 148 m 0x5380
 493 148 502 151 506 157 c 0
 512 164 515 173 515 180 c 0
 515 190 512 199 506 204 c 0
 502 210 493 213 481 213 c 0
 471 213 464 210 458 204 c 0
 454 199 451 190 451 180 c 0
 451 173 454 164 458 157 c 0
 464 151 471 148 481 148 c 0x5380
EndSplineSet
EndChar
StartChar: uni0E59
Encoding: 249 3673 215
Width: 607
Flags: W
HStem: -10 84<246 265> 141 78<265 273> 315 91<230 257>
VStem: 48 90<191 219> 299 78<101 110> 513 83<411 465>
Fore
164 277 m 0
 146 255 138 229 138 202 c 0
 138 186 141 171 146 155 c 0
 151 141 155 133 157 133 c 1
 162 155 174 175 191 193 c 0
 210 212 235 219 265 219 c 0
 290 219 312 215 328 203 c 0
 342 191 355 178 364 162 c 0
 373 144 376 128 377 110 c 0
 377 74 364 45 339 23 c 0
 315 1 283 -10 246 -10 c 0
 209 -10 168 4 129 30 c 0
 90 58 65 91 54 136 c 0
 49 154 48 175 48 200 c 0
 48 246 59 286 80 319 c 0
 102 354 135 378 175 393 c 0
 197 402 219 406 244 406 c 0
 276 406 300 402 318 390 c 0
 336 378 349 370 355 362 c 1
 361 396 377 413 406 413 c 0
 431 413 451 406 468 393 c 0
 483 381 493 376 499 376 c 0
 508 376 513 394 513 434 c 0
 512 476 505 516 494 554 c 0
 483 592 477 609 476 609 c 2
 566 609 l 1
 570 597 577 580 583 555 c 0
 590 529 596 500 596 465 c 0
 597 406 592 362 583 335 c 0
 576 304 554 289 519 287 c 0
 506 287 490 293 471 304 c 0
 452 316 439 320 432 320 c 0
 428 319 426 315 426 307 c 0
 429 293 434 278 441 267 c 2
 568 36 l 1
 481 -7 l 1
 342 255 l 2
 332 276 319 290 302 300 c 0
 283 310 265 315 246 315 c 0
 212 315 184 302 164 277 c 0
265 74 m 0
 277 74 286 77 290 84 c 0
 294 90 299 99 299 109 c 0
 299 117 294 126 290 133 c 0
 286 138 277 141 265 141 c 0
 254 141 246 138 241 130 c 0
 236 125 232 116 232 109 c 0
 232 100 236 91 241 84 c 0
 246 77 254 74 265 74 c 0
EndSplineSet
EndChar
StartChar: uni0E5A
Encoding: 250 3674 216
Width: 668
VWidth: 2048
Flags: W
HStem: -39 84<277 310> 412 78<160 165> 544 97<494 513> 568 76<147 160>
VStem: 361 103<120 332> 525 104<101.861 523>
Fore
157 568 m 4xdc
 138 568 128 558 119 528 c 5
 122 505 129 496 160 490 c 5
 171 490 180 494 187 500 c 5
 190 508 194 518 197 529 c 5
 193 557 187 566 157 568 c 4xdc
447 613 m 5
 471 628 l 4
 481 634 494 639 512 641 c 4
 513 641 l 4
 554 641 589 628 609 597 c 4
 616 587 621 574 626 555 c 4
 626 554 626 554 626 554 c 4
 629 522 l 4
 629 521 629 521 629 521 c 4
 629 128 l 4
 631 51 592 -4 521 -30 c 4
 519 -30 519 -30 519 -30 c 4
 499 -39 l 4
 490 -39 483 -39 478 -33 c 4
 452 20 l 4
 450 33 441 38 452 45 c 4
 465 48 l 4
 474 49 478 52 483 55 c 4
 512 78 l 4
 518 86 522 96 525 100 c 5
 525 516 l 4
 525 528 521 532 521 534 c 4
 516 541 512 544 494 544 c 4xec
 478 544 468 534 464 528 c 5
 464 136 l 4
 464 90 451 49 425 14 c 4
 394 -22 355 -39 310 -39 c 4
 304 -39 302 -38 299 -33 c 4
 265 25 l 4
 262 41 262 38 277 45 c 4
 299 45 318 54 341 77 c 4
 352 88 361 106 361 138 c 4
 361 332 l 5
 361 332 361 319 323 302 c 4
 297 281 264 274 223 274 c 4
 157 274 103 299 68 345 c 4
 35 389 20 444 20 509 c 4
 20 512 20 512 20 512 c 4
 23 547 38 579 64 605 c 4
 90 631 123 644 160 644 c 4
 177 644 193 641 203 638 c 5
 244 625 274 600 274 532 c 4
 274 500 264 470 242 447 c 4
 222 425 193 412 161 412 c 4
 130 412 l 5
 129 420 l 5
 138 396 l 5
 144 387 151 380 155 377 c 5
 190 365 l 5
 219 362 l 5
 241 364 255 368 273 381 c 5
 297 409 l 5
 325 455 l 4
 332 471 339 492 342 513 c 5
 351 600 l 4
 351 602 351 602 351 602 c 4
 354 626 376 644 400 642 c 4
 412 642 423 641 432 632 c 4
 436 631 l 4
 445 616 l 4
 445 615 445 615 447 615 c 4
 447 613 l 5
EndSplineSet
EndChar
StartChar: uni0E5B
Encoding: 251 3675 217
Width: 1186
VWidth: 2048
Flags: W
HStem: 41 78<251 261> 246 69<981 1174> 364 52<211 216> 516 78<226 245>
VStem: 20 77<296 344> 135 59<320 335> 232 62<283 293> 331 76<365 410>
Fore
283 267 m 1
 315 291 331 332 331 390 c 0
 331 474 297 516 226 516 c 0
 187 516 154 492 129 444 c 0
 106 405 97 362 97 319 c 0
 97 270 110 226 136 187 c 0
 165 142 203 119 251 119 c 0
 316 119 364 157 393 231 c 0
 409 270 426 325 444 393 c 2
 487 557 l 1
 529 557 l 1
 579 342 l 1
 610 532 l 1
 655 532 l 1
 697 335 l 1
 754 512 l 1
 809 348 l 1
 848 474 l 1
 893 370 928 316 950 316 c 2
 982 315 l 1
 1174 315 l 1
 1174 251 l 1
 960 246 l 1
 911 251 l 1
 899 254 887 262 877 277 c 1
 879 283 l 1
 867 290 l 1
 808 102 l 1
 757 276 l 1
 696 96 l 1
 639 273 l 1
 605 77 l 1
 560 77 l 1
 506 329 l 1
 478 232 452 168 429 135 c 0
 389 72 328 41 251 41 c 0
 177 41 119 71 77 129 c 0
 39 180 20 244 20 320 c 0
 20 390 36 451 71 503 c 0
 109 564 161 594 226 594 c 0
 283 594 329 574 362 532 c 0
 393 494 407 445 407 389 c 0
 407 335 396 290 374 252 c 0
 345 206 306 184 257 184 c 0
 223 184 191 200 165 232 c 1
 144 265 135 294 135 320 c 0
 135 345 141 368 154 386 c 0
 168 406 188 416 213 416 c 0
 239 416 261 406 276 389 c 0
 291 370 299 348 297 320 c 2
 294 293 l 2
 294 286 290 276 283 267 c 1
194 320 m 0
 194 289 204 273 222 273 c 0
 228 273 232 276 232 283 c 1
 236 320 l 1
 239 348 231 362 216 364 c 1
 203 364 194 349 194 320 c 0
EndSplineSet
EndChar
StartChar: uni0E38.low
Encoding: 252 63256 218
Width: 0
Flags: W
HStem: -534 66<-216 -194> -380 65<-208.603 -194>
VStem: -310 68<-425 -413> -154 66<-435 -414>
Fore
-88 -658 m 1
 -178 -658 l 1
 -178 -532 l 1
 -186 -534 -199 -534 -216 -534 c 1
 -246 -529 -268 -518 -286 -496 c 0
 -302 -476 -310 -452 -310 -425 c 0
 -310 -394 -300 -368 -278 -348 c 0
 -260 -326 -231 -315 -197 -315 c 4
 -178 -315 -161 -318 -144 -326 c 0
 -129 -335 -116 -348 -104 -362 c 0
 -96 -378 -88 -396 -88 -416 c 2
 -88 -658 l 1
-199 -468 m 0
 -184 -468 -174 -464 -165 -455 c 0
 -157 -447 -154 -438 -154 -425 c 0
 -154 -413 -157 -402 -165 -393 c 0
 -174 -386 -184 -380 -199 -380 c 0
 -213 -380 -223 -386 -231 -393 c 0
 -239 -403 -242 -413 -242 -425 c 0
 -242 -436 -239 -447 -231 -455 c 0
 -223 -464 -213 -468 -199 -468 c 0
EndSplineSet
EndChar
StartChar: uni0E39.low
Encoding: 253 63257 219
Width: 0
Flags: W
HStem: -668 79<-211 -200> -534 66<-355 -333> -380 65<-347.603 -333>
VStem: -450 69<-425 -414> -320 92<-576 -532> -294 66<-429 -416> -178 90<-570.089 -320>
Fore
-320 -576 m 2xfa
 -320 -532 l 1xfa
 -328 -534 -339 -534 -355 -534 c 1
 -386 -529 -407 -518 -425 -496 c 0
 -441 -476 -450 -452 -450 -425 c 0
 -450 -394 -439 -368 -418 -348 c 0
 -399 -326 -370 -315 -336 -315 c 0
 -318 -315 -300 -318 -283 -326 c 0
 -268 -335 -255 -348 -244 -362 c 0
 -235 -378 -228 -396 -228 -416 c 2xf6
 -228 -560 l 2
 -228 -579 -219 -589 -202 -589 c 0
 -187 -589 -178 -579 -178 -560 c 2
 -178 -320 l 1
 -88 -320 l 1
 -88 -576 l 2
 -88 -594 -96 -610 -106 -626 c 0
 -117 -641 -133 -651 -151 -657 c 0
 -168 -666 -187 -668 -204 -668 c 0
 -232 -668 -260 -660 -283 -644 c 0
 -307 -626 -320 -603 -320 -576 c 2xfa
-338 -468 m 0
 -325 -468 -315 -464 -306 -455 c 0
 -299 -447 -294 -436 -294 -425 c 0xf6
 -294 -413 -299 -402 -306 -393 c 0
 -315 -386 -325 -380 -338 -380 c 0
 -352 -380 -362 -386 -370 -393 c 0
 -378 -403 -381 -413 -381 -425 c 0
 -381 -436 -378 -447 -370 -455 c 0
 -362 -464 -352 -468 -338 -468 c 0
EndSplineSet
EndChar
StartChar: uni0E3A.low
Encoding: 254 63258 220
Width: 0
Flags: W
Fore
-133 -303 m 0
 -122 -303 -112 -304 -103 -310 c 0
 -96 -315 -88 -323 -84 -332 c 0
 -78 -342 -77 -352 -77 -361 c 0
 -77 -376 -81 -389 -91 -400 c 0
 -102 -412 -115 -416 -133 -416 c 0
 -151 -416 -164 -412 -174 -400 c 0
 -186 -389 -190 -376 -190 -361 c 0
 -190 -345 -186 -331 -174 -319 c 0
 -164 -307 -151 -303 -133 -303 c 0
EndSplineSet
EndChar
StartChar: exclamdown
Encoding: 256 161 221
Width: 210
VWidth: 2048
Flags: W
HStem: 478 118<23 180>
Fore
180 596 m 1
 180 478 l 1
 23 478 l 1
 23 596 l 1
 180 596 l 1
157 413 m 1
 193 20 l 1
 193 -142 l 1
 12 -142 l 1
 12 20 l 1
 45 413 l 1
 157 413 l 1
EndSplineSet
EndChar
StartChar: cent
Encoding: 257 162 222
Width: 504
VWidth: 2048
Flags: W
HStem: 4 112<246 262> 490 102<213 241>
VStem: -30 116<264 314>
Fore
358 471 m 1
 248 119 l 1
 260 116 l 1
 336 116 380 157 393 239 c 1
 508 213 l 1
 494 152 467 102 419 64 c 0
 374 25 315 4 246 4 c 0
 238 4 226 7 213 10 c 2
 209 12 l 1
 139 -199 l 1
 29 -180 l 1
 99 30 l 1
 33 61 -9 115 -23 190 c 0
 -28 219 -30 255 -30 297 c 0
 -30 381 -10 451 35 505 c 0
 81 563 152 592 241 592 c 1
 277 589 l 1
 342 793 l 1
 451 777 l 1
 387 570 l 1
 429 555 458 526 476 483 c 0
 480 471 484 455 489 439 c 1
 493 415 l 1
 386 393 l 1
 376 450 l 1
 376 451 l 1
 376 451 l 1
 376 452 l 1
 376 452 l 1
 373 461 367 467 358 471 c 1
239 489 m 1
 236 490 l 2
 136 492 86 429 86 303 c 0
 86 239 90 197 99 177 c 0
 103 161 113 148 126 138 c 1
 239 489 l 1
EndSplineSet
EndChar
StartChar: sterling
Encoding: 258 163 223
Width: 494
VWidth: 2048
Flags: W
HStem: -7 85<354 362> 260 78<-12 78 164 297> 518 87<232 257>
VStem: 35 104<418 440> 84 102<214 223>
Fore
164 338 m 1xf0
 297 338 l 1
 297 260 l 1
 177 260 l 1
 181 249 186 235 186 216 c 2
 186 167 l 1
 184 152 168 133 142 109 c 1
 174 116 l 1
 180 116 l 2
 190 116 204 113 223 103 c 0
 232 102 239 99 248 97 c 0
 302 86 338 78 355 78 c 0
 377 78 406 87 444 102 c 1
 465 17 l 1
 419 1 381 -7 354 -7 c 1
 315 -3 l 1
 255 10 l 1
 194 26 l 1
 151 28 l 1
 102 28 55 16 13 -9 c 1
 -23 65 l 1
 48 102 84 154 84 223 c 1xe8
 78 260 l 1
 -12 260 l 1
 -12 338 l 1
 58 338 l 1
 42 381 35 415 35 436 c 0
 35 487 55 528 97 557 c 1
 135 589 184 605 242 605 c 0
 362 605 431 552 447 451 c 1
 354 419 l 1
 344 467 328 494 303 508 c 0
 289 513 270 518 246 518 c 0
 213 518 186 508 161 487 c 0
 148 477 139 458 139 434 c 0
 139 438 139 432 139 418 c 0
 139 405 144 389 152 367 c 0
 155 357 161 345 164 338 c 1xf0
EndSplineSet
EndChar
StartChar: currency
Encoding: 259 164 224
Width: 542
VWidth: 2048
Flags: W
HStem: 74 126<236 264> 351 130<235 251>
VStem: 36 138<263 290> 329 145<263 282>
Fore
72 376 m 1
 0 441 l 1
 77 516 l 1
 149 450 l 1
 181 468 210 480 235 481 c 2
 235 481 l 2
 238 481 239 481 242 483 c 2
 254 483 l 2
 286 483 315 476 344 457 c 2
 357 450 l 1
 429 516 l 1
 513 439 l 1
 444 374 l 1
 461 348 471 320 474 297 c 1
 474 294 l 1
 474 280 l 2
 474 241 468 215 463 199 c 1
 450 177 l 1
 519 110 l 1
 436 33 l 1
 362 102 l 1
 338 84 306 75 270 74 c 2
 254 74 l 2
 213 74 180 80 157 96 c 0
 152 97 149 100 144 102 c 1
 72 35 l 1
 -9 113 l 1
 64 178 l 1
 46 204 36 232 36 265 c 1
 36 267 l 1
 36 267 l 1
 36 268 l 1
 36 268 l 1
 36 280 l 2
 36 306 45 332 62 358 c 1
 72 376 l 1
174 276 m 0
 174 254 180 236 194 222 c 0
 210 206 229 200 251 200 c 0
 274 200 291 206 306 222 c 0
 320 236 329 254 329 276 c 0
 329 297 320 315 306 329 c 0
 290 342 273 351 251 351 c 0
 229 351 212 342 197 329 c 0
 181 315 174 297 174 276 c 0
EndSplineSet
EndChar
StartChar: yen
Encoding: 260 165 225
Width: 688
VWidth: 2048
Flags: W
HStem: 0 21G<268 383> 141 100<0 268 383 647> 289 104<0 268 428 647>
VStem: 268 115<0 141 241 289>
Fore
268 0 m 1
 268 141 l 1
 0 141 l 1
 0 241 l 1
 268 241 l 1
 268 289 l 1
 0 289 l 1
 0 393 l 1
 222 393 l 1
 -39 758 l 1
 103 758 l 1
 291 492 l 1
 325 429 l 1
 357 499 l 1
 534 758 l 1
 689 758 l 1
 428 393 l 1
 647 393 l 1
 647 289 l 1
 383 289 l 1
 383 241 l 1
 647 241 l 1
 647 141 l 1
 383 141 l 1
 383 0 l 1
 268 0 l 1
EndSplineSet
EndChar
StartChar: brokenbar
Encoding: 261 166 226
Width: 136
VWidth: 2048
Flags: W
VStem: 9 114<-236 110 262 608>
Fore
123 608 m 1
 123 262 l 1
 9 262 l 1
 9 608 l 1
 123 608 l 1
123 110 m 1
 123 -236 l 1
 9 -236 l 1
 9 110 l 1
 123 110 l 1
EndSplineSet
EndChar
StartChar: section
Encoding: 262 167 227
Width: 645
VWidth: 2048
Flags: W
HStem: -184 103<290 318>
VStem: -23 185<323 342> 441 143<-22 1> 465 166<242 254>
Fore
20 -7 m 1xe0
 160 7 l 1
 180 -28 197 -49 209 -59 c 2
 210 -61 l 2
 226 -71 254 -78 291 -81 c 1
 331 -81 364 -75 393 -62 c 0
 425 -46 441 -26 441 1 c 0
 441 16 432 28 419 38 c 1
 419 38 l 1
 418 38 l 2
 409 46 390 58 357 72 c 1
 206 141 l 2
 136 174 86 202 54 223 c 0
 1 260 -23 300 -23 342 c 0
 -23 412 28 458 129 480 c 1
 71 519 41 560 41 602 c 0
 41 648 68 686 119 718 c 0
 167 744 204 760 232 767 c 0
 248 770 264 771 280 771 c 0
 400 771 483 740 534 676 c 0
 554 648 567 619 574 587 c 1
 441 571 l 1xe0
 423 605 409 626 396 634 c 0
 380 647 355 654 323 657 c 0
 293 658 264 652 229 638 c 1
 209 628 199 608 197 579 c 0
 197 567 204 557 222 547 c 0
 191 564 206 555 270 522 c 2
 287 515 l 1
 394 451 l 1
 474 416 526 390 552 374 c 0
 605 338 631 299 631 254 c 0xd0
 631 191 580 144 478 113 c 1
 550 75 584 29 584 -22 c 0
 584 -72 557 -113 500 -144 c 0
 451 -171 390 -184 318 -184 c 0
 146 -184 46 -125 20 -7 c 1xe0
394 181 m 1
 442 200 465 219 465 244 c 0xd0
 465 273 420 304 332 341 c 1
 293 358 261 376 235 390 c 1
 187 370 162 348 162 323 c 0
 162 297 203 265 283 231 c 0
 336 210 373 193 394 181 c 1
EndSplineSet
EndChar
